<svg xmlns="http://www.w3.org/2000/svg" width="19.098" height="19.098" viewBox="0 0 19.098 19.098">
  <defs>
    <style>
      .cls-1, .cls-2 {
        fill: #fff;
      }

      .cls-3, .cls-4 {
        stroke: none;
      }

      .cls-4 {
        fill: rgba(59,184,176,1);
      }
    </style>
  </defs>
  <g id="组_2803" data-name="组 2803" transform="translate(-469.451 -541.451)">
    <path id="路径_947" data-name="路径 947" class="cls-1" d="M9.549,0A9.549,9.549,0,1,1,0,9.549,9.549,9.549,0,0,1,9.549,0Z" transform="translate(469.451 541.451)"/>
    <g id="路径_948" data-name="路径 948" class="cls-2" transform="translate(473.169 545.169)">
      <path class="cls-3" d="M 5.831054210662842 11.16210460662842 C 2.891504287719727 11.16210460662842 0.5000042319297791 8.770604133605957 0.5000042319297791 5.831054210662842 C 0.5000042319297791 2.891504287719727 2.891504287719727 0.5000042319297791 5.831054210662842 0.5000042319297791 C 8.770604133605957 0.5000042319297791 11.16210460662842 2.891504287719727 11.16210460662842 5.831054210662842 C 11.16210460662842 8.770604133605957 8.770604133605957 11.16210460662842 5.831054210662842 11.16210460662842 Z"/>
      <path class="cls-4" d="M 5.831054210662842 1.000003814697266 C 3.167203903198242 1.000003814697266 1.000003814697266 3.167203903198242 1.000003814697266 5.831054210662842 C 1.000003814697266 8.494904518127441 3.167203903198242 10.66210460662842 5.831054210662842 10.66210460662842 C 8.494904518127441 10.66210460662842 10.66210460662842 8.494904518127441 10.66210460662842 5.831054210662842 C 10.66210460662842 3.167203903198242 8.494904518127441 1.000003814697266 5.831054210662842 1.000003814697266 M 5.831054210662842 3.814697265625e-06 C 9.051454544067383 3.814697265625e-06 11.66210460662842 2.610653877258301 11.66210460662842 5.831054210662842 C 11.66210460662842 9.051454544067383 9.051454544067383 11.66210460662842 5.831054210662842 11.66210460662842 C 2.610653877258301 11.66210460662842 3.814697265625e-06 9.051454544067383 3.814697265625e-06 5.831054210662842 C 3.814697265625e-06 2.610653877258301 2.610653877258301 3.814697265625e-06 5.831054210662842 3.814697265625e-06 Z"/>
    </g>
  </g>
</svg>
