<svg xmlns="http://www.w3.org/2000/svg" width="19.098" height="19.098" viewBox="0 0 19.098 19.098">
  <defs>
    <style>
      .cls-1 {
        fill: none;
      }

      .cls-2, .cls-3 {
        stroke: none;
      }

      .cls-3 {
        fill: rgba(59,184,176,1);
      }
    </style>
  </defs>
  <g id="组_2604" data-name="组 2604" transform="translate(-469.451 -541.451)">
    <g id="路径_947" data-name="路径 947" class="cls-1" transform="translate(469.451 541.451)">
      <path class="cls-2" d="M9.549,0A9.549,9.549,0,1,1,0,9.549,9.549,9.549,0,0,1,9.549,0Z"/>
      <path class="cls-3" d="M 9.548828125 0.9999980926513672 C 4.834988594055176 0.9999980926513672 0.9999980926513672 4.834988594055176 0.9999980926513672 9.548828125 C 0.9999980926513672 14.26266860961914 4.834988594055176 18.09765815734863 9.548828125 18.09765815734863 C 14.26266860961914 18.09765815734863 18.09765815734863 14.26266860961914 18.09765815734863 9.548828125 C 18.09765815734863 4.834988594055176 14.26266860961914 0.9999980926513672 9.548828125 0.9999980926513672 M 9.548828125 -1.9073486328125e-06 C 14.8224983215332 -1.9073486328125e-06 19.09765815734863 4.275157928466797 19.09765815734863 9.548828125 C 19.09765815734863 14.8224983215332 14.8224983215332 19.09765815734863 9.548828125 19.09765815734863 C 4.275157928466797 19.09765815734863 -1.9073486328125e-06 14.8224983215332 -1.9073486328125e-06 9.548828125 C -1.9073486328125e-06 4.275157928466797 4.275157928466797 -1.9073486328125e-06 9.548828125 -1.9073486328125e-06 Z"/>
    </g>
    <g id="路径_948" data-name="路径 948" class="cls-1" transform="translate(473.169 545.169)">
      <path class="cls-2" d="M5.831,0A5.831,5.831,0,1,1,0,5.831,5.831,5.831,0,0,1,5.831,0Z"/>
      <path class="cls-3" d="M 5.831054210662842 1.000003814697266 C 3.167203903198242 1.000003814697266 1.000003814697266 3.167203903198242 1.000003814697266 5.831054210662842 C 1.000003814697266 8.494904518127441 3.167203903198242 10.66210460662842 5.831054210662842 10.66210460662842 C 8.494904518127441 10.66210460662842 10.66210460662842 8.494904518127441 10.66210460662842 5.831054210662842 C 10.66210460662842 3.167203903198242 8.494904518127441 1.000003814697266 5.831054210662842 1.000003814697266 M 5.831054210662842 3.814697265625e-06 C 9.051454544067383 3.814697265625e-06 11.66210460662842 2.610653877258301 11.66210460662842 5.831054210662842 C 11.66210460662842 9.051454544067383 9.051454544067383 11.66210460662842 5.831054210662842 11.66210460662842 C 2.610653877258301 11.66210460662842 3.814697265625e-06 9.051454544067383 3.814697265625e-06 5.831054210662842 C 3.814697265625e-06 2.610653877258301 2.610653877258301 3.814697265625e-06 5.831054210662842 3.814697265625e-06 Z"/>
    </g>
  </g>
</svg>
