<svg xmlns="http://www.w3.org/2000/svg" width="19.098" height="19.098" viewBox="0 0 19.098 19.098">
  <defs>
    <style>
      .cls-1, .cls-2 {
        fill: #fff;
      }

      .cls-2 {
        stroke: rgba(59,184,176,1);
      }

      .cls-3, .cls-4 {
        stroke: none;
      }

      .cls-4 {
        fill: rgba(59,184,176,1);
      }
    </style>
  </defs>
  <g id="组_2605" data-name="组 2605" transform="translate(-359.451 -541.451)">
    <g id="路径_944" data-name="路径 944" class="cls-1" transform="translate(359.451 541.451)">
      <path class="cls-3" d="M 9.548828125 18.59765815734863 C 4.559288024902344 18.59765815734863 0.4999981224536896 14.53836822509766 0.4999981224536896 9.548828125 C 0.4999981224536896 4.559288024902344 4.559288024902344 0.4999981224536896 9.548828125 0.4999981224536896 C 14.53836822509766 0.4999981224536896 18.59765815734863 4.559288024902344 18.59765815734863 9.548828125 C 18.59765815734863 14.53836822509766 14.53836822509766 18.59765815734863 9.548828125 18.59765815734863 Z"/>
      <path class="cls-4" d="M 9.548828125 0.9999980926513672 C 4.834988594055176 0.9999980926513672 0.9999980926513672 4.834988594055176 0.9999980926513672 9.548828125 C 0.9999980926513672 14.26266860961914 4.834988594055176 18.09765815734863 9.548828125 18.09765815734863 C 14.26266860961914 18.09765815734863 18.09765815734863 14.26266860961914 18.09765815734863 9.548828125 C 18.09765815734863 4.834988594055176 14.26266860961914 0.9999980926513672 9.548828125 0.9999980926513672 M 9.548828125 -1.9073486328125e-06 C 14.8224983215332 -1.9073486328125e-06 19.09765815734863 4.275157928466797 19.09765815734863 9.548828125 C 19.09765815734863 14.8224983215332 14.8224983215332 19.09765815734863 9.548828125 19.09765815734863 C 4.275157928466797 19.09765815734863 -1.9073486328125e-06 14.8224983215332 -1.9073486328125e-06 9.548828125 C -1.9073486328125e-06 4.275157928466797 4.275157928466797 -1.9073486328125e-06 9.548828125 -1.9073486328125e-06 Z"/>
    </g>
    <path id="路径_945" data-name="路径 945" class="cls-2" d="M-17992.459-9848.543l-.605,9.353,8.785-1.351" transform="translate(18362.064 10390.339)"/>
  </g>
</svg>
