<svg id="组_3870" data-name="组 3870" xmlns="http://www.w3.org/2000/svg" width="16" height="16" viewBox="0 0 16 16">
  <circle id="椭圆_96" data-name="椭圆 96" cx="8" cy="8" r="8" fill="#dbdbdb"/>
  <g id="Group_57" data-name="Group 57" transform="translate(3 14) rotate(-90)">
    <rect id="Rectangle_36_Copy_6" data-name="Rectangle 36 Copy 6" width="11" height="11" fill="none"/>
    <g id="down" transform="translate(1.654 3.198)">
      <path id="Shape" d="M7.663.446a.456.456,0,0,1-.1.279l-3.4,4.32a.431.431,0,0,1-.68,0L.1.743A.452.452,0,0,1,.163.117.43.43,0,0,1,.776.186L3.823,4.055,6.887.166A.43.43,0,0,1,7.5.1.45.45,0,0,1,7.663.446Z" fill="#fff"/>
    </g>
  </g>
</svg>
