<svg xmlns="http://www.w3.org/2000/svg" width="14" height="14.001" viewBox="0 0 14 14.001">
  <g id="联动" transform="translate(-80.6 -81.7)">
    <path id="路径_935" data-name="路径 935" d="M86.243,93.664a1.4,1.4,0,0,1-1.392,1.4H82.632a1.4,1.4,0,0,1-1.392-1.4V83.737a1.4,1.4,0,0,1,1.392-1.4h2.217a1.4,1.4,0,0,1,1.392,1.4v2.922h.639V83.737A2.036,2.036,0,0,0,84.849,81.7H82.632A2.036,2.036,0,0,0,80.6,83.737v9.925A2.036,2.036,0,0,0,82.632,95.7h2.217a2.036,2.036,0,0,0,2.032-2.037v-2.92h-.639v2.922Z" fill="#376def"/>
    <path id="路径_936" data-name="路径 936" d="M174.239,416.635H178.2a.755.755,0,0,0-.751-.735h-3.291a.755.755,0,0,0-.753.751v1.542a.754.754,0,0,0,.753.751h3.291a.754.754,0,0,0,.751-.751v-.016h-3.957Z" transform="translate(-91.294 -328.759)" fill="#376def"/>
    <path id="路径_937" data-name="路径 937" d="M408.9,485.3h3.372v.673H408.9Z" transform="translate(-322.972 -397.033)" fill="#376def"/>
    <path id="路径_938" data-name="路径 938" d="M560.55,81.7h-2.219a2.036,2.036,0,0,0-2.032,2.037v2.922h.639V83.737a1.4,1.4,0,0,1,1.392-1.4h2.217a1.4,1.4,0,0,1,1.392,1.4v9.925a1.4,1.4,0,0,1-1.392,1.4h-2.217a1.4,1.4,0,0,1-1.392-1.4v-2.92H556.3v2.922a2.036,2.036,0,0,0,2.032,2.037h2.217a2.036,2.036,0,0,0,2.032-2.037V83.737A2.035,2.035,0,0,0,560.55,81.7Z" transform="translate(-467.98)" fill="#376def"/>
    <path id="路径_939" data-name="路径 939" d="M555.051,418.848h3.291a.754.754,0,0,0,.751-.753v-1.542a.755.755,0,0,0-.751-.753h-3.291a.754.754,0,0,0-.751.735h3.956v1.542H554.3v.016A.755.755,0,0,0,555.051,418.848Z" transform="translate(-466.013 -328.661)" fill="#376def"/>
  </g>
</svg>
