<svg xmlns="http://www.w3.org/2000/svg" xmlns:xlink="http://www.w3.org/1999/xlink" width="14" height="14" viewBox="0 0 14 14">
  <defs>
    <style>
      .cls-1, .cls-3 {
        fill: #376def;
      }

      .cls-1 {
        stroke: #707070;
      }

      .cls-2 {
        clip-path: url(#clip-path);
      }
    </style>
    <clipPath id="clip-path">
      <rect id="矩形_1136" data-name="矩形 1136" class="cls-1" width="14" height="14" transform="translate(95 349)"/>
    </clipPath>
  </defs>
  <g id="蒙版组_1" data-name="蒙版组 1" class="cls-2" transform="translate(-95 -349)">
    <path id="多选项" class="cls-3" d="M13.9,1.5H3.086A1.6,1.6,0,0,0,1.5,3.086V13.9A1.6,1.6,0,0,0,3.086,15.5H13.9A1.6,1.6,0,0,0,15.5,13.9V3.086A1.6,1.6,0,0,0,13.9,1.5ZM14.541,13.9a.647.647,0,0,1-.636.636H3.086A.646.646,0,0,1,2.45,13.9V3.086a.647.647,0,0,1,.636-.636H13.9a.647.647,0,0,1,.636.636V13.9Zm-2.052-9.06-5.945,6.2L4.469,8.879a.469.469,0,0,0-.684,0,.519.519,0,0,0,0,.713L6.2,12.113a.469.469,0,0,0,.684,0l6.287-6.555a.519.519,0,0,0,0-.713.469.469,0,0,0-.684,0Z" transform="translate(93.505 347.505)"/>
  </g>
</svg>
