<svg id="Group_149" data-name="Group 149" xmlns="http://www.w3.org/2000/svg" width="16" height="16" viewBox="0 0 16 16">
  <defs>
    <style>
      .cls-1 {
        fill: none;
      }

      .cls-2 {
        fill: #376def;
      }
    </style>
  </defs>
  <rect id="Rectangle_45_Copy_5" data-name="Rectangle 45 Copy 5" class="cls-1" width="16" height="16"/>
  <g id="calendar" transform="translate(1.025 1.025)">
    <path id="Shape" class="cls-2" d="M12.828,13.949H1.121A1.122,1.122,0,0,1,0,12.828V2.117A1.122,1.122,0,0,1,1.121,1H2.989V.56A.56.56,0,0,1,4.11.56V1H9.839V.56a.56.56,0,0,1,1.121,0V1h1.868a1.122,1.122,0,0,1,1.121,1.121V12.828A1.122,1.122,0,0,1,12.828,13.949ZM1.121,4.982v7.846H12.828V4.982Zm0-2.864V3.861H12.828V2.117H10.96v.311a.56.56,0,1,1-1.121,0V2.117H4.11v.311a.56.56,0,1,1-1.121,0V2.117Zm6.352,8.873h-1a.5.5,0,1,1,0-1h1a.5.5,0,0,1,0,1Zm-2.989,0h-1a.5.5,0,0,1,0-1h1a.5.5,0,0,1,0,1Zm5.978-3.02h-1a.5.5,0,1,1,0-1h1a.5.5,0,0,1,0,1Zm-2.989,0h-1a.5.5,0,1,1,0-1h1a.5.5,0,0,1,0,1Zm-2.989,0h-1a.5.5,0,0,1,0-1h1a.5.5,0,0,1,0,1Z" transform="translate(0 0)"/>
  </g>
</svg>
