<svg xmlns="http://www.w3.org/2000/svg" xmlns:xlink="http://www.w3.org/1999/xlink" width="14" height="14" viewBox="0 0 14 14">
  <defs>
    <style>
      .cls-1, .cls-3 {
        fill: #376def;
      }

      .cls-1 {
        stroke: #707070;
      }

      .cls-2 {
        clip-path: url(#clip-path);
      }
    </style>
    <clipPath id="clip-path">
      <rect id="矩形_1354" data-name="矩形 1354" class="cls-1" width="14" height="14" transform="translate(-16861 -15406)"/>
    </clipPath>
  </defs>
  <g id="段落" class="cls-2" transform="translate(16861 15406)">
    <g id="段落说明" transform="translate(-16863.334 -15408.333)">
      <path id="路径_965" data-name="路径 965" class="cls-3" d="M14,2.333H4.667A2.333,2.333,0,0,0,2.333,4.667V14a2.333,2.333,0,0,0,2.333,2.333H14A2.333,2.333,0,0,0,16.333,14V4.667A2.333,2.333,0,0,0,14,2.333ZM15.4,14A1.4,1.4,0,0,1,14,15.4H4.667a1.4,1.4,0,0,1-1.4-1.4V4.667a1.4,1.4,0,0,1,1.4-1.4H14a1.4,1.4,0,0,1,1.4,1.4Z"/>
      <path id="路径_966" data-name="路径 966" class="cls-3" d="M13.067,5.861H5.6a.467.467,0,1,0,0,.933h7.467a.467.467,0,0,0,0-.933Zm-7.467,4H9.333a.467.467,0,0,0,0-.933H5.6a.467.467,0,1,0,0,.933ZM13.067,12H5.6a.467.467,0,1,0,0,.933h7.467a.467.467,0,0,0,0-.933Z"/>
    </g>
  </g>
</svg>
