<svg xmlns="http://www.w3.org/2000/svg" width="17" height="14.357" viewBox="0 0 17 14.357">
  <g id="Group_169" data-name="Group 169" transform="translate(-1.5 -4.141)">
    <g id="download" transform="translate(1.5 1.5)">
      <path id="Shape" d="M15.822,17H1.178A1.179,1.179,0,0,1,0,15.819V11.59a.656.656,0,1,1,1.311,0V15.3a.391.391,0,0,0,.391.391H15.3a.391.391,0,0,0,.391-.391V11.592a.657.657,0,0,1,1.313,0v4.229A1.179,1.179,0,0,1,15.822,17Zm-7.3-3.14a.652.652,0,0,1-.464-.191L5.1,10.708a.659.659,0,0,1,0-.928.654.654,0,0,1,.925,0l1.839,1.839V3.3a.657.657,0,0,1,1.313,0v8.322L11.016,9.78a.655.655,0,0,1,.926,0,.658.658,0,0,1,0,.928L8.984,13.667A.659.659,0,0,1,8.519,13.857Z" transform="translate(0 0)" fill="#333"/>
    </g>
  </g>
</svg>
