<svg xmlns="http://www.w3.org/2000/svg" width="18" height="17.998" viewBox="0 0 18 17.998">
  <path id="Shape" d="M17.275,18H.723a.723.723,0,0,1,0-1.446H17.275a.723.723,0,0,1,0,1.446ZM4.406,14.234a.646.646,0,0,1-.589-.9l2-4.728A.648.648,0,0,1,5.958,8.4L13.937.425a1.452,1.452,0,0,1,2.049,0l1.593,1.593a1.451,1.451,0,0,1,0,2.049L9.6,12.042a.647.647,0,0,1-.205.137l-4.73,2A.654.654,0,0,1,4.406,14.234ZM12.691,3.716h0l-5.6,5.6L5.922,12.076l2.76-1.169,5.6-5.6L12.691,3.716Zm2.272-2.272h0l0,0L13.714,2.694,15.3,4.284,16.55,3.038l0,0L14.962,1.444Z" fill="#28bf7e"/>
</svg>
