<svg xmlns="http://www.w3.org/2000/svg" width="16" height="16" viewBox="0 0 16 16">
  <defs>
    <style>
      .cls-1 {
        fill: #376def;
      }
    </style>
  </defs>
  <path id="问题" class="cls-1" d="M40.209,17.207a1.135,1.135,0,0,1,1.158,1.109v5.435l.111-.259-6.568,6.4.276-.111H30.548a1.132,1.132,0,0,1-1.158-1.106V16.837l-.386.37Zm-11.591-.74v12.2a1.889,1.889,0,0,0,1.93,1.845h4.8l.114-.111,6.568-6.4.111-.108V18.316a1.891,1.891,0,0,0-1.931-1.849H28.618Zm12.476,9.352-.273.261.273.261,1.545,1.479.273.261.273-.261,1.159-1.109.273-.261-.273-.261L42.8,24.71l-.273-.261-.273.261-1.159,1.109Zm1.159-.586L43.8,26.712v-.523L42.639,27.3h.546L41.64,25.819v.523L42.8,25.233Zm-5.409,4.653-.083.079-.023.11-.386,1.849-.114.544.568-.109,1.932-.37.115-.022.083-.079,4.25-4.067.273-.261-.273-.262L41.64,25.819l-.273-.261-.273.261-4.25,4.067Zm4.25-3.544,1.545,1.479V27.3l-4.25,4.067.2-.1-1.932.37.455.435L37.5,30.22l-.106.189,4.25-4.067Zm-5.775-.378a.516.516,0,0,1,.528.5V26.6a.515.515,0,0,1-.528.5h0a.516.516,0,0,1-.528-.5v-.134a.515.515,0,0,1,.528-.5Zm-2.451-4.038a.418.418,0,0,0,.449.349.393.393,0,0,0,.431-.349q-.04-1.694,1.639-1.612a1.147,1.147,0,0,1,1.157,1.208,2.727,2.727,0,0,1-.838,1.251,2.643,2.643,0,0,0-1,1.733v.523a.438.438,0,0,0,.839,0v-.363a2.4,2.4,0,0,1,.958-1.532,2.371,2.371,0,0,0,1-1.612,2,2,0,0,0-2.2-2.1q-2.437-.039-2.438,2.5Zm0,0" transform="translate(-28.618 -16.468)"/>
</svg>
