<svg xmlns="http://www.w3.org/2000/svg" width="14" height="14" viewBox="0 0 14 14">
  <defs>
    <style>
      .cls-1 {
        fill: #376def;
      }
    </style>
  </defs>
  <path id="单行填空_1_" data-name="单行填空 (1)" class="cls-1" d="M2.625,0h8.75A2.625,2.625,0,0,1,14,2.625v8.75A2.625,2.625,0,0,1,11.375,14H2.625A2.625,2.625,0,0,1,0,11.375V2.625A2.625,2.625,0,0,1,2.625,0Zm0,.875a1.75,1.75,0,0,0-1.75,1.75v8.75a1.75,1.75,0,0,0,1.75,1.75h8.75a1.75,1.75,0,0,0,1.75-1.75V2.625a1.75,1.75,0,0,0-1.75-1.75Zm1.75,5.25h5.25a.875.875,0,0,1,0,1.75H4.375a.875.875,0,0,1,0-1.75Z"/>
</svg>
