<svg xmlns="http://www.w3.org/2000/svg" width="12.55" height="19" viewBox="0 0 12.55 19">
  <g id="组_3737" data-name="组 3737" transform="translate(-384 -1190)">
    <ellipse id="椭圆_88" data-name="椭圆 88" cx="5.5" cy="2.5" rx="5.5" ry="2.5" transform="translate(385 1204)" fill="#376def" opacity="0.203"/>
    <g id="组_3736" data-name="组 3736" transform="translate(-300 1008)">
      <path id="路径_1346" data-name="路径 1346" d="M690.275,198.332c-.2,0-.3-.023-.372-.1-.041-.048-4.188-4.971-5.294-7.355a6.386,6.386,0,0,1-.61-2.686,6.276,6.276,0,0,1,12.55.04,5.277,5.277,0,0,1-.671,2.7,71.486,71.486,0,0,1-5.227,7.286c-.046.058-.129.114-.367.114Zm0-12.532a2.414,2.414,0,1,0,2.414,2.414,2.416,2.416,0,0,0-2.414-2.414Zm0,0" transform="translate(0)" fill="#376def"/>
    </g>
  </g>
</svg>
