<svg xmlns="http://www.w3.org/2000/svg" xmlns:xlink="http://www.w3.org/1999/xlink" width="14" height="14" viewBox="0 0 14 14">
  <defs>
    <style>
      .cls-1, .cls-3 {
        fill: #376def;
      }

      .cls-1 {
        stroke: #707070;
      }

      .cls-2 {
        clip-path: url(#clip-path);
      }
    </style>
    <clipPath id="clip-path">
      <rect id="矩形_1358" data-name="矩形 1358" class="cls-1" width="14" height="14" transform="translate(-16815 -15406)"/>
    </clipPath>
  </defs>
  <g id="图片" class="cls-2" transform="translate(16815 15406)">
    <path id="图片_1_" data-name="图片 (1)" class="cls-3" d="M6.186,8.069A1.883,1.883,0,1,1,8.069,6.186,1.871,1.871,0,0,1,6.186,8.069Zm0-2.69a.807.807,0,1,0,.807.807A.792.792,0,0,0,6.186,5.379Zm7.8,10.22H3.228a1.619,1.619,0,0,1-1.614-1.614V3.228A1.619,1.619,0,0,1,3.228,1.614H13.986A1.619,1.619,0,0,1,15.6,3.228V13.986A1.619,1.619,0,0,1,13.986,15.6ZM3.228,2.69a.54.54,0,0,0-.538.538V13.986a.54.54,0,0,0,.538.538H13.986a.54.54,0,0,0,.538-.538V3.228a.54.54,0,0,0-.538-.538Zm4.357,9.36A1.7,1.7,0,0,1,6.4,11.538l-.646-.672a.552.552,0,0,0-.78,0l-.834.888a.533.533,0,0,1-.78-.726L4.2,10.14a1.59,1.59,0,0,1,1.157-.511,1.7,1.7,0,0,1,1.183.511l.646.672a.552.552,0,0,0,.78,0l2.69-2.824a1.6,1.6,0,0,1,1.183-.511,1.65,1.65,0,0,1,1.183.511l2.448,2.582a.533.533,0,1,1-.78.726L12.238,8.714a.552.552,0,0,0-.78,0l-2.69,2.851a1.791,1.791,0,0,1-1.183.484Z" transform="translate(-16816.613 -15407.606)"/>
  </g>
</svg>
