<svg xmlns="http://www.w3.org/2000/svg" xmlns:xlink="http://www.w3.org/1999/xlink" width="17.526" height="18.16" viewBox="0 0 17.526 18.16">
  <defs>
    <style>
      .cls-1 {
        fill: #333;
      }

      .cls-2 {
        clip-path: url(#clip-path);
      }
    </style>
    <clipPath id="clip-path">
      <rect id="矩形_2101" data-name="矩形 2101" class="cls-1" width="17.526" height="18.16" transform="translate(0 -1)"/>
    </clipPath>
  </defs>
  <g id="组_4987" data-name="组 4987" transform="translate(-41 -359)">
    <g id="组_4986" data-name="组 4986" transform="translate(41 360)">
      <g id="组_4985" data-name="组 4985" class="cls-2" transform="translate(0 0)">
        <path id="路径_1894" data-name="路径 1894" class="cls-1" d="M57.956,363.495a.672.672,0,0,0-.868.387l-.342.891a8.046,8.046,0,0,0-14.892,1.684.672.672,0,0,0,1.3.347,6.7,6.7,0,0,1,12.441-1.338l-1.108-.425A.672.672,0,0,0,54,366.295l2.509.963c.01,0,.02,0,.031.006a.675.675,0,0,0,.117.022.7.7,0,0,0,.093.017h.012a.665.665,0,0,0,.174-.023c.019-.005.033-.019.051-.025a.676.676,0,0,0,.145-.072.636.636,0,0,0,.122-.113c.009-.011.018-.02.027-.031a.653.653,0,0,0,.095-.165v0l.963-2.508a.673.673,0,0,0-.387-.868ZM56.938,369.8a.669.669,0,0,0-.822.475,6.7,6.7,0,0,1-12.441,1.338l1.108.425a.672.672,0,1,0,.482-1.254l-2.509-.963a108.487,108.487,0,0,0-.21-.036.646.646,0,0,0-.13.009.618.618,0,0,0-.086.006.574.574,0,0,0-.054.027.618.618,0,0,0-.078.039.651.651,0,0,0-.157.11c-.007.007-.013.015-.02.022a.653.653,0,0,0-.132.208v0l-.963,2.508a.672.672,0,1,0,1.255.481l.342-.891a8.046,8.046,0,0,0,14.892-1.684.671.671,0,0,0-.475-.822Zm0,0" transform="translate(-40.883 -360.467)"/>
      </g>
    </g>
  </g>
</svg>
