<svg xmlns="http://www.w3.org/2000/svg" xmlns:xlink="http://www.w3.org/1999/xlink" width="15.068" height="19.951" viewBox="0 0 15.068 19.951">
  <defs>
    <clipPath id="clip-path">
      <rect width="15.068" height="19.951" fill="none"/>
    </clipPath>
  </defs>
  <g id="删_除" data-name="删 除" clip-path="url(#clip-path)">
    <g id="删_除-2" data-name="删 除" transform="translate(-0.035)">
      <path id="路径_88" data-name="路径 88" d="M227.648,175.9h-3.418a3.207,3.207,0,0,0-6.41,0h-3.686a.8.8,0,0,0,0,1.6h1.335v9.144c0,1.711,0,3.1,2.243,3.1h6.3c2.243,0,2.243-1.39,2.243-3.1v-9.09h1.335a.822.822,0,0,0,.8-.8A.761.761,0,0,0,227.648,175.9Zm-6.623-1.551a1.646,1.646,0,0,1,1.656,1.551h-3.312A1.646,1.646,0,0,1,221.025,174.351Zm2.938,13.9H217.82c-.855,0-.908-.642-.908-1.6v-9.09h7.959V186.7C224.87,187.612,224.924,188.254,223.962,188.254Z" transform="translate(-213.298 -172.8)" fill="#ff4d4f"/>
      <path id="路径_89" data-name="路径 89" d="M431.756,452.267c-.443,0-.823.522-.823,1.193v6.713c0,.671.38,1.193.823,1.193s.823-.522.823-1.193V453.46C432.578,452.789,432.2,452.267,431.756,452.267Zm3.354,0c-.443,0-.823.522-.823,1.193v6.713c0,.671.38,1.193.823,1.193s.823-.522.823-1.193V453.46C435.933,452.789,435.553,452.267,435.11,452.267Z" transform="translate(-425.898 -446.992)" fill="#ff4d4f"/>
    </g>
  </g>
</svg>
