<svg xmlns="http://www.w3.org/2000/svg" width="16" height="15.823" viewBox="0 0 16 15.823">
  <defs>
    <style>
      .cls-1 {
        fill: #376def;
      }
    </style>
  </defs>
  <g id="_11现金流量表" data-name="11现金流量表" transform="translate(-0.04 -0.069)">
    <path id="路径_920" data-name="路径 920" class="cls-1" d="M8.1,15.892a7.991,7.991,0,0,1-4.706-1.476c-.292-.2-.559-.45-.317-.822s.575-.224.867-.016a6.983,6.983,0,0,0,3.428,1.285A6.875,6.875,0,0,0,11.751,2.175a6.6,6.6,0,0,0-7.383-.019A6.718,6.718,0,0,0,1.07,8.4,5.77,5.77,0,0,0,1.4,10.111c.115.34.118.661-.267.791-.419.142-.583-.142-.7-.5A7.911,7.911,0,0,1,6.617.2,7.912,7.912,0,1,1,9.532,15.752a13.89,13.89,0,0,1-1.437.141Z" transform="translate(0 0)"/>
    <path id="路径_921" data-name="路径 921" class="cls-1" d="M156.572,305.38a.694.694,0,0,0-.533.315c-.649.745-1.305,1.483-1.949,2.233-.248.289-.525.469-.844.168-.29-.274-.16-.566.078-.836.874-.993,1.737-2,2.608-2.991.457-.522.692-.524,1.189-.013.572.588,1.133,1.187,1.71,1.77.391.394.577.391.959-.011q1.678-1.767,3.343-3.545a3.147,3.147,0,0,1,.282-.286.492.492,0,0,1,.719-.032.5.5,0,0,1,.008.724,3.626,3.626,0,0,1-.269.3q-2.018,2.136-4.038,4.27c-.409.431-.61.428-1.035,0q-.862-.879-1.716-1.764a.769.769,0,0,0-.512-.3Z" transform="translate(-150.667 -297.285)"/>
  </g>
</svg>
