<svg xmlns="http://www.w3.org/2000/svg" width="14" height="14" viewBox="0 0 14 14">
  <g id="组_3885" data-name="组 3885" transform="translate(-211 -549)">
    <path id="路径_967" data-name="路径 967" d="M12.6,0H1.4A1.4,1.4,0,0,0,0,1.4V12.6A1.4,1.4,0,0,0,1.4,14H12.6A1.4,1.4,0,0,0,14,12.6V1.4A1.4,1.4,0,0,0,12.6,0Zm.7,12.6a.7.7,0,0,1-.7.7H1.4a.7.7,0,0,1-.7-.7V1.4A.7.7,0,0,1,1.4.7H12.6a.7.7,0,0,1,.7.7Z" transform="translate(211 549)" fill="#376def"/>
    <text id="_3" data-name="3" transform="translate(218 559)" fill="#376def" font-size="8" font-family="MicrosoftYaHei, Microsoft YaHei"><tspan x="-2.346" y="0">3</tspan></text>
  </g>
</svg>
