<svg id="clock-circle-o" xmlns="http://www.w3.org/2000/svg" width="16" height="16" viewBox="0 0 16 16">
  <defs>
    <style>
      .cls-1 {
        fill: #376def;
      }
    </style>
  </defs>
  <path id="Shape" class="cls-1" d="M8,16A8,8,0,0,1,2.343,2.343,8,8,0,0,1,13.657,13.657,7.948,7.948,0,0,1,8,16ZM8,1.125A6.857,6.857,0,0,0,3.137,3.139,6.845,6.845,0,0,0,1.125,8a6.873,6.873,0,0,0,11.736,4.861,6.87,6.87,0,0,0,0-9.723A6.845,6.845,0,0,0,8,1.125ZM11.453,9H8.562A1.126,1.126,0,0,1,7.438,7.875V4.125a.562.562,0,1,1,1.125,0v3.75h2.891a.562.562,0,0,1,0,1.125Z" transform="translate(0 0)"/>
</svg>
