<svg id="Group_182" data-name="Group 182" xmlns="http://www.w3.org/2000/svg" width="18" height="18" viewBox="0 0 18 18">
  <defs>
    <style>
      .cls-1 {
        fill: #376def;
      }

      .cls-2 {
        fill: none;
      }
    </style>
  </defs>
  <g id="upload" transform="translate(1.35 2.25)">
    <path id="Shape" class="cls-1" d="M14.24,14.4H1.06A1.061,1.061,0,0,1,0,13.337V9.531a.59.59,0,1,1,1.18,0V12.87a.352.352,0,0,0,.352.352H13.767a.352.352,0,0,0,.352-.352V9.533a.591.591,0,0,1,1.182,0v3.806A1.061,1.061,0,0,1,14.24,14.4ZM7.667,10.661a.591.591,0,0,1-.59-.59V2.015L5.421,3.669a.587.587,0,0,1-.833,0,.591.591,0,0,1,0-.834L7.249.173a.594.594,0,0,1,.837,0l2.66,2.662a.589.589,0,1,1-.833.834L8.258,2.015v8.055A.592.592,0,0,1,7.667,10.661Z" transform="translate(0 0)"/>
  </g>
  <rect id="Rectangle_49" data-name="Rectangle 49" class="cls-2" width="18" height="18"/>
</svg>
