<svg xmlns="http://www.w3.org/2000/svg" width="18.427" height="16.839" viewBox="0 0 18.427 16.839">
  <g id="组_3730" data-name="组 3730" transform="translate(-1122 -307.554)">
    <g id="路径_1340" data-name="路径 1340" transform="translate(1122.002 312.09)" fill="none">
      <path d="M9.212,0c5.088,0,9.259,5.148,9.212,7.166S14.3,12.3,9.212,12.3.119,9.464,0,7.166,4.125,0,9.212,0Z" stroke="none"/>
      <path d="M 9.212215423583984 1.400001525878906 C 7.067094802856445 1.400001525878906 4.742384910583496 2.499292373657227 2.99361515045166 4.340611934661865 C 1.79316520690918 5.604601860046387 1.378015518188477 6.700201988220215 1.398324966430664 7.0938720703125 C 1.425405502319336 7.61864185333252 2.084014892578125 8.563282012939453 3.466085433959961 9.397241592407227 C 5.074934959411621 10.36805152893066 7.115625381469727 10.90270233154297 9.212215423583984 10.90270233154297 C 11.97952461242676 10.90270233154297 14.00739479064941 9.899641990661621 14.969895362854 9.301732063293457 C 16.49161529541016 8.356422424316406 17.01808547973633 7.417081832885742 17.02462577819824 7.133711814880371 C 17.03263473510742 6.786811828613281 16.5103759765625 5.589111804962158 15.21615505218506 4.264681816101074 C 14.37447547912598 3.403362274169922 12.10456466674805 1.400001525878906 9.212215423583984 1.400001525878906 M 9.212215423583984 1.9073486328125e-06 C 14.29988479614258 1.9073486328125e-06 18.47081565856934 5.148411750793457 18.42425537109375 7.166011810302734 C 18.377685546875 9.183601379394531 14.29988479614258 12.30270195007324 9.212215423583984 12.30270195007324 C 4.124555587768555 12.30270195007324 0.1187248229980469 9.463521957397461 0.0001850128173828125 7.166011810302734 C -0.1183452606201172 4.868492126464844 4.124555587768555 1.9073486328125e-06 9.212215423583984 1.9073486328125e-06 Z" stroke="none" fill="#376def"/>
    </g>
    <g id="椭圆_87" data-name="椭圆 87" transform="translate(1128.213 315.211)" fill="none" stroke="#376def" stroke-width="1.4">
      <circle cx="3" cy="3" r="3" stroke="none"/>
      <circle cx="3" cy="3" r="2.3" fill="none"/>
    </g>
    <path id="路径_1341" data-name="路径 1341" d="M6814,16972.412s.7-4.006-1.16-4.811" transform="translate(-5688.956 -16656.941)" fill="none" stroke="#376def" stroke-linecap="round" stroke-width="1"/>
    <path id="路径_1342" data-name="路径 1342" d="M6814,16972.412s.7-4.006-1.16-4.811" transform="translate(-5682.813 -16659.391)" fill="none" stroke="#376def" stroke-linecap="round" stroke-width="1"/>
    <path id="路径_1343" data-name="路径 1343" d="M1.16,4.811S1.857.8,0,0" transform="translate(1137.245 309.591) rotate(25)" fill="none" stroke="#376def" stroke-linecap="round" stroke-width="1"/>
  </g>
</svg>
