<svg id="Group_149" data-name="Group 149" xmlns="http://www.w3.org/2000/svg" width="20" height="20" viewBox="0 0 20 20">
  <defs>
    <style>
      .cls-1 {
        fill: none;
      }

      .cls-2 {
        fill: #376def;
      }
    </style>
  </defs>
  <rect id="Rectangle_45_Copy_5" data-name="Rectangle 45 Copy 5" class="cls-1" width="20" height="20"/>
  <g id="calendar" transform="translate(1.5 1.5)">
    <path id="Shape" class="cls-2" d="M15.634,17H1.366A1.368,1.368,0,0,1,0,15.634V2.581A1.368,1.368,0,0,1,1.366,1.215H3.643V.683a.683.683,0,0,1,1.366,0v.532h6.982V.683a.683.683,0,0,1,1.366,0v.532h2.277A1.368,1.368,0,0,1,17,2.581V15.634A1.368,1.368,0,0,1,15.634,17ZM1.366,6.071v9.562H15.634V6.071Zm0-3.491V4.705H15.634V2.581H13.357v.379a.683.683,0,1,1-1.366,0V2.581H5.009v.379a.683.683,0,1,1-1.366,0V2.581ZM9.107,13.395H7.893a.607.607,0,1,1,0-1.214H9.107a.607.607,0,0,1,0,1.214Zm-3.643,0H4.25a.607.607,0,0,1,0-1.214H5.464a.607.607,0,0,1,0,1.214ZM12.75,9.714H11.535a.607.607,0,1,1,0-1.214H12.75a.607.607,0,1,1,0,1.214Zm-3.643,0H7.893a.607.607,0,1,1,0-1.214H9.107a.607.607,0,1,1,0,1.214Zm-3.643,0H4.25a.607.607,0,1,1,0-1.214H5.464a.607.607,0,0,1,0,1.214Z" transform="translate(0 0)"/>
  </g>
</svg>
