<svg id="Group_57" data-name="Group 57" xmlns="http://www.w3.org/2000/svg" width="14" height="12.245" viewBox="0 0 14 12.245">
  <defs>
    <style>
      .cls-1 {
        fill: none;
      }

      .cls-2 {
        fill: #999;
      }
    </style>
  </defs>
  <rect id="Rectangle_36_Copy_6" data-name="Rectangle 36 Copy 6" class="cls-1" width="11.49" height="12.245" transform="translate(1.25)"/>
  <g id="down" transform="translate(0 1.253)">
    <path id="Shape" class="cls-2" d="M14,.769a.761.761,0,0,1-.175.482L7.605,8.709a.816.816,0,0,1-1.243,0L.176,1.283A.75.75,0,0,1,.3.2a.817.817,0,0,1,1.12.118L6.985,7l5.6-6.713A.817.817,0,0,1,13.7.169.761.761,0,0,1,14,.769Z" transform="translate(0 0)"/>
  </g>
</svg>
