<svg xmlns="http://www.w3.org/2000/svg" width="33.761" height="16.09" viewBox="0 0 33.761 16.09">
  <defs>
    <style>
      .cls-1 {
        fill: #ffa940;
      }

      .cls-2 {
        fill: #fff;
        font-size: 10px;
        font-family: MicrosoftYaHei, Microsoft YaHei;
      }
    </style>
  </defs>
  <g id="组_2464" data-name="组 2464" transform="translate(-503.001 -382)">
    <path id="联合_44" data-name="联合 44" class="cls-1" d="M-6950-1074.965s2.681-1.748,2.525-3.623a.767.767,0,0,1,.01-.2,7.819,7.819,0,0,1-1.318-4.357,7.854,7.854,0,0,1,7.854-7.854h16.835a7.854,7.854,0,0,1,7.854,7.854,7.855,7.855,0,0,1-7.854,7.856h-16.835a7.816,7.816,0,0,1-4.253-1.25,6.574,6.574,0,0,1-4.155,1.63A3.355,3.355,0,0,1-6950-1074.965Z" transform="translate(7453 1473)"/>
    <text id="住院" class="cls-2" transform="translate(510 393)"><tspan x="0" y="0">住院</tspan></text>
  </g>
</svg>
