<svg id="Group_89" data-name="Group 89" xmlns="http://www.w3.org/2000/svg" width="20" height="20" viewBox="0 0 20 20">
  <defs>
    <style>
      .cls-1 {
        fill: none;
      }

      .cls-2 {
        fill: #999;
      }
    </style>
  </defs>
  <rect id="Rectangle_37_Copy_26" data-name="Rectangle 37 Copy 26" class="cls-1" width="20" height="20"/>
  <g id="contacts" transform="translate(1.69 1.69)">
    <path id="Shape" class="cls-2" d="M3.09,9.518H.713a.8.8,0,0,1,0-1.594H3.09a.8.8,0,0,1,0,1.594Zm0-7.924H.713A.759.759,0,0,1,0,.8.759.759,0,0,1,.713,0H3.09A.759.759,0,0,1,3.8.8.76.76,0,0,1,3.09,1.594Z" transform="translate(0 3.99)"/>
    <path id="Shape-2" data-name="Shape" class="cls-2" d="M14.8,0H1.4A1.4,1.4,0,0,0,0,1.4V2.495a.7.7,0,1,0,1.4,0V1.4H14.8V16.061H1.4V15.009h0c0-.014,0-.025,0-.039a.7.7,0,1,0-1.4,0,.262.262,0,0,0,0,.039H0v1.053a1.4,1.4,0,0,0,1.4,1.4H14.8a1.4,1.4,0,0,0,1.4-1.4V1.4A1.4,1.4,0,0,0,14.8,0Z" transform="translate(1.268)"/>
    <path id="Shape-3" data-name="Shape" class="cls-2" d="M10.134,6.5a3.249,3.249,0,1,1,3.249-3.249A3.252,3.252,0,0,1,10.134,6.5Zm0-5.071a1.823,1.823,0,1,0,1.823,1.823A1.825,1.825,0,0,0,10.134,1.426ZM3.09,5.8H.713a.713.713,0,0,1,0-1.426H3.09a.713.713,0,1,1,0,1.426Z" transform="translate(0 3.707)"/>
    <path id="Shape-4" data-name="Shape" class="cls-2" d="M8.186,4.516a.71.71,0,0,1-.7-.58,3.092,3.092,0,0,0-6.073,0,.713.713,0,0,1-.7.58A.751.751,0,0,1,.581,4.5a.714.714,0,0,1-.569-.834,4.517,4.517,0,0,1,8.874,0,.713.713,0,0,1-.569.834.751.751,0,0,1-.133.012Z" transform="translate(5.502 9.227)"/>
  </g>
</svg>
