<svg xmlns="http://www.w3.org/2000/svg" width="16" height="16" viewBox="0 0 16 16">
  <defs>
    <style>
      .cls-1 {
        fill: none;
      }

      .cls-2 {
        fill: #009899;
      }
    </style>
  </defs>
  <g id="Group_121" data-name="Group 121" transform="translate(0.11 0.11)">
    <rect id="Rectangle_43_Copy_8" data-name="Rectangle 43 Copy 8" class="cls-1" width="16" height="16" transform="translate(-0.11 -0.11)"/>
    <g id="setting" transform="translate(0.863 0.861)">
      <path id="Shape" class="cls-2" d="M7.027,14.057a7.093,7.093,0,0,1-1.112-.1l-.37-.059-.376-1.131A5.925,5.925,0,0,1,4.28,12.4l-1.063.533-.3-.219A7.085,7.085,0,0,1,2.06,12a6.857,6.857,0,0,1-.72-.853l-.219-.3.53-1.062a5.96,5.96,0,0,1-.369-.889L.154,8.512.1,8.142A7.087,7.087,0,0,1,0,7.029,7.171,7.171,0,0,1,.1,5.913l.059-.37,1.13-.375a6.269,6.269,0,0,1,.367-.888L1.117,3.216l.219-.305A7.068,7.068,0,0,1,2.911,1.337l.3-.218,1.063.534a6.281,6.281,0,0,1,.889-.367L5.543.156,5.913.1A6.977,6.977,0,0,1,7.027,0,6.977,6.977,0,0,1,8.14.1l.367.057.376,1.126a6,6,0,0,1,.889.369l1.065-.533.3.219a7.2,7.2,0,0,1,1.576,1.573l.218.305L12.4,4.277a5.969,5.969,0,0,1,.369.889l1.13.378.059.37a6.287,6.287,0,0,1,.093,1.112,7.1,7.1,0,0,1-.1,1.113l-.059.37-1.13.378a5.974,5.974,0,0,1-.368.889l.533,1.065-.219.3A7.053,7.053,0,0,1,12,12a6.591,6.591,0,0,1-.852.721l-.3.219-1.065-.533a6.448,6.448,0,0,1-.888.366L8.511,13.9l-.37.059A7.138,7.138,0,0,1,7.027,14.057Zm-2.73-2.9h0l.45.234a4.7,4.7,0,0,0,.812.334l.485.149.159.482.182.546a5.354,5.354,0,0,0,.646.04,5.152,5.152,0,0,0,.646-.04l.182-.546.157-.478L8.5,11.73a5.142,5.142,0,0,0,.823-.341l.447-.233.963.482a5.162,5.162,0,0,0,.481-.425l0,0a5.46,5.46,0,0,0,.428-.483l-.484-.966.237-.449a4.6,4.6,0,0,0,.335-.812l.149-.486.482-.163.546-.182a5.5,5.5,0,0,0,.04-.646V7.016a4.5,4.5,0,0,0-.038-.637L12.365,6.2l-.479-.16-.151-.482a5.091,5.091,0,0,0-.341-.824l-.231-.446.481-.963a6.06,6.06,0,0,0-.917-.914l-.963.482-.447-.234a5.192,5.192,0,0,0-.82-.338L8.015,2.17,7.673,1.148a5.445,5.445,0,0,0-.644-.04,5.733,5.733,0,0,0-.644.04L6.2,1.694l-.16.479-.482.151a4.941,4.941,0,0,0-.82.339L4.292,2.9l-.965-.482a5.961,5.961,0,0,0-.912.912l.256.513.225.452-.234.447a5.056,5.056,0,0,0-.337.82l-.15.484-1.023.34a5.582,5.582,0,0,0-.04.646,5.238,5.238,0,0,0,.04.646l1.027.341.149.485a4.763,4.763,0,0,0,.338.817l.234.447-.481.963a5.427,5.427,0,0,0,.428.484,5.689,5.689,0,0,0,.484.428l.513-.256.454-.227ZM7.03,9.715A2.686,2.686,0,1,1,9.716,7.029,2.689,2.689,0,0,1,7.03,9.715Zm0-4.262a1.578,1.578,0,1,0,1.114.462A1.566,1.566,0,0,0,7.03,5.452Z" transform="translate(0 0)"/>
    </g>
  </g>
</svg>
