<svg xmlns="http://www.w3.org/2000/svg" width="19" height="19" viewBox="0 0 19 19">
  <defs>
    <style>
      .cls-1 {
        fill: #fff;
      }

      .cls-1, .cls-2 {
        stroke: #1952dd;
      }

      .cls-2, .cls-5 {
        fill: none;
      }

      .cls-2 {
        stroke-linecap: round;
      }

      .cls-3 {
        fill: #1952dd;
        opacity: 0.23;
      }

      .cls-4 {
        stroke: none;
      }
    </style>
  </defs>
  <g id="组_2684" data-name="组 2684" transform="translate(-45 -1629)">
    <g id="组_2683" data-name="组 2683">
      <g id="矩形_1357" data-name="矩形 1357" class="cls-1" transform="translate(45 1629)">
        <rect class="cls-4" width="19" height="19" rx="3"/>
        <rect class="cls-5" x="0.5" y="0.5" width="18" height="18" rx="2.5"/>
      </g>
      <path id="路径_909" data-name="路径 909" class="cls-2" d="M2778.746,1633.658h9.751" transform="translate(-2729.246)"/>
      <path id="路径_910" data-name="路径 910" class="cls-2" d="M2778.746,1633.658h9.751" transform="translate(-2729.246 3)"/>
      <path id="路径_911" data-name="路径 911" class="cls-2" d="M2778.746,1633.658h6.208" transform="translate(-2729.246 6)"/>
      <path id="路径_913" data-name="路径 913" class="cls-2" d="M2778.746,1633.658h6.208" transform="translate(-2729.246 9)"/>
    </g>
    <rect id="矩形_1360" data-name="矩形 1360" class="cls-3" width="16" height="15" rx="3" transform="translate(48 1632)"/>
    <g id="组_2682" data-name="组 2682">
      <g id="椭圆_146" data-name="椭圆 146" class="cls-1" transform="matrix(0.978, -0.208, 0.208, 0.978, 52.125, 1637.947)">
        <circle class="cls-4" cx="4" cy="4" r="4"/>
        <circle class="cls-5" cx="4" cy="4" r="3.5"/>
      </g>
      <path id="路径_912" data-name="路径 912" class="cls-2" d="M2789.251,1641.382l1.382,1.382s.142.148.411.416" transform="matrix(0.995, -0.105, 0.105, 0.995, -2885.69, 302.926)"/>
    </g>
  </g>
</svg>
