<svg xmlns="http://www.w3.org/2000/svg" width="15" height="20" viewBox="0 0 15 20">
  <defs>
    <style>
      .cls-1 {
        fill: #999;
      }
    </style>
  </defs>
  <path id="患者管理" class="cls-1" d="M167.224,84.018v-8a.752.752,0,1,0-1.5,0v8h-9v-2.8h-.375a1.941,1.941,0,0,1-1.875-2v-6.4h.037a1.911,1.911,0,0,1,1.838-1.6h6.616l-5.608,9.875s7.474,1.065,8.2-9.875H167.6a1.94,1.94,0,0,1,1.875,2v10.8Zm-9.375-6.4v-2.4h-1.125v2.4Zm4.062-7.267a3.173,3.173,0,1,1,2.969-3.166A3.073,3.073,0,0,1,161.911,70.351Z" transform="translate(-154.474 -64.018)"/>
</svg>
