<svg id="Group_120" data-name="Group 120" xmlns="http://www.w3.org/2000/svg" width="16" height="15" viewBox="0 0 16 15">
  <defs>
    <style>
      .cls-1 {
        fill: none;
      }

      .cls-2 {
        fill: #009899;
      }
    </style>
  </defs>
  <rect id="Rectangle_43_Copy_7" data-name="Rectangle 43 Copy 7" class="cls-1" width="16" height="15"/>
  <g id="reload" transform="translate(1.501 0)">
    <path id="Shape" class="cls-2" d="M12.914,7.385a.522.522,0,1,0-1.03.173,5.558,5.558,0,0,1-1.528,4.777,5.422,5.422,0,0,1-7.715,0,5.547,5.547,0,0,1,0-7.789A5.4,5.4,0,0,1,6.5,2.931l.183,0L5.5,4.132a.53.53,0,0,0,0,.746.517.517,0,0,0,.738,0L8.2,2.888a.53.53,0,0,0,0-.746L6.234.155a.517.517,0,0,0-.738,0A.53.53,0,0,0,5.5.9l.966.976a6.4,6.4,0,0,0-2.491.516A6.477,6.477,0,0,0,1.9,3.8a6.6,6.6,0,0,0,0,9.281,6.477,6.477,0,0,0,2.066,1.406,6.458,6.458,0,0,0,7.126-1.4,6.615,6.615,0,0,0,1.819-5.695Z" transform="translate(0)"/>
  </g>
</svg>
