<svg xmlns="http://www.w3.org/2000/svg" width="16" height="16" viewBox="0 0 16 16">
  <defs>
    <style>
      .cls-1 {
        fill: #999;
      }
    </style>
  </defs>
  <path id="icon_date" class="cls-1" d="M16,16H0V1.143H3.428V0H4.571V1.143h6.857V0h1.143V1.143H16V16h0ZM1.143,14.856H14.856V5.715H1.143Zm0-10.285H14.856V2.285H12.571V3.428H11.428V2.285H4.571V3.428H3.428V2.285H1.143Zm9.143,8V11.428h2.285v1.143Zm-3.428,0V11.428H9.143v1.143Zm-3.429,0V11.428H5.715v1.143Zm6.857-3.428V8h2.285V9.143Zm-3.428,0V8H9.143V9.143Zm-3.429,0V8H5.715V9.143Z"/>
</svg>
