<svg id="info-cirlce-o" xmlns="http://www.w3.org/2000/svg" width="20" height="20" viewBox="0 0 20 20">
  <defs>
    <style>
      .cls-1 {
        fill: #999;
      }
    </style>
  </defs>
  <path id="Shape" class="cls-1" d="M10,20A10,10,0,0,1,2.929,2.929,10,10,0,0,1,17.071,17.071,9.935,9.935,0,0,1,10,20ZM10,1.406A8.6,8.6,0,0,0,6.656,17.92a8.595,8.595,0,0,0,9.42-14A8.557,8.557,0,0,0,10,1.406Zm2.308,13.781H7.574a.7.7,0,1,1,0-1.406H9.238V7.646H8.066a.7.7,0,0,1,0-1.406H9.941a.7.7,0,0,1,.7.7v6.838h1.663a.7.7,0,1,1,0,1.406ZM9.941,5.01a.7.7,0,1,1,.7-.7A.7.7,0,0,1,9.941,5.01Z" transform="translate(0 0)"/>
</svg>
