<svg xmlns="http://www.w3.org/2000/svg" width="17.736" height="49.606" viewBox="0 0 17.736 49.606">
  <defs>
    <style>
      .cls-1 {
        opacity: 0.69;
      }

      .cls-2, .cls-3 {
        fill: #fff;
      }

      .cls-3 {
        opacity: 0.377;
      }
    </style>
  </defs>
  <g id="组_5051" data-name="组 5051" class="cls-1" transform="translate(-885.8 -237.517)">
    <path id="路径_1894" data-name="路径 1894" class="cls-2" d="M78.09,660.769a1.334,1.334,0,0,1,1.33,1.331v11.307a1.334,1.334,0,0,1-1.33,1.33H70.33V660.769h7.76m0-1.33H69v16.628h9.09a2.661,2.661,0,0,0,2.661-2.66V662.1a2.661,2.661,0,0,0-2.661-2.661Zm0,0" transform="translate(816.8 -397.591)"/>
    <path id="路径_1895" data-name="路径 1895" class="cls-2" d="M83.258,596.68H79.267a.665.665,0,0,1,0-1.33h3.991a.665.665,0,0,1,0,1.33Zm0,4.988H79.267a.665.665,0,0,1,0-1.33h3.991a.665.665,0,0,1,0,1.33Z" transform="translate(807.863 -328.347)"/>
    <path id="路径_1896" data-name="路径 1896" class="cls-2" d="M88.2,942.638h15.076v1.331H88.2Zm0,0" transform="translate(798.931 -661.169)"/>
    <path id="路径_1903" data-name="路径 1903" class="cls-2" d="M145.772,346.371a.277.277,0,1,1,0,.554h-4.766a.277.277,0,0,1,0-.554h4.766m0-1.33h-4.766a1.607,1.607,0,1,0,0,3.215h4.766a1.607,1.607,0,1,0,0-3.215Zm0,0" transform="translate(751.279 -104.975)"/>
    <path id="路径_1904" data-name="路径 1904" class="cls-2" d="M162.592,313.894v5.82h-2.66v-5.82H158.6v7.15h5.321v-7.15Zm-2.66-2.993v-1.33h2.66v1.33h1.33v-2.66H158.6v2.66Zm0,0" transform="translate(733.405 -70.723)"/>
    <path id="路径_1905" data-name="路径 1905" class="cls-2" d="M76.538,310.9v-1.33H79.2v1.33h1.33v-2.66H75.208v2.66Zm3.99,11.989v-9H79.2v9.971l.931.294a7.587,7.587,0,0,1,3.786,2.694,7.476,7.476,0,0,1,1.491,4.5v23.833a1.334,1.334,0,0,1-1.33,1.33H71.66a1.334,1.334,0,0,1-1.33-1.33V331.353a7.476,7.476,0,0,1,1.491-4.5,7.62,7.62,0,0,1,3.786-2.694l.931-.294v-9.971h-1.33v9A8.872,8.872,0,0,0,69,331.353v23.833a2.661,2.661,0,0,0,2.66,2.66H84.076a2.661,2.661,0,0,0,2.66-2.66V331.353a8.877,8.877,0,0,0-6.208-8.464Zm0,0" transform="translate(816.8 -70.723)"/>
    <path id="路径_1913" data-name="路径 1913" class="cls-3" d="M0-.2H15.076V1.363A1.345,1.345,0,0,1,13.6,2.793L1.472,2.8A1.348,1.348,0,0,1,0,1.429Z" transform="translate(887.138 283)"/>
  </g>
</svg>
