<svg xmlns="http://www.w3.org/2000/svg" width="226" height="24" viewBox="0 0 226 24">
  <defs>
    <style>
      .cls-1, .cls-2 {
        fill: #fff;
      }

      .cls-2 {
        font-size: 16px;
        font-family: SourceHanSansCN-Bold, Source Han Sans CN;
        font-weight: 700;
      }
    </style>
  </defs>
  <g id="组_41" data-name="组 41" transform="translate(-0.049 1.957)">
    <g id="组_3" data-name="组 3" transform="translate(0.049 0.043)">
      <path id="路径_2" data-name="路径 2" class="cls-1" d="M23.629,18.251s-6.294-10.733-8.736-14.9C14.313,2.358,13.41.841,13.161.575A1.378,1.378,0,0,0,11.2.355a3.622,3.622,0,0,0-.876,1.06L9.406,2.988,6.14,8.592,2.095,15.53.65,18.01A2.963,2.963,0,0,0,.082,19.2,1.642,1.642,0,0,0,.2,20.233a1.573,1.573,0,0,0,.4.517,1.346,1.346,0,0,0,.83.275H8.189A2.281,2.281,0,0,0,9.651,20.6a1.667,1.667,0,0,0,.266-.348.764.764,0,0,0,.058-.123,1.138,1.138,0,0,0,.031-.249V14.433a.953.953,0,0,1,.516-.792c.269-.164,2.455-.9,2.455-.9,1.142-.443,1.142.521,1.142.521l.041,6.509c.026.882.917,1.173,1.548,1.249.348.043,6.5,0,6.5,0C25.223,20.944,23.629,18.251,23.629,18.251ZM12.064,10.744a2.181,2.181,0,1,1,2.207-2.181A2.195,2.195,0,0,1,12.064,10.744Z" transform="translate(-0.049 -0.043)"/>
      <path id="路径_3" data-name="路径 3" class="cls-1" d="M83.274,428.85l.236.712c.43-.364.634-.657.557-.841-.28-.664-4.1.307-8.532,2.169s-7.8,3.914-7.522,4.578a.271.271,0,0,0,.111.116C67.77,434.494,83.274,428.85,83.274,428.85Z" transform="translate(-66.452 -418.132)"/>
      <path id="路径_4" data-name="路径 4" class="cls-1" d="M18.754,417.4a57.141,57.141,0,0,0-17.72,7.111l-.384.634a2.792,2.792,0,0,0-.569,1.144A1.5,1.5,0,0,0,.6,427.774a1.387,1.387,0,0,0,.83.264H8.189a2.355,2.355,0,0,0,1.461-.407,1.606,1.606,0,0,0,.266-.334.719.719,0,0,0,.058-.118,1.05,1.05,0,0,0,.031-.239v-5.226a.913.913,0,0,1,.516-.759c.269-.157,2.455-.86,2.455-.86,1.142-.425,1.142.5,1.142.5l.041,6.244c.026.846.917,1.126,1.548,1.2.348.041,6.5,0,6.5,0,3.021-.077,1.428-2.661,1.428-2.661Z" transform="translate(-0.049 -407.055)"/>
      <text id="麻醉与围术期专科数据中心" class="cls-2" transform="translate(34 17)"><tspan x="0" y="0">麻醉与围术期专科数据中心</tspan></text>
    </g>
  </g>
</svg>
