<svg xmlns="http://www.w3.org/2000/svg" xmlns:xlink="http://www.w3.org/1999/xlink" width="45.75" height="47.154" viewBox="0 0 45.75 47.154">
  <defs>
    <style>
      .cls-1 {
        fill: none;
      }

      .cls-2 {
        opacity: 0.693;
      }

      .cls-3 {
        clip-path: url(#clip-path);
      }

      .cls-4 {
        fill: #f4cd4b;
      }

      .cls-5, .cls-6 {
        fill: #fff;
      }

      .cls-6 {
        opacity: 0.459;
      }
    </style>
    <clipPath id="clip-path">
      <rect id="矩形_2116" data-name="矩形 2116" class="cls-1" width="38.258" height="36.144" transform="translate(0 0)"/>
    </clipPath>
  </defs>
  <g id="组_4989" data-name="组 4989" class="cls-2" transform="translate(468.906 32.233) rotate(107)">
    <g id="组_4988" data-name="组 4988" class="cls-3" transform="translate(103 411)">
      <path id="路径_1906" data-name="路径 1906" class="cls-4" d="M175.291,425.836l-27.022,27.016a2.94,2.94,0,0,1-4.144,0l-2.114-2.114a2.94,2.94,0,0,1,0-4.144l27.022-27.022a2.94,2.94,0,0,1,4.144,0l2.114,2.114a2.947,2.947,0,0,1,0,4.15Zm0,0" transform="translate(-138.468 -418.174)"/>
      <path id="路径_1907" data-name="路径 1907" class="cls-5" d="M139.019,447.021a3.747,3.747,0,0,1-2.667-1.1l-1.816-1.816a3.784,3.784,0,0,1,0-5.333l26.723-26.723a3.774,3.774,0,0,1,5.333,0l1.815,1.816a3.774,3.774,0,0,1,0,5.333l-26.723,26.723a3.747,3.747,0,0,1-2.667,1.1Zm24.908-34.814a2.5,2.5,0,0,0-1.776.733l-26.723,26.723a2.518,2.518,0,0,0,0,3.552l1.816,1.815a2.518,2.518,0,0,0,3.557,0l26.723-26.723a2.518,2.518,0,0,0,0-3.552l-1.816-1.816a2.514,2.514,0,0,0-1.781-.733Zm0,0" transform="translate(-131.293 -410.945)"/>
      <path id="路径_1908" data-name="路径 1908" class="cls-6" d="M444.922,419.24l-7.786,7.786a1.582,1.582,0,0,1-2.233,0L430.879,423a1.582,1.582,0,0,1,0-2.233l7.786-7.786a1.872,1.872,0,0,1,2.633,0l3.625,3.625a1.872,1.872,0,0,1,0,2.633Zm0,0" transform="translate(-407.344 -412.339)"/>
      <path id="路径_1909" data-name="路径 1909" class="cls-5" d="M419.046,427.452a.623.623,0,0,1-.445-.186l-6.258-6.258a.626.626,0,0,1,0-.891l7.995-7.995a3.774,3.774,0,0,1,5.333,0l1.815,1.816a3.774,3.774,0,0,1,0,5.333l-7.994,7.994a.634.634,0,0,1-.445.186Zm-5.373-6.89,5.367,5.367,7.549-7.549a2.518,2.518,0,0,0,0-3.557l-1.816-1.815a2.518,2.518,0,0,0-3.557,0Zm0,0" transform="translate(-390.369 -411.017)"/>
      <path id="路径_1910" data-name="路径 1910" class="cls-5" d="M176.86,833.2l-.023.023a1.116,1.116,0,0,1-1.567,0l-1.511-1.511a1.117,1.117,0,0,1,0-1.567l.023-.022a1.116,1.116,0,0,1,1.567,0l1.511,1.511a1.106,1.106,0,0,1,0,1.568Zm0,0" transform="translate(-168.474 -800.286)"/>
      <path id="路径_1911" data-name="路径 1911" class="cls-5" d="M105.715,571.891a.619.619,0,0,1-.361-.113c-1.263-.879-3.112-2.87-2.024-4.758a6.442,6.442,0,0,1,1.037-1.268c1.117-1.15,2.086-2.142.135-6.19a.629.629,0,0,1,1.133-.547,13.648,13.648,0,0,1,1.164,3.313c.433,2-.4,3.144-1.525,4.3a5.841,5.841,0,0,0-.851,1.021c-.783,1.347,1.629,3.078,1.652,3.1a.633.633,0,0,1-.361,1.15Zm0,0" transform="translate(-227.438 -509.797) rotate(-13)"/>
      <path id="路径_1912" data-name="路径 1912" class="cls-5" d="M105.715,571.891a.619.619,0,0,1-.361-.113c-1.263-.879-3.112-2.87-2.024-4.758a6.442,6.442,0,0,1,1.037-1.268c1.117-1.15,2.086-2.142.135-6.19a.629.629,0,0,1,1.133-.547,13.648,13.648,0,0,1,1.164,3.313c.433,2-.4,3.144-1.525,4.3a5.841,5.841,0,0,0-.851,1.021c-.783,1.347,1.629,3.078,1.652,3.1a.633.633,0,0,1-.361,1.15Zm0,0" transform="translate(-224.34 -510.431) rotate(-13)"/>
    </g>
  </g>
</svg>
