<svg xmlns="http://www.w3.org/2000/svg" width="20" height="20" viewBox="0 0 20 20">
  <g id="组_3692" data-name="组 3692" transform="translate(-276 -1074)">
    <rect id="Rectangle_2" data-name="Rectangle 2" width="20" height="20" transform="translate(276 1074)" fill="none"/>
    <path id="Shape" d="M10,20A10,10,0,0,1,2.929,2.929,10,10,0,0,1,17.071,17.071,9.935,9.935,0,0,1,10,20ZM10,1.406A8.571,8.571,0,0,0,3.922,3.924,8.557,8.557,0,0,0,1.406,10a8.591,8.591,0,0,0,14.67,6.076,8.587,8.587,0,0,0,0-12.154A8.557,8.557,0,0,0,10,1.406Zm.01,13.574a.7.7,0,0,1-.7-.7V10.713H5.7a.7.7,0,0,1,0-1.406h3.6V5.722a.7.7,0,0,1,1.406,0V9.307H14.3a.7.7,0,1,1,0,1.406H10.713v3.564A.7.7,0,0,1,10.009,14.98Z" transform="translate(276 1074)" fill="#376def"/>
  </g>
</svg>
