<svg xmlns="http://www.w3.org/2000/svg" width="49.996" height="49.996" viewBox="0 0 49.996 49.996">
  <g id="right-circle" transform="translate(-0.012 -0.023)">
    <path id="Shape" d="M25,50A25,25,0,0,1,7.321,7.321,25,25,0,0,1,42.675,42.675,24.836,24.836,0,0,1,25,50ZM20.562,12.4a1.758,1.758,0,0,0-1.2,3.039L29.5,24.948,19.354,34.456a1.758,1.758,0,0,0,2.406,2.564L33.273,26.228a1.759,1.759,0,0,0,.006-2.564L21.766,12.874A1.754,1.754,0,0,0,20.562,12.4Z" transform="translate(0.012 0.023)" fill="#C9DAFE"/>
  </g>
</svg>
