<svg xmlns="http://www.w3.org/2000/svg" width="20.363" height="17.45" viewBox="0 0 20.363 17.45">
  <defs>
    <style>
      .cls-1, .cls-6 {
        fill: none;
      }

      .cls-2, .cls-5 {
        fill: #333;
      }

      .cls-2 {
        stroke: #333;
      }

      .cls-3 {
        fill: #fff;
      }

      .cls-4, .cls-5 {
        stroke: none;
      }
    </style>
  </defs>
  <g id="组_5472" data-name="组 5472" transform="translate(-246.913 -469.724)">
    <g id="联合_28" data-name="联合 28" class="cls-1" transform="translate(246.913 469.724)">
      <path class="cls-4" d="M3.084,12.074A6.451,6.451,0,0,1,0,6.712C0,3,3.468,0,7.745,0s7.746,3,7.746,6.712-3.468,6.712-7.746,6.712a8.881,8.881,0,0,1-2.01-.228L3.371,14.523Z"/>
      <path class="cls-5" d="M 4.189799308776855 12.91721439361572 L 5.2457594871521 12.32455539703369 L 5.583819389343262 12.13481521606445 L 5.961429595947266 12.22252464294434 C 6.539459705352783 12.35678482055664 7.139549732208252 12.42485523223877 7.745029449462891 12.42485523223877 C 11.46476936340332 12.42485523223877 14.49099922180176 9.862264633178711 14.49099922180176 6.712424755096436 C 14.49099922180176 3.56258487701416 11.46476936340332 1.000005006790161 7.745029449462891 1.000005006790161 C 4.025809764862061 1.000005006790161 0.9999995827674866 3.56258487701416 0.9999995827674866 6.712424755096436 C 0.9999995827674866 8.494194984436035 1.959149599075317 10.14332485198975 3.631499528884888 11.23694515228271 L 4.02299976348877 11.49295520782471 L 4.077409744262695 11.95755481719971 L 4.189799308776855 12.91721439361572 M 3.371079683303833 14.5234546661377 L 3.084199666976929 12.07387447357178 C 1.21079957485199 10.84878540039062 -3.890991138177924e-07 8.903365135192871 -3.890991138177924e-07 6.712424755096436 C -3.890991138177924e-07 3.004884958267212 3.46774959564209 4.948883088218281e-06 7.745029449462891 4.948883088218281e-06 C 12.02324962615967 4.948883088218281e-06 15.49099922180176 3.004884958267212 15.49099922180176 6.712424755096436 C 15.49099922180176 10.41996479034424 12.02324962615967 13.42485523223877 7.745029449462891 13.42485523223877 C 7.049819469451904 13.42485523223877 6.376219749450684 13.34548473358154 5.735189437866211 13.19659519195557 L 3.371079683303833 14.5234546661377 Z"/>
    </g>
    <g id="椭圆_195" data-name="椭圆 195" class="cls-2" transform="translate(251 475.962)">
      <ellipse class="cls-4" cx="0.813" cy="0.813" rx="0.813" ry="0.813"/>
      <ellipse class="cls-6" cx="0.813" cy="0.813" rx="0.313" ry="0.313"/>
    </g>
    <g id="椭圆_199" data-name="椭圆 199" class="cls-2" transform="translate(254 475.962)">
      <ellipse class="cls-4" cx="0.813" cy="0.813" rx="0.813" ry="0.813"/>
      <ellipse class="cls-6" cx="0.813" cy="0.813" rx="0.313" ry="0.313"/>
    </g>
    <g id="椭圆_294" data-name="椭圆 294" class="cls-2" transform="translate(257 475.962)">
      <ellipse class="cls-4" cx="0.813" cy="0.813" rx="0.813" ry="0.813"/>
      <ellipse class="cls-6" cx="0.813" cy="0.813" rx="0.313" ry="0.313"/>
    </g>
    <g id="组_5129" data-name="组 5129" transform="translate(255.924 476.589)">
      <g id="联合_28-2" data-name="联合 28" class="cls-3" transform="translate(11.351 10.585) rotate(180)">
        <path class="cls-4" d="M 5.675173282623291 10.08499717712402 C 2.821573495864868 10.08499717712402 0.500003457069397 8.114487648010254 0.500003457069397 5.692397594451904 C 0.500003457069397 4.315937519073486 1.24082338809967 3.044607639312744 2.532523393630981 2.2043776512146 L 2.728983402252197 2.076577663421631 L 2.756443500518799 1.843817591667175 L 2.879457712173462 0.8008798956871033 L 3.959203481674194 1.403517603874207 L 4.127533435821533 1.497467637062073 L 4.315373420715332 1.454097628593445 C 4.756243228912354 1.352307677268982 5.213743209838867 1.300687670707703 5.675173282623291 1.300687670707703 C 8.52928352355957 1.300687670707703 10.85126304626465 3.270797729492188 10.85126304626465 5.692397594451904 C 10.85126304626465 8.114487648010254 8.52928352355957 10.08499717712402 5.675173282623291 10.08499717712402 Z"/>
        <path class="cls-5" d="M 5.675173282623291 9.584997177124023 C 8.253573417663574 9.584997177124023 10.35126304626465 7.83878755569458 10.35126304626465 5.692397594451904 C 10.35126304626465 3.546497583389282 8.253573417663574 1.800687670707703 5.675173282623291 1.800687670707703 C 5.251543521881104 1.800687670707703 4.831893444061279 1.847987651824951 4.427863597869873 1.941277623176575 L 4.052193641662598 2.028027534484863 L 3.715523481369019 1.840117692947388 L 3.288462162017822 1.601762175559998 L 3.253003358840942 1.902387619018555 L 3.198093414306641 2.367907524108887 L 2.805153369903564 2.623507738113403 C 1.657953381538391 3.36973762512207 1.000003457069397 4.488307476043701 1.000003457069397 5.692397594451904 C 1.000003457069397 7.83878755569458 3.097273349761963 9.584997177124023 5.675173282623291 9.584997177124023 M 5.675173282623291 10.58499717712402 C 2.541093349456787 10.58499717712402 3.430481001487351e-06 8.394387245178223 3.430481001487351e-06 5.692397594451904 C 3.430481001487351e-06 4.095847606658936 0.8873834013938904 2.678037643432617 2.259883403778076 1.785247683525085 L 2.470453500747681 -2.365112322877394e-06 L 4.202883243560791 0.9669176340103149 C 4.672433376312256 0.8584976196289062 5.165953636169434 0.8006876111030579 5.675173282623291 0.8006876111030579 C 8.810173034667969 0.8006876111030579 11.35126304626465 2.990407705307007 11.35126304626465 5.692397594451904 C 11.35126304626465 8.394387245178223 8.810173034667969 10.58499717712402 5.675173282623291 10.58499717712402 Z"/>
      </g>
    </g>
    <g id="椭圆_295" data-name="椭圆 295" class="cls-2" transform="translate(259.469 480.997)">
      <ellipse class="cls-4" cx="0.779" cy="0.779" rx="0.779" ry="0.779"/>
      <ellipse class="cls-6" cx="0.779" cy="0.779" rx="0.279" ry="0.279"/>
    </g>
    <g id="椭圆_296" data-name="椭圆 296" class="cls-2" transform="translate(262.34 480.997)">
      <ellipse class="cls-4" cx="0.779" cy="0.779" rx="0.779" ry="0.779"/>
      <ellipse class="cls-6" cx="0.779" cy="0.779" rx="0.279" ry="0.279"/>
    </g>
  </g>
</svg>
