<svg xmlns="http://www.w3.org/2000/svg" width="12" height="11.998" viewBox="0 0 12 11.998">
  <path id="Shape" d="M11.516,12H.481a.482.482,0,0,1,0-.964H11.516a.482.482,0,1,1,0,.964ZM2.938,9.489a.429.429,0,0,1-.3-.128.423.423,0,0,1-.091-.47L3.881,5.739A.428.428,0,0,1,3.972,5.6L9.291.284a.968.968,0,0,1,1.366,0l1.062,1.062a.968.968,0,0,1,0,1.366L6.4,8.027a.418.418,0,0,1-.137.091L3.107,9.454A.429.429,0,0,1,2.938,9.489ZM8.461,2.477h0L4.727,6.21,3.947,8.05l1.841-.779L9.521,3.538,8.461,2.477ZM9.975.963,9.142,1.8l1.06,1.06.831-.83L9.975.963Z" fill="#376def"/>
</svg>
