<svg xmlns="http://www.w3.org/2000/svg" width="108.75" height="153.924" viewBox="0 0 108.75 153.924">
  <g id="组_3658" data-name="组 3658" transform="translate(0 101.027)">
    <ellipse id="椭圆_70" data-name="椭圆 70" cx="26.459" cy="4.245" rx="26.459" ry="4.245" transform="translate(6.615 44.406)" fill="#f2f2f2"/>
    <ellipse id="椭圆_71" data-name="椭圆 71" cx="26.459" cy="4.245" rx="26.459" ry="4.245" transform="translate(8.688 41.938)" fill="none" stroke="#dbdbdb" stroke-miterlimit="10" stroke-width="0.2"/>
    <rect id="矩形_1563" data-name="矩形 1563" width="79.576" height="47.39" rx="22.84" transform="translate(20.585 -70.322)" fill="#f8f8f8"/>
    <rect id="矩形_1564" data-name="矩形 1564" width="79.576" height="47.39" rx="22.84" transform="translate(14.464 -75.653)" fill="none" stroke="#dbdbdb" stroke-miterlimit="10" stroke-width="0.2"/>
    <path id="路径_1323" data-name="路径 1323" d="M436.351-93.569a4.537,4.537,0,0,0-3.912,2.735c-.978,2.364.281,5.142,2.172,6.866s4.319,2.71,6.526,4a17.491,17.491,0,0,1,7.11,7.255,10.734,10.734,0,0,1-.1,9.9c-1.618,2.749-4.56,4.394-7.366,5.912" transform="translate(-346.778 -5.985)" fill="none" stroke="#dbdbdb" stroke-miterlimit="10" stroke-width="0.2"/>
    <ellipse id="椭圆_72" data-name="椭圆 72" cx="3.456" cy="1.678" rx="3.456" ry="1.678" transform="translate(88.609 -101.027)" fill="#dbdbdb"/>
    <ellipse id="椭圆_73" data-name="椭圆 73" cx="3.456" cy="1.678" rx="3.456" ry="1.678" transform="translate(91.374 -89.969)" fill="#dbdbdb"/>
    <ellipse id="椭圆_74" data-name="椭圆 74" cx="3.456" cy="1.678" rx="3.456" ry="1.678" transform="translate(85.055 -88.192)" fill="#dbdbdb"/>
    <ellipse id="椭圆_75" data-name="椭圆 75" cx="3.456" cy="1.678" rx="3.456" ry="1.678" transform="translate(94.928 -78.911)" fill="#dbdbdb"/>
    <ellipse id="椭圆_76" data-name="椭圆 76" cx="3.456" cy="1.678" rx="3.456" ry="1.678" transform="translate(101.839 -78.911)" fill="#dbdbdb"/>
    <path id="路径_1324" data-name="路径 1324" d="M5.6,455.457a4.538,4.538,0,0,0-3.912,2.735c-.978,2.364.281,5.142,2.172,6.866s4.319,2.71,6.526,4a17.49,17.49,0,0,1,7.11,7.255,10.734,10.734,0,0,1-.1,9.9c-1.618,2.749-4.56,4.394-7.366,5.912" transform="translate(-1.083 -446.602)" fill="none" stroke="#dbdbdb" stroke-miterlimit="10" stroke-width="0.2"/>
    <ellipse id="椭圆_77" data-name="椭圆 77" cx="3.456" cy="1.678" rx="3.456" ry="1.678" transform="translate(3.554 7.383)" fill="#dbdbdb"/>
    <ellipse id="椭圆_78" data-name="椭圆 78" cx="3.456" cy="1.678" rx="3.456" ry="1.678" transform="translate(6.319 18.441)" fill="#dbdbdb"/>
    <ellipse id="椭圆_79" data-name="椭圆 79" cx="3.456" cy="1.678" rx="3.456" ry="1.678" transform="translate(0 20.218)" fill="#dbdbdb"/>
    <ellipse id="椭圆_80" data-name="椭圆 80" cx="3.456" cy="1.678" rx="3.456" ry="1.678" transform="translate(9.873 29.498)" fill="#dbdbdb"/>
    <ellipse id="椭圆_81" data-name="椭圆 81" cx="3.456" cy="1.678" rx="3.456" ry="1.678" transform="translate(16.784 29.498)" fill="#dbdbdb"/>
    <path id="路径_1325" data-name="路径 1325" d="M243.159,268.29s.395,2.962-.592,4.147S240,281.52,240,281.52v4.739s6.121-8.886,7.306-12.44a9.549,9.549,0,0,0,0-6.319Z" transform="translate(-192.61 -295.758)" fill="#ffd8bb"/>
    <path id="路径_1326" data-name="路径 1326" d="M236.147,197.5l.084.094a12.528,12.528,0,0,1,2.361,3.907c1.3,3.442,4.083,11.927,3.084,12.783a11.512,11.512,0,0,1-5.529,1.777c-.2-.2-4.147-12.44-4.147-12.44Z" transform="translate(-186.19 -239.58)" fill="#efefef"/>
    <path id="路径_1327" data-name="路径 1327" d="M217.32,615.277s4.739.987,4.936,0a7.908,7.908,0,0,1,.592-1.777s4.3.179,3.174,3.945a1.575,1.575,0,0,1-.69.889c-1.023.626-3.432,2.1-4.656,2.867-.92.575-2.242.145-3.185-.314a1.7,1.7,0,0,1-.92-1.867Z" transform="translate(-173.78 -573.438)" fill="#3f3d56"/>
    <path id="路径_1328" data-name="路径 1328" d="M115.37,618.277s-4.739.987-4.936,0a7.909,7.909,0,0,0-.592-1.777s-4.287.179-3.177,3.934a1.6,1.6,0,0,0,.7.906c1.028.629,3.427,2.1,4.647,2.862,1.007.63,2.5.055,3.444-.445a1.374,1.374,0,0,0,.712-1.484Z" transform="translate(-85.455 -575.845)" fill="#3f3d56"/>
    <path id="路径_1329" data-name="路径 1329" d="M102.507,281.29s-.395,2.962.592,4.147,2.567,5.726,2.567,5.726V295.9s-6.121-5.529-7.306-9.083a9.55,9.55,0,0,1,0-6.319Z" transform="translate(-78.515 -306.191)" fill="#ffd8bb"/>
    <circle id="椭圆_82" data-name="椭圆 82" cx="4.936" cy="4.936" r="4.936" transform="translate(32.877 -59.062)" fill="#ffd8bb"/>
    <path id="路径_1330" data-name="路径 1330" d="M177.793,143.29s-1.382,6.319,0,7.108-8.293,0-8.293,0,2.172-5.331,1.185-7.108S177.793,143.29,177.793,143.29Z" transform="translate(-136.031 -195.44)" fill="#ffd8bb"/>
    <path id="路径_1331" data-name="路径 1331" d="M144.138,358.787s1.777,2.567,1.185,10.465-1.185,16.192-1.185,16.192,4.344,24.88,2.962,25.472-5.924,1.185-6.516.592-3.357-23.695-3.357-23.695l-2.567-18.956-3.949,21.72s-2.172,21.128-3.752,22.115c-1.129.706-3.368.2-4.554-.145a1.031,1.031,0,0,1-.745-1.034c.145-3.323.795-16.435,2.337-24.49,1.777-9.281-1.777-27.842,1.382-28.237S144.138,358.787,144.138,358.787Z" transform="translate(-97.637 -368.879)" fill="#06286d"/>
    <path id="路径_1332" data-name="路径 1332" d="M124.57,165.535s.79-3.554,3.752-3.159,4.936.2,5.529,2.172,6.911,3.554,6.911,3.554,1.58.2,1.382,2.764S138,182.911,138,182.911s.2,7.9,1.185,11.453,11.072,28.174,8.9,29.162-37.889,1.042-41.048-3.3c0,0,10.23-23.1,11.415-25.662s-.2-12.637-.2-12.637l-3.752-8.293s1.185-3.949,4.542-5.134A20.1,20.1,0,0,0,124.57,165.535Z" transform="translate(-91.891 -211.367)" fill="#efefef"/>
    <path id="路径_1333" data-name="路径 1333" d="M101.409,210.5l-1.58,1.777s-4.739,11.65-3.357,12.835A11.512,11.512,0,0,0,102,226.889c.2-.2,3.554-10.268,3.554-10.268Z" transform="translate(-77.221 -250.013)" fill="#efefef"/>
    <path id="路径_1334" data-name="路径 1334" d="M171.021,101.616a3.058,3.058,0,0,0-.987,1.975c-.2,1.382-1.41-.788-1.692,2.074s-5.021,4.837-6.8,3.454-4.739-10.07-.592-11.453,8.293-1.185,9.083.2A11.19,11.19,0,0,1,171.021,101.616Z" transform="translate(-127.482 -158.703)" fill="#06286d"/>
    <path id="路径_1335" data-name="路径 1335" d="M182.145,105.665c.282-2.862,1.495-.692,1.692-2.074a3.058,3.058,0,0,1,.987-1.975,11.191,11.191,0,0,0-.987-3.752c-.378-.661-1.525-1.051-3.072-1.126,2.135-.1,3.788.305,4.257,1.126a11.191,11.191,0,0,1,.987,3.752,3.058,3.058,0,0,0-.987,1.975c-.2,1.382-1.41-.788-1.692,2.074-.239,2.426-3.681,4.214-5.807,3.86C179.549,109.246,181.946,107.676,182.145,105.665Z" transform="translate(-142.47 -158.703)" opacity="0.1" style="isolation: isolate"/>
  </g>
</svg>
