<svg xmlns="http://www.w3.org/2000/svg" width="16" height="16" viewBox="0 0 16 16">
  <defs>
    <style>
      .cls-1, .cls-2, .cls-3, .cls-5 {
        fill: none;
      }

      .cls-1 {
        stroke: #717171;
      }

      .cls-3 {
        stroke: #707070;
        stroke-linecap: round;
      }

      .cls-4, .cls-6 {
        stroke: none;
      }

      .cls-6 {
        fill: #717171;
      }
    </style>
  </defs>
  <g id="组_2677" data-name="组 2677" transform="translate(-353 -1202)">
    <g id="组_2651" data-name="组 2651" transform="translate(-227 890)">
      <g id="矩形_1422" data-name="矩形 1422" class="cls-1" transform="translate(580 312)">
        <rect class="cls-4" width="16" height="16" rx="3"/>
        <rect class="cls-5" x="0.5" y="0.5" width="15" height="15" rx="2.5"/>
      </g>
    </g>
    <g id="组_2676" data-name="组 2676" transform="translate(0.184 -0.261)">
      <g id="路径_1235" data-name="路径 1235" class="cls-2" transform="matrix(0.985, -0.174, 0.174, 0.985, 355.815, 1206.664)">
        <path class="cls-4" d="M4.041,0A4.045,4.045,0,1,1,0,4.046,4.04,4.04,0,0,1,4.041,0Z"/>
        <path class="cls-6" d="M 4.041542530059814 1.00044584274292 C 2.365002632141113 1.000775814056396 1.000772476196289 2.36698579788208 1.000442504882812 4.045955657958984 C 1.000282764434814 4.859205722808838 1.316372394561768 5.623655796051025 1.890472412109375 6.198505878448486 C 2.464282512664795 6.773045539855957 3.227282524108887 7.089465618133545 4.039542675018311 7.089465618133545 C 5.716082572937012 7.089135646820068 7.080312728881836 5.722925662994385 7.080642700195312 4.04395580291748 C 7.080802440643311 3.230705738067627 6.764712333679199 2.466255664825439 6.19061279296875 1.891405582427979 C 5.61680269241333 1.316865921020508 4.853802680969238 1.00044584274292 4.042172431945801 1.00044584274292 L 4.041542530059814 1.00044584274292 M 4.042174339294434 0.0004453659057617188 C 6.273088455200195 0.0004453659057617188 8.081082344055176 1.810698509216309 8.080642700195312 4.044155597686768 C 8.080203056335449 6.277875900268555 6.271022796630859 8.089025497436523 4.039742469787598 8.089466094970703 C 4.039470195770264 8.089466094970703 4.039183139801025 8.089466094970703 4.038910865783691 8.089466094970703 C 1.807996273040771 8.089466094970703 2.86102294921875e-06 6.279212951660156 0.0004425048828125 4.045755863189697 C 0.0008821487426757812 1.81203556060791 1.810062408447266 0.0008859634399414062 4.041342735290527 0.0004453659057617188 C 4.041615009307861 0.0004453659057617188 4.0419020652771 0.0004453659057617188 4.042174339294434 0.0004453659057617188 Z"/>
      </g>
      <g id="组_2675" data-name="组 2675" transform="translate(360.178 1208.638)">
        <line id="直线_41" data-name="直线 41" class="cls-3" y2="1.746"/>
        <line id="直线_42" data-name="直线 42" class="cls-3" y2="1.665" transform="translate(1.665 1.746) rotate(90)"/>
      </g>
    </g>
  </g>
</svg>
