<svg xmlns="http://www.w3.org/2000/svg" width="16" height="16" viewBox="0 0 16 16">
  <defs>
    <style>
      .cls-1, .cls-5 {
        fill: none;
      }

      .cls-1 {
        stroke: #717171;
      }

      .cls-2, .cls-3 {
        fill: #fff;
      }

      .cls-3 {
        stroke: #707070;
      }

      .cls-4, .cls-6 {
        stroke: none;
      }

      .cls-6 {
        fill: #707070;
      }
    </style>
  </defs>
  <g id="组_2683" data-name="组 2683" transform="translate(-291 -1018)">
    <g id="矩形_1422" data-name="矩形 1422" class="cls-1" transform="translate(291 1018)">
      <rect class="cls-4" width="16" height="16" rx="3"/>
      <rect class="cls-5" x="0.5" y="0.5" width="15" height="15" rx="2.5"/>
    </g>
    <g id="组_2682" data-name="组 2682" transform="translate(0 1)">
      <g id="路径_1236" data-name="路径 1236" class="cls-2" transform="translate(295 1025)">
        <path class="cls-4" d="M 4 5.156859397888184 C 1.906389951705933 5.156859397888184 0.5 4.558679580688477 0.5 3.999999523162842 C 0.5 2.070089340209961 2.070090055465698 0.4999994337558746 4 0.4999994337558746 C 5.929910182952881 0.4999994337558746 7.5 2.070089340209961 7.5 3.999999523162842 C 7.5 4.558679580688477 6.093609809875488 5.156859397888184 4 5.156859397888184 Z"/>
        <path class="cls-6" d="M 4 0.9999995231628418 C 2.356492519378662 0.9999995231628418 1.017428398132324 2.328357219696045 1.000170230865479 3.967856884002686 C 1.160656929016113 4.184645175933838 2.18625545501709 4.656849384307861 4 4.656849384307861 C 5.81374454498291 4.656849384307861 6.839343070983887 4.184645175933838 6.999829292297363 3.967856884002686 C 6.982571601867676 2.328357219696045 5.643507957458496 0.9999995231628418 4 0.9999995231628418 M 4 -4.76837158203125e-07 C 6.209139823913574 -4.76837158203125e-07 8 1.790859222412109 8 3.999999523162842 C 8 5.104569435119629 6 5.656854629516602 4 5.656854629516602 C 2 5.656854629516602 0 5.104569435119629 0 3.999999523162842 C 0 1.790859222412109 1.790860176086426 -4.76837158203125e-07 4 -4.76837158203125e-07 Z"/>
      </g>
      <g id="椭圆_40" data-name="椭圆 40" class="cls-3" transform="translate(296 1020)">
        <circle class="cls-4" cx="3" cy="3" r="3"/>
        <circle class="cls-5" cx="3" cy="3" r="2.5"/>
      </g>
    </g>
  </g>
</svg>
