<svg xmlns="http://www.w3.org/2000/svg" width="162.348" height="129.74" viewBox="0 0 162.348 129.74">
  <defs>
    <style>
      .cls-1, .cls-15 {
        fill: #a3a3a3;
      }

      .cls-2 {
        fill: #f2f3f4;
      }

      .cls-3 {
        fill: #999;
      }

      .cls-4 {
        fill: #ffd8bb;
      }

      .cls-5 {
        fill: #2f2e41;
      }

      .cls-6 {
        fill: #06286d;
      }

      .cls-7 {
        fill: #f2f2f2;
      }

      .cls-8 {
        fill: #061c3f;
      }

      .cls-9 {
        opacity: 0.1;
        isolation: isolate;
      }

      .cls-10, .cls-11, .cls-12, .cls-16 {
        fill: none;
      }

      .cls-10, .cls-16 {
        stroke: #999;
        stroke-width: 0.3px;
      }

      .cls-10, .cls-11, .cls-12 {
        stroke-miterlimit: 10;
      }

      .cls-11, .cls-12 {
        stroke: #3f3d56;
        stroke-width: 0.4px;
      }

      .cls-12, .cls-16 {
        stroke-linecap: round;
      }

      .cls-13 {
        fill: #3f3d56;
      }

      .cls-14 {
        fill: #7a7a89;
      }

      .cls-15 {
        font-size: 15px;
        font-family: PingFangSC-Regular, PingFang SC;
      }
    </style>
  </defs>
  <g id="组_2663" data-name="组 2663" transform="translate(-538.508 -149.332)">
    <g id="组_2662" data-name="组 2662" transform="translate(307.004 66.468)">
      <path id="路径_1212" data-name="路径 1212" class="cls-1" d="M328.186,358.977H276.5a6.119,6.119,0,0,1-3.288-.947,5.522,5.522,0,0,1-2.6-4.635V279.337a5.751,5.751,0,0,1,5.891-5.585H288.65v1.108a4.426,4.426,0,0,0,4.54,4.29h17.122a4.663,4.663,0,0,0,2.7-.839,4.273,4.273,0,0,0,1.845-3.451v-1.108h13.333a5.751,5.751,0,0,1,5.891,5.585v74.057a5.456,5.456,0,0,1-2.074,4.25A6.07,6.07,0,0,1,328.186,358.977ZM276.5,274.091a5.411,5.411,0,0,0-5.551,5.246v74.057a5.184,5.184,0,0,0,2.446,4.349,5.777,5.777,0,0,0,3.106.894h51.681a5.729,5.729,0,0,0,3.6-1.256,5.118,5.118,0,0,0,1.948-3.986V279.337a5.411,5.411,0,0,0-5.551-5.246H315.192v.769a4.612,4.612,0,0,1-1.991,3.73,5,5,0,0,1-2.889.9H293.19a4.765,4.765,0,0,1-4.879-4.63v-.769Z" transform="translate(0 -155.584)"/>
      <path id="路径_1213" data-name="路径 1213" class="cls-2" d="M353.026,309.935v63.539a4.944,4.944,0,0,1-4.943,4.94H303.43a4.934,4.934,0,0,1-4.943-4.926V309.935a4.942,4.942,0,0,1,4.942-4.943h6.683v.857a4.07,4.07,0,0,0,4.069,4.071h22.711a4.036,4.036,0,0,0,2.413-.794,3.784,3.784,0,0,0,.4-.336,4.059,4.059,0,0,0,1.256-2.941v-.857h7.122a4.941,4.941,0,0,1,4.943,4.94Z" transform="translate(-23.143 -181.523)"/>
      <path id="路径_1214" data-name="路径 1214" class="cls-1" d="M399.519,446.451H369.675V414.319h29.844Zm-.383-.383V414.7H370.058v31.367" transform="translate(-82.252 -272.299)"/>
      <rect id="矩形_1423" data-name="矩形 1423" class="cls-1" width="18.719" height="0.383" transform="translate(293.009 155.532)"/>
      <rect id="矩形_1424" data-name="矩形 1424" class="cls-1" width="18.719" height="0.383" transform="translate(293.009 149.532)"/>
      <rect id="矩形_1425" data-name="矩形 1425" class="cls-1" width="18.719" height="0.383" transform="translate(293.009 160.532)"/>
      <rect id="矩形_1426" data-name="矩形 1426" class="cls-1" width="18.719" height="0.383" transform="translate(293.009 166.532)"/>
      <path id="路径_1215" data-name="路径 1215" class="cls-1" d="M324.538,713.01l-.182-.068a10.623,10.623,0,0,1-6.832-12.669l.043-.19.182.068a10.622,10.622,0,0,1,6.832,12.669Zm-5.772-5.231a11.9,11.9,0,0,0,5.522,4.768,10.244,10.244,0,0,0-6.471-12,11.916,11.916,0,0,0,.949,7.234Z" transform="translate(-38.758 -509.572)"/>
      <path id="路径_1216" data-name="路径 1216" class="cls-3" d="M295.928,732.328a12.14,12.14,0,0,1,4.644,6.024,10.453,10.453,0,0,1-12.143-7.305A12.141,12.141,0,0,1,295.928,732.328Z" transform="translate(-14.793 -535.174)"/>
      <path id="路径_1217" data-name="路径 1217" class="cls-4" d="M529.2,756.839l-5.091-.339,1.7,7.636,5.769-2.376Z" transform="translate(-210.485 -556.417)"/>
      <path id="路径_1218" data-name="路径 1218" class="cls-5" d="M672.185,618.039,660.307,606.5l-6.787,5.26-13.405,16.12,1.527,2.376,16.29-11.03,11.03,14.423,10.521-5.26Z" transform="translate(-306.801 -431.87)"/>
      <path id="路径_1219" data-name="路径 1219" class="cls-6" d="M672.185,618.039,660.307,606.5l-6.787,5.26-13.405,16.12,1.527,2.376,16.29-11.03,11.03,14.423,10.521-5.26Z" transform="translate(-306.801 -431.87)"/>
      <path id="路径_1220" data-name="路径 1220" class="cls-4" d="M724.682,682.114l-1.527,1.188-12.387-4.242-2.885-1.188-5.769,1.188s0-4.751,5.43-4.581l5.6,1.357,6.618.509Z" transform="translate(-358.28 -488.309)"/>
      <path id="路径_1221" data-name="路径 1221" class="cls-6" d="M608.674,703.826l-3.733,2.376h-4.412L580,698.566,549.962,704l-.848-6.448L576.6,685.5l24.1,7.975Z" transform="translate(-231.242 -497.465)"/>
      <path id="路径_1222" data-name="路径 1222" class="cls-4" d="M738.906,535.263l-2.545.509-.555-.647a3.428,3.428,0,0,1-.463-3.765h0l7.127-9.333s2.036-4.582,5.26-2.715-2.715,4.921-2.715,4.921l-3.563,5.6.339,2.885Z" transform="translate(-385.57 -359.105)"/>
      <circle id="椭圆_26" data-name="椭圆 26" class="cls-4" cx="6.618" cy="6.618" r="6.618" transform="translate(362.838 151.892)"/>
      <path id="路径_1223" data-name="路径 1223" class="cls-4" d="M835.614,531.644l3.054,7.3,7.3-3.054s-2.375-5.769-2.375-5.939S835.614,531.644,835.614,531.644Z" transform="translate(-469.127 -368.297)"/>
      <path id="路径_1224" data-name="路径 1224" class="cls-7" d="M736.641,576.357a38.031,38.031,0,0,1-1.865,11.761l-.5,1.524,4.532,12.718-9.453-1.179-12.9,1.179H692.216L701.438,593a17.451,17.451,0,0,1,12.43-5.2h4.85l-.726-1.212-2.545-12.727-9.672-5.43-3.224-.509.679-1.867,2.885-3.9,2.885-.339.848-.679.679.339,2.715-1.527.848.339,4.962.462,3.014-.631,4.334-2.326,1.775.29,6.109,5.091A37.991,37.991,0,0,1,736.641,576.357Z" transform="translate(-350.062 -391.425)"/>
      <path id="路径_1225" data-name="路径 1225" class="cls-8" d="M472.713,725.709s1.52-2.576.878-2.877-3.368-1.5-3.368-1.5l-4-1.325s-5.769-8.574-5.9-1.118,4.2,9.248,4.2,9.248,3.859,8.305,6.045,6.981,4.373-5.82,4.373-5.82S471.006,727.18,472.713,725.709Z" transform="translate(-157.52 -522.659)"/>
      <path id="路径_1226" data-name="路径 1226" class="cls-9" d="M850.949,618.645l-6.448,4.242-9.625,8.678-.726-1.212-2.036-10.181h.509l5.26-9.672Z" transform="translate(-466.221 -435.191)"/>
      <path id="路径_1227" data-name="路径 1227" class="cls-7" d="M812.144,604.5l-5.26,9.672h-1.867l-1.188,3.394-2.715.679,7.3,7.975,10.351-9.333,6.448-4.242Z" transform="translate(-440.482 -430.209)"/>
      <path id="路径_1228" data-name="路径 1228" class="cls-6" d="M811.535,457.1l-.717.276a1,1,0,0,1-.268-1.39l.012-.017-1.325-.062a10,10,0,0,1,14.937-1.2c.06-.208.718.2.987.606.09-.338.707,1.3.925,2.452.1-.385.489.236.149.832.215-.032.313.52.146.827.236-.111.2.547-.06.987.337-.03-2.653,4.61-3.864,7.321a9.234,9.234,0,0,0-1.88-4.518c-.193-.2-.4-.391-.614-.577l-1.139-1.006c-1.325-1.169-2.53-2.612-4.294-3.049-1.213-.3-1.979-.368-1.318-1.735-.6.249-1.155.62-1.757.851C811.463,457.5,811.547,457.289,811.535,457.1Z" transform="translate(-447.226 -303.508)"/>
      <circle id="椭圆_27" data-name="椭圆 27" class="cls-4" cx="1.188" cy="1.188" r="1.188" transform="translate(371.577 158.086)"/>
      <path id="路径_1229" data-name="路径 1229" class="cls-1" d="M625.731,231.367a15.639,15.639,0,0,1-5.893,1.677c-5.747.436-11.053-2.223-16.184-4.795a63.174,63.174,0,0,0-8.555-3.773,22.577,22.577,0,0,0-13.358-.5,15.6,15.6,0,0,0-10,8.457,11.941,11.941,0,0,0-.539,1.538q.684-.25,1.371-.487c4.814-1.665,11.333-2.805,15.052,1.213a7.717,7.717,0,0,1,1.85,6.1,8.608,8.608,0,0,1-3.462,6.115,8.174,8.174,0,0,1-.969.581,10.158,10.158,0,0,1-11.681-2.232,12.165,12.165,0,0,1-2.646-10.755,89.069,89.069,0,0,0-8.4,3.636l-.151-.3a89.363,89.363,0,0,1,8.645-3.73,12.3,12.3,0,0,1,.617-1.815,15.942,15.942,0,0,1,10.211-8.649,22.914,22.914,0,0,1,13.559.5,63.41,63.41,0,0,1,8.6,3.793c5.324,2.668,10.353,5.188,16.007,4.76a15.6,15.6,0,0,0,10.781-25.583l.26-.218a15.866,15.866,0,0,1-5.122,24.462ZM571.1,234.375a11.839,11.839,0,0,0,2.514,10.664c3.146,3.386,8.623,4.106,12.207,1.6a8.265,8.265,0,0,0,3.318-5.873,7.38,7.38,0,0,0-1.762-5.838c-3.595-3.884-9.974-2.755-14.693-1.123Q571.894,234.084,571.1,234.375Z" transform="translate(-242.085 -100.08)"/>
      <rect id="矩形_1427" data-name="矩形 1427" class="cls-1" width="12.448" height="1.378" transform="translate(295.339 113.362)"/>
      <rect id="矩形_1428" data-name="矩形 1428" class="cls-1" width="12.448" height="1.378" transform="translate(302.252 107.827) rotate(90)"/>
      <circle id="椭圆_28" data-name="椭圆 28" class="cls-10" cx="13.328" cy="13.328" r="13.328" transform="translate(367.046 83.013)"/>
      <circle id="椭圆_29" data-name="椭圆 29" class="cls-2" cx="10.987" cy="10.987" r="10.987" transform="translate(369.386 85.354)"/>
      <ellipse id="椭圆_30" data-name="椭圆 30" class="cls-11" cx="1.073" cy="3.07" rx="1.073" ry="3.07" transform="translate(362.046 154.67)"/>
      <path id="路径_1230" data-name="路径 1230" class="cls-11" d="M821.661,506.705s7.572-.112,8.712-.008c1.3.118,1.583.639,1.132,2.273" transform="translate(-457.542 -348.965)"/>
      <path id="路径_1231" data-name="路径 1231" class="cls-12" d="M847.823,557.789s7.048-.224-9.366,11.907" transform="translate(-471.488 -391.424)"/>
      <ellipse id="椭圆_31" data-name="椭圆 31" class="cls-13" cx="1.627" cy="1.199" rx="1.627" ry="1.199" transform="translate(364.223 179.662) rotate(-49.784)"/>
      <ellipse id="椭圆_32" data-name="椭圆 32" class="cls-14" cx="1.093" cy="0.805" rx="1.093" ry="0.805" transform="translate(364.869 179.508) rotate(-49.784)"/>
      <path id="路径_1232" data-name="路径 1232" class="cls-4" d="M809.237,475.47" transform="translate(-447.226 -323.074)"/>
      <text id="_" data-name="？" class="cls-15" transform="translate(376.391 101.499)"><tspan x="0" y="0">？</tspan></text>
    </g>
    <path id="路径_1233" data-name="路径 1233" class="cls-16" d="M7631.237,5183.6s-30.577-1.654-22.4,15.37,26.735-10.451,4.5,0S7599.1,5225.7,7599.1,5225.7" transform="translate(-7059 -4982)"/>
  </g>
</svg>
