<svg xmlns="http://www.w3.org/2000/svg" width="20" height="20" viewBox="0 0 20 20">
  <defs>
    <style>
      .cls-1 {
        fill: none;
      }

      .cls-2 {
        fill: #28bf7e;
      }
    </style>
  </defs>
  <g id="组_2447" data-name="组 2447" transform="translate(-941.964 -20)">
    <rect id="矩形_1269" data-name="矩形 1269" class="cls-1" width="20" height="20" transform="translate(941.964 20)"/>
    <path id="通知_1_" data-name="通知 (1)" class="cls-2" d="M90.111,13.577l-1.453-2.511a1.524,1.524,0,0,1-.2-.762V6.613A5.234,5.234,0,0,0,84.7,1.6c0-.037,0-.073,0-.11a1.5,1.5,0,0,0-3,0c0,.036,0,.07,0,.1a5.236,5.236,0,0,0-3.78,5.018v3.826a1.514,1.514,0,0,1-.2.755l-1.368,2.391a.728.728,0,0,0-.052.195.68.68,0,0,0,.682.677h3.7a2.556,2.556,0,0,0,5.056,0h3.732a.686.686,0,0,0,.689-.684A.371.371,0,0,0,90.111,13.577Zm-6.9-12.8a.721.721,0,0,1,.72.66A5.336,5.336,0,0,0,82.5,1.431.718.718,0,0,1,83.215.778ZM83.2,15.871a1.812,1.812,0,0,1-1.772-1.413h3.544A1.813,1.813,0,0,1,83.2,15.871Zm5.359-2.2H77.9a.4.4,0,0,1-.345-.59l.947-1.644a1.519,1.519,0,0,0,.2-.76v-4.1a4.48,4.48,0,0,1,8.96,0V10.51a1.519,1.519,0,0,0,.2.754L88.9,13.077A.4.4,0,0,1,88.558,13.668Z" transform="translate(868.664 22)"/>
  </g>
</svg>
