<svg id="组_3819" data-name="组 3819" xmlns="http://www.w3.org/2000/svg" width="14" height="14" viewBox="0 0 14 14">
  <circle id="椭圆_92" data-name="椭圆 92" cx="7" cy="7" r="7" fill="#fff"/>
  <g id="Group_57" data-name="Group 57" transform="translate(12 2) rotate(90)">
    <rect id="Rectangle_36_Copy_6" data-name="Rectangle 36 Copy 6" width="10" height="10" fill="none"/>
    <g id="down" transform="translate(1.545 2.673)">
      <path id="Shape" d="M7.113,4.066a.37.37,0,0,0-.089-.238L3.864.142a.422.422,0,0,0-.631,0L.089,3.812a.364.364,0,0,0,.062.534.423.423,0,0,0,.569-.058L3.549.986,6.393,4.3a.423.423,0,0,0,.569.058A.372.372,0,0,0,7.113,4.066Z" fill="#333"/>
    </g>
  </g>
</svg>
