<svg xmlns="http://www.w3.org/2000/svg" width="150.246" height="90.502" viewBox="0 0 150.246 90.502">
  <g id="组_3628" data-name="组 3628" transform="translate(0 -0.004)">
    <path id="路径_1265" data-name="路径 1265" d="M9.852,360.588l-.9-3.559a46.245,46.245,0,0,0-4.9-1.759l-.114,1.654L3.472,355.1c-2.066-.59-3.472-.85-3.472-.85a44.287,44.287,0,0,0,5.881,12.739l4.64.815-3.6.52a18.7,18.7,0,0,0,1.612,1.709c5.793,5.377,12.245,7.844,14.411,5.51s-.774-8.585-6.566-13.962a24.613,24.613,0,0,0-6.31-4.057Z" transform="translate(0 -294.319)" fill="#e6e6e6"/>
    <path id="路径_1266" data-name="路径 1266" d="M75.546,317.215l1.067-3.513a46.2,46.2,0,0,0-3.288-4.04l-.952,1.357.546-1.8c-1.464-1.573-2.532-2.522-2.532-2.522a44.282,44.282,0,0,0-1.551,13.945l3.551,3.1-3.354-1.418a18.7,18.7,0,0,0,.5,2.3c2.18,7.6,6.428,13.044,9.488,12.166s3.775-7.749,1.6-15.346a24.619,24.619,0,0,0-3.3-6.735Z" transform="translate(-57.113 -254.812)" fill="#e6e6e6"/>
    <rect id="矩形_1537" data-name="矩形 1537" width="150.233" height="0.379" transform="translate(0.013 82.501)" fill="#3f3d56"/>
    <path id="路径_1267" data-name="路径 1267" d="M120.865,248.213s-1.17,14.067-1.421,17.082a21.437,21.437,0,0,1-1.256,5.526,5.2,5.2,0,0,0-.5,2.01v12.811a.747.747,0,0,0-.754,1c.251,1,.5,2.763.5,2.763H121.2a.778.778,0,0,1,.5-1c.754-.251,0-2.261,0-2.261l4.019-15.072,6.029-12.56s3.517,11.3,4.27,12.56c0,0,2.763,14.067,3.266,15.323s.754,1.256.5,1.758a1.121,1.121,0,0,0,0,1.256c.251.251,5.024,0,5.024,0l-1.256-17.835L141.3,250.223l-11.555-3.517Z" transform="translate(-97.116 -204.968)" fill="#06286d"/>
    <path id="路径_1268" data-name="路径 1268" d="M104.928,475.727s-1.256-4.522-3.266-1-2.01,4.773-2.01,4.773-3.266,4.773,1.256,4.27S104.425,481,104.425,481s1.758-1,1.758-1.758A18.018,18.018,0,0,0,104.928,475.727Z" transform="translate(-81.846 -393.296)" fill="#2f2e41"/>
    <path id="路径_1269" data-name="路径 1269" d="M250.531,472.758s1.256-4.522,3.266-1,2.01,4.773,2.01,4.773,3.266,4.773-1.256,4.27-3.517-2.763-3.517-2.763-1.758-1-1.758-1.758A18.017,18.017,0,0,1,250.531,472.758Z" transform="translate(-207.102 -390.829)" fill="#2f2e41"/>
    <path id="路径_1270" data-name="路径 1270" d="M180.55,55.171s.5,3.266-1,4.019,3.266,3.517,4.522,3.517,3.517-2.512,3.517-2.512-1.256-3.768-1-4.522Z" transform="translate(-148.928 -45.837)" fill="#ffd8bb"/>
    <circle id="椭圆_57" data-name="椭圆 57" cx="5.275" cy="5.275" r="5.275" transform="translate(29.11 1.295)" fill="#ffd8bb"/>
    <path id="路径_1271" data-name="路径 1271" d="M160.054,81.712l-6.28-3.8s-3.573,4.056-7.438-.466L139.707,79.2l1,17.081s-1.507,6.782-1,8.038-1.256,1.758-.754,2.01-4.793,19.136-4.793,19.136,19.35,3.768,30.151,0l-5.764-19.136a2.636,2.636,0,0,0-.5-2.512,2.223,2.223,0,0,0-.251-2.763s.5-2.261-.754-3.266l-.251-3.517.754-1.758Z" transform="translate(-115.369 -64.34)" fill="#f2f2f2"/>
    <path id="路径_1272" data-name="路径 1272" d="M173.242,4.121a2.332,2.332,0,0,0,2.8.971c1.721-.742,2.287,1.142,5.746.6,0,0,.884-6.2-6.663-5.652s-3.834,9.17-3.834,9.17.061-1.548.69-.732S173.242,4.121,173.242,4.121Z" transform="translate(-141.556 0)" fill="#06286d"/>
    <path id="路径_1273" data-name="路径 1273" d="M254.318,162.074l.251,5.275s1,9.8-1,14.067v2.261s-.5,5.778-3.014,5.526.754-8.29.754-8.29l-.5-11.052-.5-6.28Z" transform="translate(-207.372 -134.654)" fill="#ffd8bb"/>
    <path id="路径_1274" data-name="路径 1274" d="M236.688,102.169l2.506-.407a12.234,12.234,0,0,1,3.523,6.436c.754,4.019,1,4.773,1,4.773l-6.029,1.507-3.266-6.28Z" transform="translate(-194.766 -84.546)" fill="#cfcce0"/>
    <rect id="矩形_1538" data-name="矩形 1538" width="39.641" height="19.692" transform="translate(31.132 14.756)" fill="#fff"/>
    <path id="路径_1275" data-name="路径 1275" d="M196.278,91.552a4.632,4.632,0,0,0-2.713-.519,4,4,0,0,0,4.443,2.673A4.635,4.635,0,0,0,196.278,91.552Z" transform="translate(-160.817 -75.612)" fill="#154bcc"/>
    <path id="路径_1276" data-name="路径 1276" d="M199.6,166.056h-6.365a1.432,1.432,0,1,0,0,2.864H199.6a1.432,1.432,0,0,0,0-2.864Z" transform="translate(-159.351 -137.963)" fill="#154bcc"/>
    <path id="路径_1277" data-name="路径 1277" d="M217.481,76.7H181.793a3.161,3.161,0,0,0-3.161,3.161h0V97.249a3.161,3.161,0,0,0,3.161,3.161h35.688a3.161,3.161,0,0,0,3.161-3.161V79.861a3.161,3.161,0,0,0-3.161-3.161ZM180.91,78.856a4.363,4.363,0,0,1,5.062,3.046l.056.174-.179.032a4.767,4.767,0,0,1-.775.057,4.611,4.611,0,0,1-2.351-.592,4.993,4.993,0,0,1-1.937-2.51l-.056-.174ZM188.657,95h-6.365a1.75,1.75,0,0,1,0-3.5h6.365a1.75,1.75,0,0,1,0,3.5Zm28.962-.318a1.915,1.915,0,0,1-1.91,1.91h-4.774a1.915,1.915,0,0,1-1.91-1.91V91.817a1.915,1.915,0,0,1,1.91-1.91h4.774a1.915,1.915,0,0,1,1.91,1.91Z" transform="translate(-148.411 -63.724)" fill="#376def"/>
    <path id="路径_1278" data-name="路径 1278" d="M365.2,179.694h-1.737a.468.468,0,0,0,0,.936H365.2a.468.468,0,0,0,0-.936Zm0,.668h-1.737a.2.2,0,1,1,0-.4H365.2a.2.2,0,0,1,0,.4Z" transform="translate(-301.022 -149.433)" fill="#376def"/>
    <path id="路径_1279" data-name="路径 1279" d="M387.772,179.694h-1.737a.468.468,0,0,0,0,.936h1.737a.468.468,0,0,0,0-.936Zm0,.668h-1.737a.2.2,0,0,1,0-.4h1.738a.2.2,0,0,1,0,.4Z" transform="translate(-320.389 -149.433)" fill="#376def"/>
    <path id="路径_1280" data-name="路径 1280" d="M365.2,171.229h-1.737a.468.468,0,0,0,0,.936H365.2a.468.468,0,0,0,0-.936Zm0,.668h-1.737a.2.2,0,1,1,0-.4H365.2a.2.2,0,0,1,0,.4Z" transform="translate(-301.022 -142.171)" fill="#376def"/>
    <path id="路径_1281" data-name="路径 1281" d="M387.772,171.229h-1.737a.468.468,0,0,0,0,.936h1.737a.468.468,0,0,0,0-.936Zm0,.668h-1.737a.2.2,0,0,1,0-.4h1.738a.2.2,0,0,1,0,.4Z" transform="translate(-320.389 -142.171)" fill="#376def"/>
    <path id="路径_1282" data-name="路径 1282" d="M365.2,162.763h-1.737a.468.468,0,0,0,0,.936H365.2a.468.468,0,0,0,0-.936Zm0,.668h-1.737a.2.2,0,1,1,0-.4H365.2a.2.2,0,0,1,0,.4Z" transform="translate(-301.022 -134.908)" fill="#376def"/>
    <path id="路径_1283" data-name="路径 1283" d="M387.772,162.763h-1.737a.468.468,0,0,0,0,.936h1.737a.468.468,0,0,0,0-.936Zm0,.668h-1.737a.2.2,0,1,1,0-.4h1.738a.2.2,0,0,1,0,.4Z" transform="translate(-320.389 -134.908)" fill="#376def"/>
    <path id="路径_1284" data-name="路径 1284" d="M117.307,113.239s-2.261,9.545.5,9.545,9.294-10.8,9.294-10.8,6.782-3.517,4.019-4.773-6.28,2.01-6.28,2.01l-4.058,5.634-.212-2.87Z" transform="translate(-96.738 -88.833)" fill="#ffd8bb"/>
    <path id="路径_1285" data-name="路径 1285" d="M121.925,89.342l-1.507-1.507s-3.014,1.758-3.266,3.517-1.507,7.285-1.507,7.285l4.647.377,1.507-2.261Z" transform="translate(-96.08 -72.975)" fill="#f2f2f2"/>
    <path id="路径_1286" data-name="路径 1286" d="M567.037,42.869c-.189-.559-2.562-2.458-1.108-2.777l1.192,1.59L572.6,36.2l.551.551Z" transform="translate(-469.794 -30.075)" fill="#376def"/>
    <path id="路径_1287" data-name="路径 1287" d="M567.037,153.063c-.189-.559-2.562-2.458-1.108-2.777l1.192,1.59,5.483-5.482.551.551Z" transform="translate(-469.794 -121.626)" fill="#376def"/>
    <path id="路径_1288" data-name="路径 1288" d="M567.037,264.831c-.189-.559-2.562-2.458-1.108-2.777l1.192,1.59,5.483-5.482.551.551Z" transform="translate(-469.794 -214.485)" fill="#376def"/>
    <circle id="椭圆_58" data-name="椭圆 58" cx="1.692" cy="1.692" r="1.692" transform="translate(112.157 8.835)" fill="#3f3d56"/>
    <rect id="矩形_1539" data-name="矩形 1539" width="27.238" height="0.338" transform="translate(120.193 10.358)" fill="#3f3d56"/>
    <circle id="椭圆_59" data-name="椭圆 59" cx="1.692" cy="1.692" r="1.692" transform="translate(112.157 27.478)" fill="#3f3d56"/>
    <rect id="矩形_1540" data-name="矩形 1540" width="27.238" height="0.338" transform="translate(120.193 29)" fill="#3f3d56"/>
    <circle id="椭圆_60" data-name="椭圆 60" cx="1.692" cy="1.692" r="1.692" transform="translate(112.157 46.387)" fill="#3f3d56"/>
    <rect id="矩形_1541" data-name="矩形 1541" width="27.238" height="0.338" transform="translate(120.193 47.909)" fill="#3f3d56"/>
    <path id="路径_1289" data-name="路径 1289" d="M558.5,270.113H550.04v-8.628h5.752v.338h-5.414v7.952h7.782v-3.891h.338Z" transform="translate(-456.984 -217.247)" fill="#3f3d56"/>
    <path id="路径_1290" data-name="路径 1290" d="M558.5,158.113H550.04v-8.628h5.752v.338h-5.414v7.951h7.782v-3.891h.338Z" transform="translate(-456.984 -124.195)" fill="#3f3d56"/>
    <path id="路径_1291" data-name="路径 1291" d="M558.5,44.113H550.04V35.485h5.752v.338h-5.414v7.952h7.782V39.884h.338Z" transform="translate(-456.984 -29.482)" fill="#3f3d56"/>
  </g>
</svg>
