<svg id="组_3629" data-name="组 3629" xmlns="http://www.w3.org/2000/svg" width="107.329" height="97.444" viewBox="0 0 107.329 97.444">
  <ellipse id="椭圆_61" data-name="椭圆 61" cx="19.83" cy="2.879" rx="19.83" ry="2.879" transform="translate(0 91.686)" fill="#e6e6e6"/>
  <path id="路径_1292" data-name="路径 1292" d="M183.443,101.677c-2.37-.2-5.459-1.951-5.255-4.959a4.6,4.6,0,0,1,2.216-3.354,12.961,12.961,0,0,1,5.13-1.954,38.353,38.353,0,0,1,6.25-.452c2.063-.032,4.123-.089,6.18-.232a95.827,95.827,0,0,0,12.069-1.619,95.066,95.066,0,0,0,11.541-3.06q2.813-.94,5.566-2.065a45.469,45.469,0,0,0,5.053-2.337c2.14-1.2,5.582-3.439,4.846-6.621a6.148,6.148,0,0,0-3.158-3.671,22.772,22.772,0,0,0-5.26-1.978c-8.317-2.354-16.643-4.666-24.965-7-1.942-.545-3.894-1.066-5.8-1.754a17.813,17.813,0,0,1-5.112-2.645,6.9,6.9,0,0,1-2.817-4.394,5.472,5.472,0,0,1,1.386-4.027c2.221-2.729,5.688-4.182,8.871-5.129,3.955-1.176,8.053-1.727,12.014-2.882,3.2-.932,6.557-2.351,8.912-4.93A6.833,6.833,0,0,0,222.955,33a5.491,5.491,0,0,0-1-3.853,10.574,10.574,0,0,0-3.542-3.05,19.287,19.287,0,0,0-5.007-1.934c-3.776-.922-7.645-1.145-11.464-1.728a27,27,0,0,1-5.566-1.3,8.733,8.733,0,0,1-4.2-2.848c-2.058-2.968,1.565-5.394,3.666-6.411a33.772,33.772,0,0,1,4.455-1.708c.324-.1.109-.63-.213-.527a32.446,32.446,0,0,0-4.675,1.817,9.741,9.741,0,0,0-3.454,2.582,3.857,3.857,0,0,0-.728,3.54,6.234,6.234,0,0,0,3.083,3.21,17.73,17.73,0,0,0,5.243,1.8c1.9.388,3.817.63,5.734.864,3.829.466,7.811.8,11.428,2.411,2.53,1.123,6.069,3.392,5.744,6.843a6.412,6.412,0,0,1-2.049,3.841,15.681,15.681,0,0,1-4.211,2.874c-7.067,3.455-15.447,2.8-22.2,7.11-2.3,1.465-5,3.93-4.58,7.179a7.134,7.134,0,0,0,2.425,4.208,15.588,15.588,0,0,0,4.855,2.857,55.115,55.115,0,0,0,5.578,1.79q3.131.88,6.263,1.756L221.2,67.876l6.3,1.765a29.888,29.888,0,0,1,5.692,1.967c1.479.76,3.285,2.09,3.407,4.029a4.79,4.79,0,0,1-2.008,3.695,19.014,19.014,0,0,1-4.434,2.72c-1.8.845-3.636,1.593-5.487,2.292a92.421,92.421,0,0,1-11.683,3.543A96.086,96.086,0,0,1,200.9,89.9q-3.083.314-6.184.425c-2.131.076-4.269.038-6.4.181a20.309,20.309,0,0,0-5.668,1.089,8.863,8.863,0,0,0-4.122,2.765,4.294,4.294,0,0,0-.8,3.406,5.3,5.3,0,0,0,1.881,3.013,6.825,6.825,0,0,0,3.762,1.462c.339.029.405-.535.065-.564Z" transform="translate(-152.084 -8.24)" fill="#e6e6e6"/>
  <path id="路径_1293" data-name="路径 1293" d="M112.764,103.449l-.144,3.6,4.606,3.167.72-6.765Z" transform="translate(-96.409 -88.558)" fill="#ffd8bb"/>
  <path id="路径_1294" data-name="路径 1294" d="M174.067,231.449l1.583,4.606L178.817,247s3.167,5.326.432,5.47-2.159-4.75-2.159-4.75l-4.462-7.773-1.008-8.2Z" transform="translate(-146.916 -198.133)" fill="#ffd8bb"/>
  <path id="路径_1295" data-name="路径 1295" d="M155.856,603.11a20.586,20.586,0,0,0,2.122,4.252c1.071,1.385-.577,2.271-.577,2.271l-5.235-.618s.315-4.582-.093-5.343Z" transform="translate(-130.183 -516.295)" fill="#ffd8bb"/>
  <path id="路径_1296" data-name="路径 1296" d="M154.9,629.767s.84-2.086,1.317-1.2a8.2,8.2,0,0,0,2.377,1.991s5.049.881,1.295,2.409-6.113.181-6.113.181-3.539.1-3.948-.656-.526-3.685.211-3.241S154.1,631.014,154.9,629.767Z" transform="translate(-127.987 -537.901)" fill="#2f2e41"/>
  <path id="路径_1297" data-name="路径 1297" d="M73.666,569.744a20.585,20.585,0,0,0-.144,4.75c.288,1.727-1.583,1.727-1.583,1.727L67.62,573.2s2.447-3.887,2.447-4.75Z" transform="translate(-57.886 -486.623)" fill="#ffd8bb"/>
  <path id="路径_1298" data-name="路径 1298" d="M93.022,330.048s-1.152,13.963-3.455,19.145-7.118,17.347-7.118,17.347L76.771,364.3s3.728-15.108,6.319-16.979l1.727-20.872Z" transform="translate(-66.447 -279.458)" fill="#06286d"/>
  <path id="路径_1299" data-name="路径 1299" d="M102.1,328.82l-2.015,7.629,5.126,31.3-6.031.743-7.156-34.345s-2.159-4.174-.864-8.2S102.1,328.82,102.1,328.82Z" transform="translate(-77.682 -277.943)" fill="#06286d"/>
  <path id="路径_1300" data-name="路径 1300" d="M66.378,595.3s1.727-1.439,1.727-.432a8.2,8.2,0,0,0,1.152,2.879s4.03,3.167,0,2.735-5.47-2.735-5.47-2.735-3.167-1.583-3.167-2.447,1.281-3.494,1.72-2.755S65.082,596.015,66.378,595.3Z" transform="translate(-51.894 -507.136)" fill="#2f2e41"/>
  <circle id="椭圆_62" data-name="椭圆 62" cx="4.318" cy="4.318" r="4.318" transform="translate(14.484 8.126)" fill="#ffd8bb"/>
  <path id="路径_1301" data-name="路径 1301" d="M76.711,116.88l4.273,3.167.61-1.727,1.261,1.439s5.038,2.735,5.038,3.887-.877,29.075-.877,29.075,2.86,10.888.877,12.018c-.182.2-5.091-.491-6.046-1.827-12.019,6.679-12.833,1.827-12.833,1.827l3.333-30.872L70.62,122.351a3.448,3.448,0,0,1,1.152-1.152c.864-.576,3.887-2.879,3.887-2.879Z" transform="translate(-60.455 -99.687)" fill="#f2f2f2"/>
  <path id="路径_1302" data-name="路径 1302" d="M176.908,160.449l1.871.72,1.727,9.788-3.887.864Z" transform="translate(-151.196 -137.353)" fill="#f2f2f2"/>
  <path id="路径_1303" data-name="路径 1303" d="M42.916,227.449l-1.3,6.621L50.4,243s2.159,4.318,3.887,2.447-3.023-4.318-3.023-4.318l-5.47-8.925,1.3-3.167Z" transform="translate(-35.629 -194.709)" fill="#ffd8bb"/>
  <path id="路径_1304" data-name="路径 1304" d="M94.357,42.129a1.866,1.866,0,0,1,1.28-2.56s1.76-2.88,5.28-.96a3.964,3.964,0,0,1,2.4,3.52c0,2.56.8,3.04.8,3.04a7.724,7.724,0,0,1-1.511-2.182c-.32-.96-2.809-1.178-3.769-.218s-3.36.8-3.36.8l.16,3.52s-.8-2.08-1.12-2.08S93.877,42.129,94.357,42.129Z" transform="translate(-80.565 -32.486)" fill="#06286d"/>
  <path id="路径_1305" data-name="路径 1305" d="M49.946,157.449H48.363l-3.743,10.94,5.182,1.583,2.879-7.2Z" transform="translate(-38.197 -134.785)" fill="#f2f2f2"/>
  <path id="路径_1306" data-name="路径 1306" d="M117.937,485.4l-1.817-13.453,2.6,11.36Z" transform="translate(-99.405 -404.014)" opacity="0.3" style="isolation: isolate"/>
  <path id="路径_1307" data-name="路径 1307" d="M217.709,359.891a.5.5,0,0,0-.5.5v27.862a.5.5,0,0,0,.5.5h75.055a.5.5,0,0,0,.5-.5V360.395a.5.5,0,0,0-.5-.5Z" transform="translate(-185.939 -308.086)" fill="#e6e6e6"/>
  <path id="路径_1308" data-name="路径 1308" d="M235.149,374.773a.36.36,0,0,0-.36.36V399a.36.36,0,0,0,.36.36H305.43a.36.36,0,0,0,.36-.36V375.133a.36.36,0,0,0-.36-.36Z" transform="translate(-200.992 -320.826)" fill="#fff"/>
  <path id="路径_1309" data-name="路径 1309" d="M321.129,140.75a.877.877,0,0,0-.864.888v20.139a.877.877,0,0,0,.864.888H365.9a.877.877,0,0,0,.864-.888V141.638a.877.877,0,0,0-.864-.888Z" transform="translate(-274.165 -120.49)" fill="#e6e6e6"/>
  <path id="路径_1310" data-name="路径 1310" d="M321.13,0a.925.925,0,0,0-.864.975V15a.925.925,0,0,0,.864.975H365.9A.925.925,0,0,0,366.76,15V.975A.925.925,0,0,0,365.9,0Z" transform="translate(-274.165)" fill="#e6e6e6"/>
  <rect id="矩形_1542" data-name="矩形 1542" width="35.411" height="2.015" transform="translate(51.643 3.635)" fill="#fff"/>
  <rect id="矩形_1543" data-name="矩形 1543" width="35.411" height="0.936" transform="translate(51.715 7.881)" fill="#fff"/>
  <rect id="矩形_1544" data-name="矩形 1544" width="35.411" height="0.936" transform="translate(51.715 11.192)" fill="#fff"/>
  <path id="路径_1311" data-name="路径 1311" d="M364.809,192.1h16.3a.525.525,0,0,0,.371-.9l-10.43-10.43a.525.525,0,0,0-.742,0l-2.594,2.594a1.1,1.1,0,0,1-1.556,0h0l-8.124-8.124a.525.525,0,0,0-.742,0L341.4,191.131a.525.525,0,0,0,.371.9H364.83Z" transform="translate(-292.127 -149.886)" fill="#fff"/>
  <circle id="椭圆_63" data-name="椭圆 63" cx="2.015" cy="2.015" r="2.015" transform="translate(51.283 22.995)" fill="#fff"/>
  <path id="路径_1312" data-name="路径 1312" d="M312.836,471.449a.216.216,0,0,0-.216.216V473.1a.216.216,0,0,0,.216.216h49.229a.216.216,0,0,0,.216-.216v-1.439a.216.216,0,0,0-.216-.216Z" transform="translate(-267.62 -403.586)" fill="#e6e6e6"/>
  <path id="路径_1313" data-name="路径 1313" d="M321.129,325.75a.877.877,0,0,0-.864.888v20.139a.877.877,0,0,0,.864.888H365.9a.877.877,0,0,0,.864-.888V326.638a.877.877,0,0,0-.864-.888Z" transform="translate(-274.165 -278.86)" fill="#dde7ff"/>
  <path id="路径_1314" data-name="路径 1314" d="M364.809,377.1h16.3a.525.525,0,0,0,.371-.9l-10.43-10.43a.525.525,0,0,0-.742,0l-2.594,2.594a1.1,1.1,0,0,1-1.555,0h0l-8.124-8.124a.526.526,0,0,0-.742,0L341.4,376.131a.525.525,0,0,0,.371.9H364.83Z" transform="translate(-292.127 -308.257)" fill="#6c95f5" opacity="0.514"/>
  <circle id="椭圆_64" data-name="椭圆 64" cx="2.015" cy="2.015" r="2.015" transform="translate(51.283 49.625)" fill="#a2bcfa"/>
</svg>
