<svg xmlns="http://www.w3.org/2000/svg" width="18.832" height="19.756" viewBox="0 0 18.832 19.756">
  <g id="组_4001" data-name="组 4001" transform="translate(-505.703 -301)">
    <rect id="矩形_1490" data-name="矩形 1490" width="18.832" height="0.803" rx="0.401" transform="translate(505.703 312)" fill="#999"/>
    <path id="路径_1239" data-name="路径 1239" d="M735.84,618.4v7.21a.542.542,0,0,0,.535.546h13.809a.542.542,0,0,0,.535-.546V618.4Z" transform="translate(-228.137 -305.898)" fill="none" stroke="#999" stroke-width="1"/>
    <g id="椭圆_41" data-name="椭圆 41" transform="translate(512 301)" fill="none" stroke="#999" stroke-width="1">
      <circle cx="3" cy="3" r="3" stroke="none"/>
      <circle cx="3" cy="3" r="2.5" fill="none"/>
    </g>
    <g id="减去_1" data-name="减去 1" transform="translate(10338 5328)" fill="none">
      <path d="M-9817-5015h-12a6.006,6.006,0,0,1,6-6,6.006,6.006,0,0,1,6,6Z" stroke="none"/>
      <path d="M -9818.1015625 -5015.9990234375 C -9818.5654296875 -5018.2783203125 -9820.5859375 -5019.9990234375 -9823.0009765625 -5019.9990234375 C -9825.4150390625 -5019.9990234375 -9827.4345703125 -5018.2783203125 -9827.8994140625 -5015.9990234375 L -9818.1015625 -5015.9990234375 M -9817.0009765625 -5014.9990234375 L -9817.001953125 -5014.9990234375 L -9829 -5014.9990234375 C -9829 -5018.3076171875 -9826.30859375 -5020.9990234375 -9823.0009765625 -5020.9990234375 C -9819.6923828125 -5020.9990234375 -9817.0009765625 -5018.3076171875 -9817.0009765625 -5015 L -9817.0009765625 -5014.9990234375 Z" stroke="none" fill="#999"/>
    </g>
    <line id="直线_45" data-name="直线 45" x2="3.212" transform="translate(513.819 316.417)" fill="none" stroke="#999" stroke-linecap="round" stroke-width="1"/>
    <line id="直线_46" data-name="直线 46" x2="3.212" transform="translate(515.425 314.811) rotate(90)" fill="none" stroke="#999" stroke-linecap="round" stroke-width="1"/>
  </g>
</svg>
