<svg xmlns="http://www.w3.org/2000/svg" width="150.246" height="90.502" viewBox="0 0 150.246 90.502">
  <defs>
    <style>
      .cls-1 {
        fill: #e6e6e6;
      }

      .cls-2 {
        fill: #3f3d56;
      }

      .cls-3 {
        fill: #06286d;
      }

      .cls-4 {
        fill: #2f2e41;
      }

      .cls-5 {
        fill: #ffd8bb;
      }

      .cls-6 {
        fill: #f2f2f2;
      }

      .cls-7 {
        fill: #cfcce0;
      }

      .cls-8 {
        fill: #376def;
      }

      .cls-9 {
        fill: #fff;
      }
    </style>
  </defs>
  <g id="组_4857" data-name="组 4857" transform="translate(-412 -486.236)">
    <g id="组_4856" data-name="组 4856" transform="translate(-2.926)">
      <path id="路径_1265" data-name="路径 1265" class="cls-1" d="M9.852,360.588l-.9-3.559a46.245,46.245,0,0,0-4.9-1.759l-.114,1.654L3.472,355.1c-2.066-.59-3.472-.85-3.472-.85a44.287,44.287,0,0,0,5.881,12.739l4.64.815-3.6.52a18.7,18.7,0,0,0,1.612,1.709c5.793,5.377,12.245,7.844,14.411,5.51s-.774-8.585-6.566-13.962a24.613,24.613,0,0,0-6.31-4.057Z" transform="translate(414.926 191.912)"/>
      <path id="路径_1266" data-name="路径 1266" class="cls-1" d="M75.546,317.215l1.067-3.513a46.2,46.2,0,0,0-3.288-4.04l-.952,1.357.546-1.8c-1.464-1.573-2.532-2.522-2.532-2.522a44.282,44.282,0,0,0-1.551,13.945l3.551,3.1-3.354-1.418a18.7,18.7,0,0,0,.5,2.3c2.18,7.6,6.428,13.044,9.488,12.166s3.775-7.749,1.6-15.346a24.619,24.619,0,0,0-3.3-6.735Z" transform="translate(357.814 231.42)"/>
      <rect id="矩形_1537" data-name="矩形 1537" class="cls-2" width="150.233" height="0.379" transform="translate(414.94 568.733)"/>
      <path id="路径_1267" data-name="路径 1267" class="cls-3" d="M120.865,248.213s-1.17,14.067-1.421,17.082a21.437,21.437,0,0,1-1.256,5.526,5.2,5.2,0,0,0-.5,2.01v12.811a.747.747,0,0,0-.754,1c.251,1,.5,2.763.5,2.763H121.2a.778.778,0,0,1,.5-1c.754-.251,0-2.261,0-2.261l4.019-15.072,6.029-12.56s3.517,11.3,4.27,12.56c0,0,2.763,14.067,3.266,15.323s.754,1.256.5,1.758a1.121,1.121,0,0,0,0,1.256c.251.251,5.024,0,5.024,0l-1.256-17.835L141.3,250.223l-11.555-3.517Z" transform="translate(317.811 281.263)"/>
      <path id="路径_1268" data-name="路径 1268" class="cls-4" d="M104.928,475.727s-1.256-4.522-3.266-1-2.01,4.773-2.01,4.773-3.266,4.773,1.256,4.27S104.425,481,104.425,481s1.758-1,1.758-1.758A18.018,18.018,0,0,0,104.928,475.727Z" transform="translate(333.081 92.936)"/>
      <path id="路径_1269" data-name="路径 1269" class="cls-4" d="M250.531,472.758s1.256-4.522,3.266-1,2.01,4.773,2.01,4.773,3.266,4.773-1.256,4.27-3.517-2.763-3.517-2.763-1.758-1-1.758-1.758A18.017,18.017,0,0,1,250.531,472.758Z" transform="translate(207.824 95.402)"/>
      <path id="路径_1270" data-name="路径 1270" class="cls-5" d="M180.55,55.171s.5,3.266-1,4.019,3.266,3.517,4.522,3.517,3.517-2.512,3.517-2.512-1.256-3.768-1-4.522Z" transform="translate(265.999 440.394)"/>
      <circle id="椭圆_57" data-name="椭圆 57" class="cls-5" cx="5.275" cy="5.275" r="5.275" transform="translate(444.037 487.527)"/>
      <path id="路径_1271" data-name="路径 1271" class="cls-6" d="M160.054,81.712l-6.28-3.8s-3.573,4.056-7.438-.466L139.707,79.2l1,17.081s-1.507,6.782-1,8.038-1.256,1.758-.754,2.01-4.793,19.136-4.793,19.136,19.35,3.768,30.151,0l-5.764-19.136a2.636,2.636,0,0,0-.5-2.512,2.223,2.223,0,0,0-.251-2.763s.5-2.261-.754-3.266l-.251-3.517.754-1.758Z" transform="translate(299.557 421.891)"/>
      <path id="路径_1272" data-name="路径 1272" class="cls-3" d="M173.242,4.121a2.332,2.332,0,0,0,2.8.971c1.721-.742,2.287,1.142,5.746.6,0,0,.884-6.2-6.663-5.652s-3.834,9.17-3.834,9.17.061-1.548.69-.732S173.242,4.121,173.242,4.121Z" transform="translate(273.37 486.232)"/>
      <path id="路径_1273" data-name="路径 1273" class="cls-5" d="M254.318,162.074l.251,5.275s1,9.8-1,14.067v2.261s-.5,5.778-3.014,5.526.754-8.29.754-8.29l-.5-11.052-.5-6.28Z" transform="translate(207.554 351.577)"/>
      <path id="路径_1274" data-name="路径 1274" class="cls-7" d="M236.688,102.169l2.506-.407a12.234,12.234,0,0,1,3.523,6.436c.754,4.019,1,4.773,1,4.773l-6.029,1.507-3.266-6.28Z" transform="translate(220.16 401.686)"/>
      <path id="路径_1286" data-name="路径 1286" class="cls-8" d="M567.037,42.869c-.189-.559-2.562-2.458-1.108-2.777l1.192,1.59L572.6,36.2l.551.551Z" transform="translate(-65.868 461.157)"/>
      <path id="路径_1287" data-name="路径 1287" class="cls-8" d="M567.037,153.063c-.189-.559-2.562-2.458-1.108-2.777l1.192,1.59,5.483-5.482.551.551Z" transform="translate(-65.868 369.605)"/>
      <path id="路径_1288" data-name="路径 1288" class="cls-8" d="M567.037,264.831c-.189-.559-2.562-2.458-1.108-2.777l1.192,1.59,5.483-5.482.551.551Z" transform="translate(-65.868 276.746)"/>
      <circle id="椭圆_58" data-name="椭圆 58" class="cls-2" cx="1.692" cy="1.692" r="1.692" transform="translate(516.084 500.067)"/>
      <rect id="矩形_1539" data-name="矩形 1539" class="cls-2" width="27.238" height="0.338" transform="translate(524.12 501.589)"/>
      <circle id="椭圆_59" data-name="椭圆 59" class="cls-2" cx="1.692" cy="1.692" r="1.692" transform="translate(516.084 518.709)"/>
      <rect id="矩形_1540" data-name="矩形 1540" class="cls-2" width="27.238" height="0.338" transform="translate(524.12 520.232)"/>
      <circle id="椭圆_60" data-name="椭圆 60" class="cls-2" cx="1.692" cy="1.692" r="1.692" transform="translate(516.084 537.618)"/>
      <rect id="矩形_1541" data-name="矩形 1541" class="cls-2" width="27.238" height="0.338" transform="translate(524.12 539.141)"/>
      <path id="路径_1289" data-name="路径 1289" class="cls-2" d="M558.5,270.113H550.04v-8.628h5.752v.338h-5.414v7.952h7.782v-3.891h.338Z" transform="translate(-53.057 273.985)"/>
      <path id="路径_1290" data-name="路径 1290" class="cls-2" d="M558.5,158.113H550.04v-8.628h5.752v.338h-5.414v7.951h7.782v-3.891h.338Z" transform="translate(-53.057 367.036)"/>
      <path id="路径_1291" data-name="路径 1291" class="cls-2" d="M558.5,44.113H550.04V35.485h5.752v.338h-5.414v7.952h7.782V39.884h.338Z" transform="translate(-53.057 461.75)"/>
      <g id="组_4849" data-name="组 4849" transform="translate(-2)">
        <rect id="矩形_1945" data-name="矩形 1945" class="cls-8" width="39" height="32" rx="5" transform="translate(446 502)"/>
        <g id="组_4848" data-name="组 4848" transform="translate(557.679 486.071)">
          <path id="路径_1827" data-name="路径 1827" class="cls-9" d="M-92.281,43.725a11.323,11.323,0,0,1-4.437-.9,11.358,11.358,0,0,1-3.623-2.443,11.359,11.359,0,0,1-2.443-3.623,11.317,11.317,0,0,1-.9-4.437,11.325,11.325,0,0,1,.9-4.437,11.359,11.359,0,0,1,2.443-3.623,11.358,11.358,0,0,1,3.623-2.443,11.325,11.325,0,0,1,4.437-.9,11.325,11.325,0,0,1,4.437.9,11.359,11.359,0,0,1,3.623,2.443,11.358,11.358,0,0,1,2.443,3.623,11.325,11.325,0,0,1,.9,4.437,11.317,11.317,0,0,1-.9,4.437,11.357,11.357,0,0,1-2.443,3.623,11.359,11.359,0,0,1-3.623,2.443,11.315,11.315,0,0,1-4.437.9Zm0-21.787a10.318,10.318,0,0,0-4.045.816,10.333,10.333,0,0,0-3.3,2.226,10.384,10.384,0,0,0-2.226,3.3,10.312,10.312,0,0,0-.816,4.045,10.352,10.352,0,0,0,.816,4.045,10.336,10.336,0,0,0,2.226,3.3,10.361,10.361,0,0,0,3.3,2.226,10.312,10.312,0,0,0,4.045.816,10.355,10.355,0,0,0,4.045-.816,10.338,10.338,0,0,0,3.3-2.226,10.323,10.323,0,0,0,2.226-3.3,10.312,10.312,0,0,0,.816-4.045,10.352,10.352,0,0,0-.816-4.045,10.333,10.333,0,0,0-2.226-3.3,10.322,10.322,0,0,0-3.3-2.226,10.311,10.311,0,0,0-4.045-.816Zm0,0"/>
          <path id="路径_1828" data-name="路径 1828" class="cls-9" d="M43.509,210.305c.171,0,.339.014.513.03-.458-2.14-2.746-3.726-5.355-3.726-2.917,0-5.307,1.987-5.307,4.514a4.357,4.357,0,0,0,2.122,3.587l-.531,1.6,1.857-.934a9.188,9.188,0,0,0,1.857.264,4.482,4.482,0,0,0,.494-.023A3.837,3.837,0,0,1,39,214.5a4.348,4.348,0,0,1,4.514-4.2Zm-2.858-1.44a.663.663,0,1,1,0,1.326.744.744,0,0,1-.8-.663.755.755,0,0,1,.8-.663Zm-3.714,1.329a.675.675,0,1,1,0-1.326.663.663,0,1,1,0,1.326Zm11.414,4.25c0-2.121-2.122-3.849-4.507-3.849-2.527,0-4.514,1.73-4.514,3.849s1.987,3.851,4.514,3.851a6.805,6.805,0,0,0,1.593-.264l1.458.8-.4-1.328a4.035,4.035,0,0,0,1.855-3.058Zm-5.97-.663a.529.529,0,0,1,0-1.057.542.542,0,1,1,0,1.057Zm2.921,0a.529.529,0,1,1,0-1.057.542.542,0,1,1,0,1.057Zm0,0" transform="translate(-133.136 -180.391)"/>
        </g>
      </g>
      <path id="路径_1284" data-name="路径 1284" class="cls-5" d="M117.307,113.239s-2.261,9.545.5,9.545,9.294-10.8,9.294-10.8,6.782-3.517,4.019-4.773-6.28,2.01-6.28,2.01l-4.058,5.634-.212-2.87Z" transform="translate(318.189 397.398)"/>
      <path id="路径_1285" data-name="路径 1285" class="cls-6" d="M121.925,89.342l-1.507-1.507s-3.014,1.758-3.266,3.517-1.507,7.285-1.507,7.285l4.647.377,1.507-2.261Z" transform="translate(318.846 413.257)"/>
    </g>
  </g>
</svg>
