<svg xmlns="http://www.w3.org/2000/svg" width="55.824" height="55.824" viewBox="0 0 55.824 55.824">
  <defs>
    <style>
      .cls-1 {
        fill: none;
      }

      .cls-2 {
        fill: #ebebeb;
      }
    </style>
  </defs>
  <g id="组_1898" data-name="组 1898" transform="translate(-276 -1074)">
    <rect id="Rectangle_2" data-name="Rectangle 2" class="cls-1" width="55.823" height="55.823" transform="translate(276 1074)"/>
    <path id="Shape" class="cls-2" d="M27.911,55.824A27.913,27.913,0,0,1,8.175,8.175,27.913,27.913,0,0,1,47.649,47.649,27.731,27.731,0,0,1,27.911,55.824Zm0-51.9a23.923,23.923,0,0,0-16.965,7.027A23.883,23.883,0,0,0,3.925,27.911a23.978,23.978,0,0,0,40.946,16.96,23.968,23.968,0,0,0,0-33.925,23.883,23.883,0,0,0-16.96-7.021Zm.027,37.888a1.965,1.965,0,0,1-1.961-1.964V29.9H15.918a1.963,1.963,0,0,1,0-3.925H25.977v-10a1.963,1.963,0,0,1,3.925,0v10h10a1.963,1.963,0,1,1,0,3.925h-10v9.948A1.966,1.966,0,0,1,27.938,41.813Z" transform="translate(276 1074)"/>
  </g>
</svg>
