<svg xmlns="http://www.w3.org/2000/svg" width="44" height="44" viewBox="0 0 44 44">
  <defs>
    <style>
      .cls-1, .cls-2, .cls-3, .cls-6 {
        fill: none;
      }

      .cls-2, .cls-3 {
        stroke: #376def;
      }

      .cls-3 {
        stroke-linecap: round;
      }

      .cls-4, .cls-5 {
        stroke: none;
      }

      .cls-5 {
        fill: #376def;
      }
    </style>
  </defs>
  <g id="组_5611" data-name="组 5611" transform="translate(-685 -566)">
    <g id="路径_2327" data-name="路径 2327" class="cls-1" transform="translate(685 566)">
      <path class="cls-4" d="M22,0A22,22,0,1,1,0,22,22,22,0,0,1,22,0Z"/>
      <path class="cls-5" d="M 22 1 C 19.16457939147949 1 16.41449928283691 1.555099487304688 13.8261604309082 2.649871826171875 C 11.32561111450195 3.707511901855469 9.079681396484375 5.221828460693359 7.150760650634766 7.150760650634766 C 5.221828460693359 9.079681396484375 3.707511901855469 11.32561111450195 2.649871826171875 13.8261604309082 C 1.555099487304688 16.41449928283691 1 19.16457939147949 1 22 C 1 24.83542060852051 1.555099487304688 27.58550071716309 2.649871826171875 30.1738395690918 C 3.707511901855469 32.67438125610352 5.221828460693359 34.92031097412109 7.150760650634766 36.84923934936523 C 9.079681396484375 38.77817153930664 11.32561111450195 40.29248046875 13.8261604309082 41.35012817382812 C 16.41449928283691 42.44490051269531 19.16457939147949 43 22 43 C 24.83542060852051 43 27.58550071716309 42.44490051269531 30.1738395690918 41.35012817382812 C 32.67438125610352 40.29248046875 34.92031097412109 38.77817153930664 36.84923934936523 36.84923934936523 C 38.77817153930664 34.92031097412109 40.29248046875 32.67438125610352 41.35012817382812 30.1738395690918 C 42.44490051269531 27.58550071716309 43 24.83542060852051 43 22 C 43 19.16457939147949 42.44490051269531 16.41449928283691 41.35012817382812 13.8261604309082 C 40.29248046875 11.32561111450195 38.77817153930664 9.079681396484375 36.84923934936523 7.150760650634766 C 34.92031097412109 5.221828460693359 32.67438125610352 3.707511901855469 30.1738395690918 2.649871826171875 C 27.58550071716309 1.555099487304688 24.83542060852051 1 22 1 M 22 0 C 34.15026092529297 0 44 9.8497314453125 44 22 C 44 34.15026092529297 34.15026092529297 44 22 44 C 9.8497314453125 44 0 34.15026092529297 0 22 C 0 9.8497314453125 9.8497314453125 0 22 0 Z"/>
    </g>
    <g id="组_5529" data-name="组 5529" transform="translate(108 148.5)">
      <g id="矩形_2268" data-name="矩形 2268" class="cls-2" transform="translate(595 434)">
        <path class="cls-4" d="M2,0H7A2,2,0,0,1,9,2V15a0,0,0,0,1,0,0H0a0,0,0,0,1,0,0V2A2,2,0,0,1,2,0Z"/>
        <path class="cls-6" d="M2,.5H7A1.5,1.5,0,0,1,8.5,2V14a.5.5,0,0,1-.5.5H1A.5.5,0,0,1,.5,14V2A1.5,1.5,0,0,1,2,.5Z"/>
      </g>
      <g id="矩形_2269" data-name="矩形 2269" class="cls-2" transform="translate(603 437)">
        <path class="cls-4" d="M0,0H5A2,2,0,0,1,7,2V12a0,0,0,0,1,0,0H0a0,0,0,0,1,0,0V0A0,0,0,0,1,0,0Z"/>
        <path class="cls-6" d="M1,.5H5A1.5,1.5,0,0,1,6.5,2v9a.5.5,0,0,1-.5.5H1A.5.5,0,0,1,.5,11V1A.5.5,0,0,1,1,.5Z"/>
      </g>
      <g id="矩形_2270" data-name="矩形 2270" class="cls-2" transform="translate(589 437)">
        <path class="cls-4" d="M2,0H7A0,0,0,0,1,7,0V12a0,0,0,0,1,0,0H0a0,0,0,0,1,0,0V2A2,2,0,0,1,2,0Z"/>
        <path class="cls-6" d="M2,.5H6a.5.5,0,0,1,.5.5V11a.5.5,0,0,1-.5.5H1A.5.5,0,0,1,.5,11V2A1.5,1.5,0,0,1,2,.5Z"/>
      </g>
      <line id="直线_571" data-name="直线 571" class="cls-3" x2="3.611" transform="translate(597.675 438.5)"/>
      <line id="直线_574" data-name="直线 574" class="cls-3" x2="3.611" transform="translate(597.675 441.5)"/>
      <line id="直线_577" data-name="直线 577" class="cls-3" x2="1.788" transform="translate(605.5 441.5)"/>
      <line id="直线_579" data-name="直线 579" class="cls-3" x2="1.788" transform="translate(591.5 441.5)"/>
      <line id="直线_575" data-name="直线 575" class="cls-3" x2="3.611" transform="translate(597.675 444.5)"/>
      <line id="直线_576" data-name="直线 576" class="cls-3" x2="1.788" transform="translate(605.5 444.5)"/>
      <line id="直线_578" data-name="直线 578" class="cls-3" x2="1.788" transform="translate(591.5 444.5)"/>
      <line id="直线_572" data-name="直线 572" class="cls-3" x2="4" transform="translate(597.5 431.5)"/>
      <line id="直线_573" data-name="直线 573" class="cls-3" y2="5" transform="translate(599.5 429.5)"/>
    </g>
  </g>
</svg>
