<svg id="Group_205" data-name="Group 205" xmlns="http://www.w3.org/2000/svg" width="20" height="17.675" viewBox="0 0 20 17.675">
  <defs>
    <style>
      .cls-1 {
        fill: none;
      }

      .cls-2 {
        fill: rgba(59,184,176,1);
      }
    </style>
  </defs>
  <rect id="Rectangle_48_Copy_4" data-name="Rectangle 48 Copy 4" class="cls-1" width="17.675" height="17.675"/>
  <path id="Shape" class="cls-2" d="M14.875,14H1.125A1.231,1.231,0,0,1,0,12.688V1.313A1.231,1.231,0,0,1,1.125,0h13.75A1.231,1.231,0,0,1,16,1.313V12.688A1.231,1.231,0,0,1,14.875,14ZM5.125,9.61h0l0,3.077h9.75V9.607a.017.017,0,0,1-.016.018H5.141A.016.016,0,0,1,5.125,9.61Zm-4-4.36v7.438H4V5.25ZM5.141,8.313h9.719a.017.017,0,0,1,.016.018V5.25H5.125V8.331A.017.017,0,0,1,5.141,8.313Zm-4.016-7V3.938h13.75V1.313Zm4.25,1.968a.615.615,0,0,1-.562-.656.616.616,0,0,1,.562-.657.616.616,0,0,1,.563.657A.615.615,0,0,1,5.375,3.281Zm-1.625,0a.615.615,0,0,1-.563-.656.616.616,0,0,1,.563-.657.616.616,0,0,1,.562.657A.615.615,0,0,1,3.75,3.281Zm-1.625,0a.615.615,0,0,1-.563-.656.616.616,0,0,1,.563-.657.616.616,0,0,1,.562.657A.615.615,0,0,1,2.125,3.281Z" transform="translate(4 3.549)"/>
</svg>
