<svg xmlns="http://www.w3.org/2000/svg" xmlns:xlink="http://www.w3.org/1999/xlink" width="236.884" height="241.883" viewBox="0 0 236.884 241.883">
  <defs>
    <style>
      .cls-1, .cls-2, .cls-41 {
        fill: #376def;
      }

      .cls-1 {
        opacity: 0.231;
      }

      .cls-3 {
        opacity: 0.427;
        mix-blend-mode: multiply;
      }

      .cls-11, .cls-3 {
        isolation: isolate;
      }

      .cls-4 {
        fill: url(#linear-gradient);
      }

      .cls-5 {
        fill: #fff;
      }

      .cls-6 {
        fill: url(#linear-gradient-2);
      }

      .cls-7 {
        fill: #dd0a59;
      }

      .cls-8 {
        fill: #b1c8ff;
      }

      .cls-9 {
        fill: #245ad9;
      }

      .cls-10 {
        fill: url(#linear-gradient-3);
      }

      .cls-11 {
        opacity: 0.1;
      }

      .cls-12 {
        fill: url(#linear-gradient-4);
      }

      .cls-13 {
        fill: url(#linear-gradient-5);
      }

      .cls-14 {
        fill: #091676;
      }

      .cls-15 {
        fill: #06286d;
      }

      .cls-16 {
        fill: url(#linear-gradient-7);
      }

      .cls-17 {
        fill: url(#linear-gradient-8);
      }

      .cls-18 {
        fill: #2c4257;
      }

      .cls-19 {
        fill: url(#linear-gradient-9);
      }

      .cls-20 {
        fill: #f09f4d;
      }

      .cls-21 {
        fill: url(#radial-gradient);
      }

      .cls-22 {
        fill: url(#linear-gradient-10);
      }

      .cls-23 {
        fill: #7a9ef5;
      }

      .cls-24 {
        fill: #6f0871;
      }

      .cls-25 {
        fill: #223998;
      }

      .cls-26 {
        fill: url(#linear-gradient-11);
      }

      .cls-27 {
        fill: url(#linear-gradient-12);
      }

      .cls-28 {
        fill: #5c8cff;
      }

      .cls-29 {
        fill: #3c6ad8;
      }

      .cls-30 {
        fill: #4c7ff9;
      }

      .cls-31 {
        opacity: 0.17;
      }

      .cls-32 {
        fill: #55d5d0;
      }

      .cls-33 {
        fill: #5cdc70;
      }

      .cls-34 {
        fill: url(#linear-gradient-13);
      }

      .cls-35 {
        fill: url(#linear-gradient-14);
      }

      .cls-36 {
        fill: url(#linear-gradient-15);
      }

      .cls-37 {
        fill: url(#linear-gradient-16);
      }

      .cls-38 {
        fill: url(#linear-gradient-17);
      }

      .cls-39 {
        fill: url(#linear-gradient-18);
      }

      .cls-40 {
        fill: url(#linear-gradient-20);
      }

      .cls-41 {
        opacity: 0.193;
      }

      .cls-42, .cls-43 {
        fill: none;
        stroke-miterlimit: 10;
        stroke-width: 0.2px;
      }

      .cls-42 {
        stroke: #376def;
      }

      .cls-43 {
        stroke: #245ad9;
      }

      .cls-44 {
        fill: #ffd8bb;
      }

      .cls-45 {
        fill: #efefef;
      }

      .cls-46 {
        fill: #3f3d56;
      }

      .cls-47 {
        fill: #010d26;
      }
    </style>
    <linearGradient id="linear-gradient" x1="0.055" x2="1.246" y2="0.909" gradientUnits="objectBoundingBox">
      <stop offset="0" stop-color="#0c43c7"/>
      <stop offset="1" stop-color="#ccdbff"/>
    </linearGradient>
    <linearGradient id="linear-gradient-2" x1="0.293" y1="0.409" x2="0.752" y2="0.652" gradientUnits="objectBoundingBox">
      <stop offset="0" stop-color="#6794ff"/>
      <stop offset="1" stop-color="#dee8ff"/>
    </linearGradient>
    <linearGradient id="linear-gradient-3" y1="0.5" x2="1" y2="0.5" gradientUnits="objectBoundingBox">
      <stop offset="0" stop-color="#1348c9"/>
      <stop offset="1" stop-color="#91b2ff"/>
    </linearGradient>
    <linearGradient id="linear-gradient-4" x1="0.5" x2="0.5" y2="1" gradientUnits="objectBoundingBox">
      <stop offset="0" stop-color="#5385fd"/>
      <stop offset="1" stop-color="#376def"/>
    </linearGradient>
    <linearGradient id="linear-gradient-5" x1="0" y1="0.5" x2="1" y2="0.5" xlink:href="#linear-gradient-4"/>
    <linearGradient id="linear-gradient-7" x1="0" y1="0.5" x2="1" y2="0.5" xlink:href="#linear-gradient-4"/>
    <linearGradient id="linear-gradient-8" x1="0.5" y1="1" x2="0.5" y2="0.269" gradientUnits="objectBoundingBox">
      <stop offset="0" stop-color="#53fdcf"/>
      <stop offset="1" stop-color="#37efe8"/>
    </linearGradient>
    <linearGradient id="linear-gradient-9" x1="-0.702" y1="0.5" x2="1" y2="0.5" gradientUnits="objectBoundingBox">
      <stop offset="0" stop-color="#2ca9c9"/>
      <stop offset="1" stop-color="#7dffd7"/>
    </linearGradient>
    <radialGradient id="radial-gradient" cx="0.342" cy="0.58" r="0.399" gradientTransform="translate(0 0)" gradientUnits="objectBoundingBox">
      <stop offset="0" stop-color="#ffd88c"/>
      <stop offset="1" stop-color="#f98e92"/>
    </radialGradient>
    <linearGradient id="linear-gradient-10" x1="0" y1="0.5" x2="1" y2="0.5" xlink:href="#linear-gradient-4"/>
    <linearGradient id="linear-gradient-11" y1="0.5" x2="1" y2="0.5" gradientUnits="objectBoundingBox">
      <stop offset="0" stop-color="#1b57f8"/>
      <stop offset="1" stop-color="#9bb8ff"/>
    </linearGradient>
    <linearGradient id="linear-gradient-12" y1="0.5" x2="1" y2="0.5" gradientUnits="objectBoundingBox">
      <stop offset="0" stop-color="#7dffd7"/>
      <stop offset="1" stop-color="#2ca9c9"/>
    </linearGradient>
    <linearGradient id="linear-gradient-13" x1="0.23" y1="0.5" x2="0.77" y2="0.5" gradientUnits="objectBoundingBox">
      <stop offset="0" stop-color="#d89ef5"/>
      <stop offset="1" stop-color="#eedeff"/>
    </linearGradient>
    <linearGradient id="linear-gradient-14" x1="0" y1="0.5" x2="1" y2="0.5" xlink:href="#linear-gradient-13"/>
    <linearGradient id="linear-gradient-15" x1="0.428" y1="0.5" x2="0.572" y2="0.5" xlink:href="#linear-gradient-13"/>
    <linearGradient id="linear-gradient-16" x1="0" y1="0.5" x2="1" y2="0.5" xlink:href="#linear-gradient-12"/>
    <linearGradient id="linear-gradient-17" x1="0" y1="0.5" x2="1" y2="0.5" xlink:href="#linear-gradient-12"/>
    <linearGradient id="linear-gradient-18" x1="0" y1="0.5" x2="1" y2="0.5" xlink:href="#linear-gradient-12"/>
    <linearGradient id="linear-gradient-20" x1="0" y1="0.5" x2="1" y2="0.5" xlink:href="#linear-gradient-12"/>
  </defs>
  <g id="组_4490" data-name="组 4490" transform="translate(-315.094 -287.868)">
    <g id="组_4241" data-name="组 4241" transform="translate(-36.947 298.86)">
      <path id="路径_1463" data-name="路径 1463" class="cls-1" d="M390.924,282.027l13.6-16.654H393.479Z" transform="translate(-23.642 -74.401)"/>
      <path id="路径_1464" data-name="路径 1464" class="cls-1" d="M379.722,251.677c-15.288,0-27.681,1.394-27.681,3.115s12.393,3.115,27.681,3.115,27.681-1.395,27.681-3.115S395.01,251.677,379.722,251.677Z" transform="translate(0 -66.074)"/>
      <g id="组_4240" data-name="组 4240" transform="translate(352.04 143.008)">
        <path id="路径_1465" data-name="路径 1465" class="cls-2" d="M410.123,187.439a7.275,7.275,0,0,0-1.971,2.112c-5.98,4.592-19.075,3.538-31.912-3.1-9.289-4.8-16.266-11.406-19.306-17.544-.032-.065-.269-.564-.351-.748-.027-.06-.254-.591-.333-.795-.014-.036-.391-1.079-.524-1.558-.011-.041-.132-.508-.174-.7-.013-.059-.025-.118-.038-.178q-.055-.262-.1-.522c-.01-.06-.078-.536-.1-.712-.005-.05-.011-.1-.016-.149-.02-.212-.033-.422-.04-.63a8.846,8.846,0,0,1,.548-3.481l-3.358,7.407.007,0c-2.491,7.665,6.315,19.254,20.558,26.622,14.916,7.714,30.172,7.885,34.224.425,0,.011-.007.023-.012.035Z" transform="translate(-352.04 -152.997)"/>
        <g id="组_4238" data-name="组 4238" class="cls-3" transform="translate(0.035 17.354)">
          <path id="路径_1466" data-name="路径 1466" class="cls-2" d="M410.177,204.369a7.275,7.275,0,0,0-1.971,2.112,14.728,14.728,0,0,1-7.279,2.629c-4.707,5.963-17.631,5.322-30.289-1.858-9.6-5.447-16.486-13.2-18.509-19.971.529,7.389,8.735,16.8,20.943,23.118,14.916,7.714,30.172,7.885,34.224.424,0,.011-.007.023-.012.035Z" transform="translate(-352.129 -187.281)"/>
        </g>
        <path id="路径_1467" data-name="路径 1467" class="cls-4" d="M395.469,148.917c-15.013-7.765-30.374-7.894-34.309-.286s5.049,20.065,20.065,27.83,30.37,7.89,34.306.286S410.482,156.682,395.469,148.917ZM413.7,175.8a6.378,6.378,0,0,1-1.658,2c-2.457,1.992-6.687,2.834-11.916,2.379a49.82,49.82,0,0,1-17.948-5.558c-6.981-3.606-12.806-8.349-16.408-13.343-3.262-4.527-4.273-8.788-2.768-11.7a6.3,6.3,0,0,1,1.658-2.007c2.453-1.991,6.683-2.838,11.912-2.379a49.886,49.886,0,0,1,17.948,5.555c6.981,3.61,12.806,8.349,16.408,13.35C414.19,168.625,415.2,172.89,413.7,175.8Z" transform="translate(-357.024 -143.008)"/>
        <path id="路径_1468" data-name="路径 1468" class="cls-5" d="M389.361,229.749a3.864,3.864,0,0,0-5.216,1.664l-8.333,16.218,6.861,3.558,8.346-16.244A3.864,3.864,0,0,0,389.361,229.749Z" transform="translate(-366.494 -195.485)"/>
        <path id="路径_1469" data-name="路径 1469" class="cls-6" d="M395.639,229.751a3.863,3.863,0,0,0-4.725.934c1.836-.847,4.39,1.094,3,3.142-1.944,2.868-6.744,13.7-7.778,15.9l2.814,1.459,8.346-16.244A3.864,3.864,0,0,0,395.639,229.751Z" transform="translate(-372.772 -195.486)"/>
        <path id="路径_1470" data-name="路径 1470" class="cls-7" d="M359.308,289.181c-.058.107-.107.214-.154.32l-.01.024c-.029.067.089-.156.305-.579-.01.016-.022.031-.032.048C359.376,289.057,359.342,289.119,359.308,289.181Z" transform="translate(-356.357 -231.742)"/>
        <path id="路径_1471" data-name="路径 1471" class="cls-8" d="M374.47,255.048c-3.324-1.745-7.136-1.1-8.783,1.4-.1.116-4.537,8.908-5.757,11.286,1.572-2.641,5.484-3.353,8.882-1.568,3.365,1.77,5,5.339,3.8,8.13l5.491-10.777c0-.008.011-.013.014-.021C379.6,260.668,377.967,256.885,374.47,255.048Z" transform="translate(-356.837 -210.534)"/>
        <g id="组_4239" data-name="组 4239" transform="translate(2.783 43.532)">
          <path id="路径_1472" data-name="路径 1472" class="cls-9" d="M383.891,255.049c-3.127-1.642-6.685-1.164-8.467.981a6.313,6.313,0,0,1,5.538.317c2.9,1.522,4.251,4.656,3.018,7,0,.007-.009.01-.012.017l-2.75,5.4a5.714,5.714,0,0,1,.81,5.533l5.491-10.777c0-.008.011-.013.014-.021C389.022,260.669,387.388,256.887,383.891,255.049Z" transform="translate(-369.041 -254.067)"/>
          <path id="路径_1473" data-name="路径 1473" class="cls-9" d="M359.308,289.181c-.058.107-.107.214-.154.32l-.01.024c-.029.067.089-.156.305-.579-.01.016-.022.031-.032.048C359.376,289.057,359.342,289.119,359.308,289.181Z" transform="translate(-359.14 -275.274)"/>
          <path id="路径_1474" data-name="路径 1474" class="cls-9" d="M361.165,281.881c-.519,1.021-.958,1.885-1.235,2.424,1.2-2.013,3.755-2.9,6.408-2.421A6.143,6.143,0,0,0,361.165,281.881Z" transform="translate(-359.62 -270.633)"/>
        </g>
        <path id="路径_1475" data-name="路径 1475" class="cls-10" d="M367.735,283.418c-3.419-1.8-7.361-1.066-8.914,1.616-.042.063-.076.125-.11.186-.058.107-.107.214-.154.32l-.01.025c-1.147,2.683.332,6.081,3.437,7.9.054.031.1.066.158.1a.081.081,0,0,1,.025.014c.062.034.123.064.185.1.082.044.165.088.251.128,0,0,.008,0,.012.007l.238.11c.02.01.04.016.057.026,3.3,1.453,6.936.639,8.39-1.941.028-.046.052-.087.076-.132.051-.095.1-.193.14-.292a.155.155,0,0,0,.013-.028C372.74,288.757,371.1,285.188,367.735,283.418Z" transform="translate(-355.762 -227.782)"/>
      </g>
    </g>
    <path id="路径_1335" data-name="路径 1335" class="cls-11" d="M182.145,105.665c.282-2.862,1.495-.692,1.692-2.074a3.058,3.058,0,0,1,.987-1.975,11.191,11.191,0,0,0-.987-3.752c-.378-.661-1.525-1.051-3.072-1.126,2.135-.1,3.788.305,4.257,1.126a11.191,11.191,0,0,1,.987,3.752,3.058,3.058,0,0,0-.987,1.975c-.2,1.382-1.41-.788-1.692,2.074-.239,2.426-3.681,4.214-5.807,3.86C179.549,109.246,181.946,107.676,182.145,105.665Z" transform="translate(242.53 287.125)"/>
    <g id="组_4410" data-name="组 4410" transform="translate(484.424 441.868)">
      <path id="路径_1640" data-name="路径 1640" class="cls-12" d="M1495.127,162.45v12.541c1.436-2.156,3.414-3.49,5.607-3.49,4.362,0,7.9,5.3,7.9,11.831,0,4.773-1.885,8.883-4.608,10.755h-2.082v-1.21h-4.933v11.23c9.21-1.08,16.392-9.966,16.392-20.775C1513.4,171.8,1505.221,162.45,1495.127,162.45Z" transform="translate(-1472.757 -145.941)"/>
      <rect id="矩形_1869" data-name="矩形 1869" class="cls-13" width="5.638" height="4.177" transform="translate(18.615 46.839)"/>
      <rect id="矩形_1870" data-name="矩形 1870" class="cls-14" width="22.841" height="2.088" transform="translate(8.55 44.883)"/>
      <path id="路径_1641" data-name="路径 1641" class="cls-13" d="M1503,201.142a2.944,2.944,0,0,0-1.1-.212h-.071a2.928,2.928,0,0,0-2.926,2.925v7.516h14.974l-9.946-9.62A2.93,2.93,0,0,0,1503,201.142Z" transform="translate(-1473.238 -150.837)"/>
      <path id="路径_1642" data-name="路径 1642" class="cls-15" d="M1515.02,215.286h-44.063a1.465,1.465,0,0,0-1.461,1.459v2.716h5.219a.631.631,0,0,1,.629-.627h35.289a.63.63,0,0,1,.442.184.615.615,0,0,1,.185.442h5.219v-2.716a1.46,1.46,0,0,0-1.459-1.459Z" transform="translate(-1469.497 -152.663)"/>
      <path id="路径_1643" data-name="路径 1643" class="cls-16" d="M1513.21,212.892h-39.676a1.033,1.033,0,0,0-.737.307,1.02,1.02,0,0,0-.309.738v1.044h41.765v-1.044a1.03,1.03,0,0,0-.308-.738A1.042,1.042,0,0,0,1513.21,212.892Z" transform="translate(-1469.878 -152.358)"/>
      <path id="路径_1644" data-name="路径 1644" class="cls-5" d="M1502.138,203.323a.835.835,0,1,0,.837.836A.835.835,0,0,0,1502.138,203.323Z" transform="translate(-1473.543 -151.141)"/>
      <rect id="矩形_1871" data-name="矩形 1871" class="cls-17" width="9.577" height="19.16" transform="translate(14.151 7.497)"/>
      <rect id="矩形_1872" data-name="矩形 1872" class="cls-14" width="6.802" height="5.966" transform="translate(15.538 26.657)"/>
      <rect id="矩形_1873" data-name="矩形 1873" class="cls-14" width="6.802" height="5.963" transform="translate(15.538 1.534)"/>
      <rect id="矩形_1874" data-name="矩形 1874" class="cls-18" width="7.664" height="1.534" transform="translate(15.107 0)"/>
      <g id="组_4408" data-name="组 4408" transform="translate(15.166 27.334)">
        <path id="路径_1645" data-name="路径 1645" class="cls-5" d="M1489.548,184.744a.958.958,0,0,0,.959.959h.957a.945.945,0,0,0,.677-.282.957.957,0,0,0,.282-.677v-3.831h-2.876Z" transform="translate(-1487.213 -175.624)"/>
        <g id="组_4407" data-name="组 4407">
          <path id="路径_1646" data-name="路径 1646" class="cls-19" d="M1486.873,177.1l7.605,3.044.773-1.937-8.378-3.351Z" transform="translate(-1486.873 -174.854)"/>
          <path id="路径_1647" data-name="路径 1647" class="cls-20" d="M1486.873,180.47h7.605l-7.605-3.042Z" transform="translate(-1486.873 -175.181)"/>
        </g>
      </g>
      <g id="组_4409" data-name="组 4409" transform="translate(19.426 10.847)">
        <path id="路径_1648" data-name="路径 1648" class="cls-14" d="M1496.056,155.963a4.3,4.3,0,1,0,4.3,4.3A4.3,4.3,0,0,0,1496.056,155.963Z" transform="translate(-1491.754 -155.963)"/>
        <path id="路径_1649" data-name="路径 1649" class="cls-21" d="M1496.418,158.814a1.814,1.814,0,1,0,1.814,1.814A1.815,1.815,0,0,0,1496.418,158.814Z" transform="translate(-1492.116 -156.326)"/>
      </g>
    </g>
    <g id="组_4486" data-name="组 4486" transform="translate(-1191.44 150.86)">
      <path id="路径_1676" data-name="路径 1676" class="cls-22" d="M1546.2,226.923a3.608,3.608,0,0,0,3.608,3.605h40.8v-7.211h-40.8A3.606,3.606,0,0,0,1546.2,226.923Z" transform="translate(33.769 88.611)"/>
      <path id="路径_1677" data-name="路径 1677" class="cls-8" d="M1599.735,207.31H1558.56l-1.325,13.725a7,7,0,0,0,2.014,5.62l13.074,13.1h39.915l-13.027-15.7Z" transform="translate(45.067 72.176)"/>
      <path id="路径_1678" data-name="路径 1678" class="cls-9" d="M1557.586,213.326h41.567l.188-6.017h-41.175Z" transform="translate(45.462 72.176)"/>
      <g id="组_4451" data-name="组 4451" transform="translate(1619.269 279.486)">
        <path id="路径_1679" data-name="路径 1679" class="cls-9" d="M1595.035,221.555l1.455-14.245h-7.241l-1.325,13.725a6.994,6.994,0,0,0,2.014,5.62l13.1,13.1h-33.847a3.6,3.6,0,0,0-3.6,3.605h0a3.605,3.605,0,0,0,3.6,3.605h34.374a6.986,6.986,0,0,0,6.85-5.573,7.266,7.266,0,0,0-2.116-6.57Z" transform="translate(-1565.59 -207.31)"/>
      </g>
      <path id="路径_1680" data-name="路径 1680" class="cls-9" d="M1726.312,137.013H1540.624a12.049,12.049,0,0,0-12.008,11l-10.342,118.488a12.053,12.053,0,0,0,12.008,13.1H1715.97a12.053,12.053,0,0,0,12.008-11.007l10.34-118.486A12.052,12.052,0,0,0,1726.312,137.013Z" transform="translate(5.053 0.005)"/>
      <path id="路径_1681" data-name="路径 1681" class="cls-23" d="M1722.153,137.008H1536.471a12.022,12.022,0,0,0-11.815,9.789c-.081.405-10.537,119.714-10.537,119.714a12.049,12.049,0,0,0,12.018,13.092h185.68a12.042,12.042,0,0,0,12.018-11l10.336-118.48A12.067,12.067,0,0,0,1722.153,137.008Z" transform="translate(0.789 0)"/>
      <path id="路径_1682" data-name="路径 1682" class="cls-24" d="M1718.505,140.574H1532.813A4.8,4.8,0,0,0,1528,144.99l-.616,7-9.732,111.484a4.856,4.856,0,0,0,4.833,5.267h185.692a4.8,4.8,0,0,0,4.815-4.416l9.815-112.335.533-6.149a4.856,4.856,0,0,0-4.834-5.267Z" transform="translate(4.443 3.661)"/>
      <path id="路径_1683" data-name="路径 1683" class="cls-25" d="M1718.5,140.573H1532.81a4.8,4.8,0,0,0-4.815,4.416l-10.349,118.486a4.857,4.857,0,0,0,4.834,5.265h185.693a4.8,4.8,0,0,0,4.815-4.416l10.348-118.484a4.86,4.86,0,0,0-4.832-5.267Z" transform="translate(4.44 3.66)"/>
      <g id="组_4463" data-name="组 4463" transform="translate(1531.825 144.235)">
        <path id="路径_1684" data-name="路径 1684" class="cls-26" d="M1713.567,140.574H1527.874a4.8,4.8,0,0,0-4.815,4.416l-.616,7h195.424l.533-6.149a4.856,4.856,0,0,0-4.834-5.267Z" transform="translate(-1522.443 -140.574)"/>
        <path id="路径_1685" data-name="路径 1685" class="cls-8" d="M1544.072,147.874h109.617l.618-5.953H1544.688Z" transform="translate(-1500.237 -139.191)"/>
        <g id="组_4462" data-name="组 4462" transform="translate(4.589 3.445)">
          <g id="组_4455" data-name="组 4455">
            <g id="组_4452" data-name="组 4452" transform="translate(0 0.305)">
              <path id="路径_1686" data-name="路径 1686" class="cls-5" d="M1525.607,142.543a.429.429,0,0,0-.628.58l3.739,4.1a.428.428,0,0,0,.628-.578Z" transform="translate(-1524.526 -142.424)"/>
              <path id="路径_1687" data-name="路径 1687" class="cls-5" d="M1529.307,142.543l-4.453,4.1a.393.393,0,1,0,.527.578l4.455-4.1a.419.419,0,0,0,.05-.58A.413.413,0,0,0,1529.307,142.543Z" transform="translate(-1524.707 -142.424)"/>
            </g>
            <g id="组_4453" data-name="组 4453" transform="translate(8.004)">
              <path id="路径_1688" data-name="路径 1688" class="cls-5" d="M1531.669,142.274a3.076,3.076,0,0,0-3,2.762,2.49,2.49,0,0,0,2.52,2.76,3.072,3.072,0,0,0,3-2.76A2.492,2.492,0,0,0,1531.669,142.274Zm-.427,4.9a1.927,1.927,0,0,1-1.95-2.134,2.381,2.381,0,0,1,2.321-2.136,1.929,1.929,0,0,1,1.95,2.136A2.377,2.377,0,0,1,1531.241,147.17Z" transform="translate(-1528.656 -142.274)"/>
            </g>
            <g id="组_4454" data-name="组 4454" transform="translate(15.936 4.461)">
              <path id="路径_1689" data-name="路径 1689" class="cls-5" d="M1537.887,144.475h-4.977a.346.346,0,0,0-.339.312.28.28,0,0,0,.284.312h4.978a.346.346,0,0,0,.338-.312A.279.279,0,0,0,1537.887,144.475Z" transform="translate(-1532.57 -144.475)"/>
            </g>
          </g>
          <g id="组_4457" data-name="组 4457" transform="translate(177.153 4.282)">
            <g id="组_4456" data-name="组 4456">
              <path id="路径_1690" data-name="路径 1690" class="cls-5" d="M1617.437,144.387h-4.978a.35.35,0,0,0-.34.312.284.284,0,0,0,.286.312h4.978a.349.349,0,0,0,.34-.312A.283.283,0,0,0,1617.437,144.387Z" transform="translate(-1612.118 -144.387)"/>
            </g>
          </g>
          <g id="组_4459" data-name="组 4459" transform="translate(177.313 2.448)">
            <g id="组_4458" data-name="组 4458">
              <path id="路径_1691" data-name="路径 1691" class="cls-5" d="M1617.516,143.482h-4.978a.351.351,0,0,0-.34.314.284.284,0,0,0,.286.312h4.977a.35.35,0,0,0,.341-.312A.284.284,0,0,0,1617.516,143.482Z" transform="translate(-1612.197 -143.482)"/>
            </g>
          </g>
          <g id="组_4461" data-name="组 4461" transform="translate(177.474 0.618)">
            <g id="组_4460" data-name="组 4460">
              <path id="路径_1692" data-name="路径 1692" class="cls-5" d="M1617.595,142.579h-4.975a.347.347,0,0,0-.341.31.282.282,0,0,0,.284.314h4.978a.351.351,0,0,0,.34-.314A.281.281,0,0,0,1617.595,142.579Z" transform="translate(-1612.277 -142.579)"/>
            </g>
          </g>
        </g>
      </g>
      <path id="路径_1693" data-name="路径 1693" class="cls-27" d="M1618.064,173.069h-47.377c-.651,0-1.218.837-1.265,1.86h0c-.044,1.023.45,1.86,1.1,1.86H1617.9c.649,0,1.218-.837,1.263-1.86h0C1619.209,173.906,1618.713,173.069,1618.064,173.069Z" transform="translate(57.611 37.022)"/>
      <path id="路径_1694" data-name="路径 1694" class="cls-28" d="M1606.68,179.875h-46.128a.987.987,0,0,0-.965.9.831.831,0,0,0,.837.9h46.133a.985.985,0,0,0,.963-.9A.831.831,0,0,0,1606.68,179.875Z" transform="translate(47.514 44.01)"/>
      <path id="路径_1695" data-name="路径 1695" class="cls-28" d="M1606.429,183.493H1560.3a.987.987,0,0,0-.965.9.831.831,0,0,0,.837.9H1606.3a.982.982,0,0,0,.963-.9A.832.832,0,0,0,1606.429,183.493Z" transform="translate(47.254 47.724)"/>
      <path id="路径_1696" data-name="路径 1696" class="cls-28" d="M1606.177,187.112h-46.131a.989.989,0,0,0-.965.9.834.834,0,0,0,.839.9h46.131a.983.983,0,0,0,.962-.9A.831.831,0,0,0,1606.177,187.112Z" transform="translate(46.994 51.44)"/>
      <path id="路径_1697" data-name="路径 1697" class="cls-28" d="M1605.924,190.731h-46.133a.985.985,0,0,0-.962.9.831.831,0,0,0,.837.9H1605.8a.987.987,0,0,0,.964-.9A.834.834,0,0,0,1605.924,190.731Z" transform="translate(46.735 55.155)"/>
      <path id="路径_1698" data-name="路径 1698" class="cls-28" d="M1586.038,194.351h-9.2a.985.985,0,0,0-.965.9.832.832,0,0,0,.837.9h9.2a.986.986,0,0,0,.965-.9A.83.83,0,0,0,1586.038,194.351Z" transform="translate(64.232 58.872)"/>
      <path id="路径_1699" data-name="路径 1699" class="cls-28" d="M1578.109,194.351h-9.2a.983.983,0,0,0-.963.9.83.83,0,0,0,.837.9h9.2a.983.983,0,0,0,.962-.9A.83.83,0,0,0,1578.109,194.351Z" transform="translate(56.095 58.872)"/>
      <path id="路径_1700" data-name="路径 1700" class="cls-28" d="M1570.184,194.351h-9.2a.979.979,0,0,0-.963.9.831.831,0,0,0,.837.9h9.2a.98.98,0,0,0,.96-.9A.827.827,0,0,0,1570.184,194.351Z" transform="translate(47.958 58.872)"/>
      <path id="路径_1701" data-name="路径 1701" class="cls-29" d="M1605.419,197.97h-46.131a.985.985,0,0,0-.965.9.832.832,0,0,0,.841.9h46.129a.982.982,0,0,0,.963-.9A.829.829,0,0,0,1605.419,197.97Z" transform="translate(46.216 62.587)"/>
      <g id="组_4464" data-name="组 4464" transform="translate(1667.93 221.844)">
        <path id="路径_1702" data-name="路径 1702" class="cls-30" d="M1618.362,188.258H1599.6a1.451,1.451,0,0,0-1.421,1.33,1.225,1.225,0,0,0,1.234,1.327h18.767a1.45,1.45,0,0,0,1.421-1.327A1.225,1.225,0,0,0,1618.362,188.258Z" transform="translate(-1580.799 -169.228)"/>
        <path id="路径_1703" data-name="路径 1703" class="cls-30" d="M1618.582,185.128h-18.765a1.453,1.453,0,0,0-1.422,1.329,1.228,1.228,0,0,0,1.236,1.33H1618.4a1.452,1.452,0,0,0,1.423-1.33A1.227,1.227,0,0,0,1618.582,185.128Z" transform="translate(-1580.575 -172.441)"/>
        <path id="路径_1704" data-name="路径 1704" class="cls-30" d="M1618.8,182h-18.763a1.451,1.451,0,0,0-1.422,1.327,1.228,1.228,0,0,0,1.236,1.331h18.765a1.453,1.453,0,0,0,1.423-1.331A1.226,1.226,0,0,0,1618.8,182Z" transform="translate(-1580.35 -175.655)"/>
        <path id="路径_1705" data-name="路径 1705" class="cls-30" d="M1619.019,178.868h-18.765a1.453,1.453,0,0,0-1.423,1.33,1.228,1.228,0,0,0,1.238,1.329h18.763a1.454,1.454,0,0,0,1.425-1.329A1.229,1.229,0,0,0,1619.019,178.868Z" transform="translate(-1580.127 -178.868)"/>
        <path id="路径_1706" data-name="路径 1706" class="cls-30" d="M1597.208,178.868h-5.7a1.454,1.454,0,0,0-1.423,1.33,1.229,1.229,0,0,0,1.239,1.329h5.7a1.452,1.452,0,0,0,1.423-1.329A1.228,1.228,0,0,0,1597.208,178.868Z" transform="translate(-1589.105 -178.868)"/>
        <path id="路径_1707" data-name="路径 1707" class="cls-30" d="M1596.723,185.789h-5.7a1.451,1.451,0,0,0-1.422,1.327,1.228,1.228,0,0,0,1.236,1.331h5.7a1.454,1.454,0,0,0,1.422-1.331A1.227,1.227,0,0,0,1596.723,185.789Z" transform="translate(-1589.6 -171.763)"/>
      </g>
      <g id="组_4465" data-name="组 4465" class="cls-31" transform="translate(1513.072 137.008)">
        <path id="路径_1708" data-name="路径 1708" class="cls-5" d="M1514.072,190.7l54.275,56.808h22.9l-75.228-79.241Z" transform="translate(-1514.072 -104.914)"/>
        <path id="路径_1709" data-name="路径 1709" class="cls-5" d="M1531,137.008a12.021,12.021,0,0,0-11.815,9.789L1644.415,279.6H1705.4l-134.387-142.6Z" transform="translate(-1508.82 -137.008)"/>
        <path id="路径_1710" data-name="路径 1710" class="cls-5" d="M1592.875,137.008q28.232,28.232,56.464,56.465l.662-7.582-45.458-48.883Z" transform="translate(-1433.169 -137.008)"/>
        <path id="路径_1711" data-name="路径 1711" class="cls-5" d="M1571.973,137.008l94.846,101.982,2.6-29.7-72.279-72.279Z" transform="translate(-1454.629 -137.008)"/>
      </g>
      <g id="组_4471" data-name="组 4471" transform="translate(1555.15 167.256)">
        <g id="组_4466" data-name="组 4466" transform="translate(0 0.051)">
          <path id="路径_1712" data-name="路径 1712" class="cls-32" d="M1590.361,172.511c-4.937,6.025-10.028,8.9-15.145,8.573-7.995-.527-14.152-8.617-17.111-13.39a34.7,34.7,0,0,0-22.216-15.713,1.672,1.672,0,0,0-.537,3.3,31.9,31.9,0,0,1,19.91,14.172c5.695,9.187,12.7,14.5,19.735,14.967.349.02.7.032,1.042.032,5.879,0,11.564-3.3,16.91-9.821a1.673,1.673,0,0,0-2.588-2.122Z" transform="translate(-1533.952 -151.958)"/>
        </g>
        <g id="组_4467" data-name="组 4467" transform="translate(24.919 0.656)">
          <path id="路径_1713" data-name="路径 1713" class="cls-32" d="M1619.429,172.2c-4.939,6.025-10.034,8.9-15.147,8.573-8-.527-14.152-8.617-17.111-13.39-5.729-9.246-13.4-14.752-21.032-15.109-6.988-.349-13.573,3.51-19.549,11.4a1.671,1.671,0,0,0,2.665,2.019c5.273-6.964,10.914-10.356,16.728-10.083,6.425.3,13.281,5.359,18.345,13.53,5.695,9.187,12.7,14.5,19.735,14.967.346.02.693.032,1.04.032,5.883,0,11.566-3.3,16.912-9.821a1.673,1.673,0,0,0-2.586-2.122Z" transform="translate(-1546.248 -152.256)"/>
        </g>
        <g id="组_4468" data-name="组 4468" transform="translate(66.263 0.655)">
          <path id="路径_1714" data-name="路径 1714" class="cls-32" d="M1638.9,172.2c-4.937,6.025-10.034,8.9-15.147,8.573-7.993-.527-14.152-8.617-17.109-13.39-5.651-9.114-13.214-14.616-20.751-15.095-6.725-.434-13.066,3-18.873,10.162a1.671,1.671,0,1,0,2.6,2.1c5.089-6.272,10.492-9.272,16.063-8.927,6.35.4,13.123,5.454,18.12,13.518,5.693,9.187,12.7,14.5,19.734,14.967.349.02.7.032,1.042.032,5.881,0,11.566-3.3,16.91-9.821a1.672,1.672,0,1,0-2.586-2.122Z" transform="translate(-1566.648 -152.256)"/>
        </g>
        <g id="组_4469" data-name="组 4469" transform="translate(0.574 19.142)">
          <path id="路径_1715" data-name="路径 1715" class="cls-32" d="M1552.018,161.932c-.085.1-8.615,9.5-16.173,9.77a1.672,1.672,0,0,0,.059,3.342.6.6,0,0,0,.061,0c8.962-.316,18.153-10.443,18.542-10.875a1.673,1.673,0,0,0-2.489-2.235Z" transform="translate(-1534.235 -161.378)"/>
        </g>
        <g id="组_4470" data-name="组 4470" transform="translate(106.927)">
          <path id="路径_1716" data-name="路径 1716" class="cls-32" d="M1605.681,151.935c-8.959.318-18.156,10.445-18.542,10.877a1.672,1.672,0,1,0,2.489,2.233c.085-.1,8.615-9.5,16.171-9.77a1.671,1.671,0,1,0-.118-3.34Z" transform="translate(-1586.712 -151.933)"/>
        </g>
      </g>
      <g id="组_4472" data-name="组 4472" transform="translate(1585.47 172.456)">
        <path id="路径_1717" data-name="路径 1717" class="cls-33" d="M1549.971,158.416a1.057,1.057,0,0,0-1.058,1.058v4.809a1.057,1.057,0,1,0,2.114,0v-4.809A1.056,1.056,0,0,0,1549.971,158.416Z" transform="translate(-1548.913 -150.478)"/>
        <path id="路径_1718" data-name="路径 1718" class="cls-33" d="M1551.911,156.479a1.055,1.055,0,0,0-1.056,1.056V170.2a1.057,1.057,0,1,0,2.114,0V157.535A1.057,1.057,0,0,0,1551.911,156.479Z" transform="translate(-1546.919 -152.466)"/>
        <path id="路径_1719" data-name="路径 1719" class="cls-33" d="M1553.853,155.249a1.059,1.059,0,0,0-1.058,1.058v17.646a1.057,1.057,0,0,0,2.114,0V156.307A1.056,1.056,0,0,0,1553.853,155.249Z" transform="translate(-1544.927 -153.729)"/>
        <path id="路径_1720" data-name="路径 1720" class="cls-33" d="M1561.615,158.416a1.057,1.057,0,0,0-1.056,1.058v4.809a1.057,1.057,0,1,0,2.114,0v-4.809A1.057,1.057,0,0,0,1561.615,158.416Z" transform="translate(-1536.956 -150.478)"/>
        <path id="路径_1721" data-name="路径 1721" class="cls-33" d="M1559.676,156.479a1.057,1.057,0,0,0-1.058,1.056V170.2a1.057,1.057,0,1,0,2.114,0V157.535A1.055,1.055,0,0,0,1559.676,156.479Z" transform="translate(-1538.949 -152.466)"/>
        <path id="路径_1722" data-name="路径 1722" class="cls-33" d="M1557.734,155.249a1.054,1.054,0,0,0-1.056,1.058v17.646a1.057,1.057,0,0,0,2.114,0V156.307A1.057,1.057,0,0,0,1557.734,155.249Z" transform="translate(-1540.941 -153.729)"/>
        <path id="路径_1723" data-name="路径 1723" class="cls-33" d="M1555.793,154.5a1.056,1.056,0,0,0-1.056,1.058v20.686a1.057,1.057,0,0,0,2.114,0V155.557A1.057,1.057,0,0,0,1555.793,154.5Z" transform="translate(-1542.934 -154.499)"/>
      </g>
      <g id="组_4473" data-name="组 4473" transform="translate(1626.188 172.456)">
        <path id="路径_1724" data-name="路径 1724" class="cls-33" d="M1570.062,158.416a1.057,1.057,0,0,0-1.058,1.058v4.809a1.057,1.057,0,1,0,2.114,0v-4.809A1.056,1.056,0,0,0,1570.062,158.416Z" transform="translate(-1569.004 -150.478)"/>
        <path id="路径_1725" data-name="路径 1725" class="cls-33" d="M1572,156.479a1.055,1.055,0,0,0-1.056,1.056V170.2a1.057,1.057,0,1,0,2.114,0V157.535A1.057,1.057,0,0,0,1572,156.479Z" transform="translate(-1567.011 -152.466)"/>
        <path id="路径_1726" data-name="路径 1726" class="cls-33" d="M1573.942,155.249a1.056,1.056,0,0,0-1.056,1.058v17.646a1.057,1.057,0,0,0,2.114,0V156.307A1.056,1.056,0,0,0,1573.942,155.249Z" transform="translate(-1565.019 -153.729)"/>
        <path id="路径_1727" data-name="路径 1727" class="cls-33" d="M1581.706,158.416a1.056,1.056,0,0,0-1.056,1.058v4.809a1.057,1.057,0,1,0,2.114,0v-4.809A1.057,1.057,0,0,0,1581.706,158.416Z" transform="translate(-1557.047 -150.478)"/>
        <path id="路径_1728" data-name="路径 1728" class="cls-33" d="M1579.766,156.479a1.058,1.058,0,0,0-1.057,1.056V170.2a1.058,1.058,0,1,0,2.116,0V157.535A1.057,1.057,0,0,0,1579.766,156.479Z" transform="translate(-1559.041 -152.466)"/>
        <path id="路径_1729" data-name="路径 1729" class="cls-33" d="M1577.824,155.249a1.056,1.056,0,0,0-1.056,1.058v17.646a1.057,1.057,0,0,0,2.114,0V156.307A1.057,1.057,0,0,0,1577.824,155.249Z" transform="translate(-1561.033 -153.729)"/>
        <path id="路径_1730" data-name="路径 1730" class="cls-33" d="M1575.884,154.5a1.059,1.059,0,0,0-1.058,1.058v20.686a1.057,1.057,0,0,0,2.114,0V155.557A1.056,1.056,0,0,0,1575.884,154.5Z" transform="translate(-1563.027 -154.499)"/>
      </g>
      <g id="组_4474" data-name="组 4474" transform="translate(1666.214 172.456)">
        <path id="路径_1731" data-name="路径 1731" class="cls-33" d="M1589.812,158.416a1.057,1.057,0,0,0-1.058,1.058v4.809a1.057,1.057,0,1,0,2.114,0v-4.809A1.056,1.056,0,0,0,1589.812,158.416Z" transform="translate(-1588.754 -150.478)"/>
        <path id="路径_1732" data-name="路径 1732" class="cls-33" d="M1591.751,156.479a1.055,1.055,0,0,0-1.056,1.056V170.2a1.057,1.057,0,1,0,2.114,0V157.535A1.057,1.057,0,0,0,1591.751,156.479Z" transform="translate(-1586.761 -152.466)"/>
        <path id="路径_1733" data-name="路径 1733" class="cls-33" d="M1593.692,155.249a1.056,1.056,0,0,0-1.056,1.058v17.646a1.057,1.057,0,0,0,2.114,0V156.307A1.056,1.056,0,0,0,1593.692,155.249Z" transform="translate(-1584.768 -153.729)"/>
        <path id="路径_1734" data-name="路径 1734" class="cls-33" d="M1601.456,158.416a1.056,1.056,0,0,0-1.056,1.058v4.809a1.057,1.057,0,1,0,2.113,0v-4.809A1.057,1.057,0,0,0,1601.456,158.416Z" transform="translate(-1576.798 -150.478)"/>
        <path id="路径_1735" data-name="路径 1735" class="cls-33" d="M1599.516,156.479a1.058,1.058,0,0,0-1.058,1.056V170.2a1.058,1.058,0,1,0,2.116,0V157.535A1.057,1.057,0,0,0,1599.516,156.479Z" transform="translate(-1578.791 -152.466)"/>
        <path id="路径_1736" data-name="路径 1736" class="cls-33" d="M1597.574,155.249a1.055,1.055,0,0,0-1.056,1.058v17.646a1.057,1.057,0,0,0,2.114,0V156.307A1.057,1.057,0,0,0,1597.574,155.249Z" transform="translate(-1580.783 -153.729)"/>
        <path id="路径_1737" data-name="路径 1737" class="cls-33" d="M1595.634,154.5a1.059,1.059,0,0,0-1.058,1.058v20.686a1.057,1.057,0,0,0,2.114,0V155.557A1.056,1.056,0,0,0,1595.634,154.5Z" transform="translate(-1582.777 -154.499)"/>
      </g>
      <g id="组_4475" data-name="组 4475" transform="translate(1556.896 172.456)">
        <path id="路径_1738" data-name="路径 1738" class="cls-33" d="M1541.693,158.416a1.056,1.056,0,0,0-1.056,1.058v4.809a1.057,1.057,0,1,0,2.114,0v-4.809A1.057,1.057,0,0,0,1541.693,158.416Z" transform="translate(-1528.835 -150.478)"/>
        <path id="路径_1739" data-name="路径 1739" class="cls-33" d="M1539.752,156.479a1.055,1.055,0,0,0-1.056,1.056V170.2a1.056,1.056,0,1,0,2.112,0V157.535A1.055,1.055,0,0,0,1539.752,156.479Z" transform="translate(-1530.828 -152.466)"/>
        <path id="路径_1740" data-name="路径 1740" class="cls-33" d="M1537.813,155.249a1.056,1.056,0,0,0-1.058,1.058v17.646a1.057,1.057,0,0,0,2.114,0V156.307A1.056,1.056,0,0,0,1537.813,155.249Z" transform="translate(-1532.821 -153.729)"/>
        <path id="路径_1741" data-name="路径 1741" class="cls-33" d="M1535.87,154.5a1.055,1.055,0,0,0-1.056,1.058v20.686a1.057,1.057,0,0,0,2.114,0V155.557A1.058,1.058,0,0,0,1535.87,154.5Z" transform="translate(-1534.814 -154.499)"/>
      </g>
      <g id="组_4476" data-name="组 4476" transform="translate(1573.313 208.867)">
        <rect id="矩形_1884" data-name="矩形 1884" class="cls-34" width="25.388" height="0.75" transform="translate(0 21.771) rotate(-59.042)"/>
      </g>
      <g id="组_4477" data-name="组 4477" transform="translate(1543.507 219.598)">
        <path id="路径_1742" data-name="路径 1742" class="cls-35" d="M1528.207,178.454l26.659,10.994.285-.695-26.659-10.994Z" transform="translate(-1528.207 -177.76)"/>
      </g>
      <g id="组_4478" data-name="组 4478" transform="translate(1569.928 236.147)">
        <rect id="矩形_1885" data-name="矩形 1885" class="cls-36" width="19.15" height="0.75" transform="matrix(0.105, -0.994, 0.994, 0.105, 0, 19.044)"/>
      </g>
      <g id="组_4484" data-name="组 4484" transform="translate(1543.03 207.581)">
        <g id="组_4479" data-name="组 4479" transform="translate(26.685 49.161)">
          <path id="路径_1743" data-name="路径 1743" class="cls-5" d="M1541.822,196.245a.376.376,0,1,0-.612.436l.217.3a.375.375,0,1,0,.612-.436Z" transform="translate(-1541.139 -196.087)"/>
        </g>
        <g id="组_4480" data-name="组 4480" transform="translate(1.35 13.545)">
          <path id="路径_1744" data-name="路径 1744" class="cls-5" d="M1539.189,192.545a.376.376,0,1,0-.612.436l.444.624a.372.372,0,0,0,.306.156.368.368,0,0,0,.219-.069.373.373,0,0,0,.087-.521Z" transform="translate(-1518.505 -164.271)"/>
          <path id="路径_1745" data-name="路径 1745" class="cls-5" d="M1529.321,178.67a.377.377,0,0,0-.614.436l.446.624a.372.372,0,0,0,.3.158.39.39,0,0,0,.221-.069.378.378,0,0,0,.087-.525Z" transform="translate(-1528.638 -178.514)"/>
          <path id="路径_1746" data-name="路径 1746" class="cls-5" d="M1529.977,179.6a.375.375,0,0,0-.612.434l.446.626a.377.377,0,0,0,.523.087.38.38,0,0,0,.089-.525Z" transform="translate(-1527.962 -177.564)"/>
          <path id="路径_1747" data-name="路径 1747" class="cls-5" d="M1531.293,181.446a.375.375,0,1,0-.61.436l.442.626a.386.386,0,0,0,.308.156.374.374,0,0,0,.3-.592Z" transform="translate(-1526.611 -175.665)"/>
          <path id="路径_1748" data-name="路径 1748" class="cls-5" d="M1530.634,180.52a.376.376,0,0,0-.612.436l.446.624a.375.375,0,1,0,.612-.434Z" transform="translate(-1527.287 -176.614)"/>
          <path id="路径_1749" data-name="路径 1749" class="cls-5" d="M1539.847,193.47a.377.377,0,0,0-.614.436l.446.624a.375.375,0,0,0,.309.158.363.363,0,0,0,.216-.071.374.374,0,0,0,.087-.523Z" transform="translate(-1517.829 -163.321)"/>
          <path id="路径_1750" data-name="路径 1750" class="cls-5" d="M1541.163,195.318a.38.38,0,0,0-.525-.087.374.374,0,0,0-.087.523l.444.626a.373.373,0,0,0,.306.158.388.388,0,0,0,.217-.069.378.378,0,0,0,.089-.525Z" transform="translate(-1516.479 -161.422)"/>
          <path id="路径_1751" data-name="路径 1751" class="cls-5" d="M1538.532,191.619a.379.379,0,0,0-.525-.087.374.374,0,0,0-.087.523l.446.626a.375.375,0,0,0,.61-.436Z" transform="translate(-1519.181 -165.22)"/>
          <path id="路径_1752" data-name="路径 1752" class="cls-5" d="M1540.5,194.4a.37.37,0,0,0-.521-.087.374.374,0,0,0-.089.523l.444.624a.372.372,0,0,0,.306.158.383.383,0,0,0,.217-.069.375.375,0,0,0,.089-.525Z" transform="translate(-1517.154 -162.371)"/>
          <path id="路径_1753" data-name="路径 1753" class="cls-5" d="M1536.555,188.844a.376.376,0,0,0-.523-.087.38.38,0,0,0-.089.525l.446.622a.379.379,0,0,0,.306.158.374.374,0,0,0,.219-.069.38.38,0,0,0,.089-.525Z" transform="translate(-1521.208 -168.069)"/>
          <path id="路径_1754" data-name="路径 1754" class="cls-5" d="M1535.9,187.92a.376.376,0,0,0-.612.438l.444.622a.379.379,0,0,0,.306.158.383.383,0,0,0,.219-.069.378.378,0,0,0,.089-.523Z" transform="translate(-1521.883 -169.019)"/>
          <path id="路径_1755" data-name="路径 1755" class="cls-5" d="M1537.215,189.77a.376.376,0,0,0-.612.436l.444.626a.376.376,0,1,0,.612-.438Z" transform="translate(-1520.531 -167.119)"/>
          <path id="路径_1756" data-name="路径 1756" class="cls-5" d="M1531.951,182.371a.375.375,0,1,0-.61.436l.444.626a.374.374,0,0,0,.306.156.364.364,0,0,0,.217-.071.371.371,0,0,0,.087-.521Z" transform="translate(-1525.936 -174.715)"/>
          <path id="路径_1757" data-name="路径 1757" class="cls-5" d="M1537.873,190.695a.376.376,0,1,0-.612.436l.446.626a.375.375,0,0,0,.61-.438Z" transform="translate(-1519.856 -166.169)"/>
          <path id="路径_1758" data-name="路径 1758" class="cls-5" d="M1535.241,187a.376.376,0,1,0-.612.436l.446.624a.376.376,0,0,0,.3.158.357.357,0,0,0,.217-.071.374.374,0,0,0,.089-.523Z" transform="translate(-1522.559 -169.967)"/>
          <path id="路径_1759" data-name="路径 1759" class="cls-5" d="M1534.583,186.071a.374.374,0,0,0-.523-.089.378.378,0,0,0-.089.525l.444.624a.376.376,0,1,0,.612-.436Z" transform="translate(-1523.234 -170.917)"/>
          <path id="路径_1760" data-name="路径 1760" class="cls-5" d="M1532.609,183.3a.376.376,0,0,0-.612.436l.446.624a.376.376,0,0,0,.612-.436Z" transform="translate(-1525.26 -173.766)"/>
          <path id="路径_1761" data-name="路径 1761" class="cls-5" d="M1533.267,184.221a.376.376,0,0,0-.612.436l.446.624a.37.37,0,0,0,.3.158.374.374,0,0,0,.219-.069.378.378,0,0,0,.087-.525Z" transform="translate(-1524.585 -172.816)"/>
          <path id="路径_1762" data-name="路径 1762" class="cls-5" d="M1533.925,185.144a.375.375,0,0,0-.525-.085.371.371,0,0,0-.085.521l.443.626a.37.37,0,0,0,.306.158.387.387,0,0,0,.217-.069.376.376,0,0,0,.087-.525Z" transform="translate(-1523.909 -171.867)"/>
        </g>
        <g id="组_4481" data-name="组 4481" transform="translate(0 11.892)">
          <path id="路径_1763" data-name="路径 1763" class="cls-5" d="M1528.855,177.71l-.883.237.531.748a.552.552,0,1,0,.352-.985Z" transform="translate(-1527.972 -177.698)"/>
        </g>
        <g id="组_4482" data-name="组 4482" transform="translate(2.023 0.476)">
          <path id="路径_1764" data-name="路径 1764" class="cls-5" d="M1545.7,173.2l-.708.191a.375.375,0,0,0,.1.738.382.382,0,0,0,.1-.012l.709-.188a.378.378,0,0,0,.267-.462A.384.384,0,0,0,1545.7,173.2Z" transform="translate(-1512.808 -170.907)"/>
          <path id="路径_1765" data-name="路径 1765" class="cls-5" d="M1529.958,177.429l-.707.19a.375.375,0,0,0,.1.738.484.484,0,0,0,.095-.012l.712-.193a.375.375,0,1,0-.195-.724Z" transform="translate(-1528.97 -166.57)"/>
          <path id="路径_1766" data-name="路径 1766" class="cls-5" d="M1531.006,177.148l-.709.19a.375.375,0,0,0,.1.738.42.42,0,0,0,.1-.012l.709-.19a.376.376,0,0,0,.263-.46A.373.373,0,0,0,1531.006,177.148Z" transform="translate(-1527.893 -166.86)"/>
          <path id="路径_1767" data-name="路径 1767" class="cls-5" d="M1533.109,176.583l-.71.191a.376.376,0,0,0,.1.74.391.391,0,0,0,.1-.014l.709-.189a.376.376,0,0,0-.192-.728Z" transform="translate(-1525.738 -167.438)"/>
          <path id="路径_1768" data-name="路径 1768" class="cls-5" d="M1546.75,172.924l-.709.191a.376.376,0,0,0,.1.738.4.4,0,0,0,.1-.014l.71-.191a.375.375,0,1,0-.194-.724Z" transform="translate(-1511.73 -171.197)"/>
          <path id="路径_1769" data-name="路径 1769" class="cls-5" d="M1549.9,172.077l-.709.193a.374.374,0,0,0,.1.736.549.549,0,0,0,.1-.01l.708-.193a.375.375,0,0,0-.193-.726Z" transform="translate(-1508.498 -172.065)"/>
          <path id="路径_1770" data-name="路径 1770" class="cls-5" d="M1548.851,172.359l-.711.188a.382.382,0,0,0-.266.462.376.376,0,0,0,.363.278.319.319,0,0,0,.1-.012l.712-.191a.374.374,0,0,0,.263-.46A.381.381,0,0,0,1548.851,172.359Z" transform="translate(-1509.575 -171.775)"/>
          <path id="路径_1771" data-name="路径 1771" class="cls-5" d="M1547.8,172.641l-.709.191a.376.376,0,0,0,.1.738.4.4,0,0,0,.1-.012l.709-.191a.376.376,0,1,0-.2-.726Z" transform="translate(-1510.653 -171.486)"/>
          <path id="路径_1772" data-name="路径 1772" class="cls-5" d="M1534.156,176.3l-.708.19a.375.375,0,0,0,.1.738.4.4,0,0,0,.1-.012l.709-.19a.376.376,0,0,0,.266-.46A.383.383,0,0,0,1534.156,176.3Z" transform="translate(-1524.66 -167.726)"/>
          <path id="路径_1773" data-name="路径 1773" class="cls-5" d="M1532.057,176.865l-.709.191a.375.375,0,0,0,.1.738.4.4,0,0,0,.1-.012l.709-.188a.377.377,0,0,0-.194-.728Z" transform="translate(-1526.815 -167.149)"/>
          <path id="路径_1774" data-name="路径 1774" class="cls-5" d="M1541.5,174.33l-.709.19a.375.375,0,0,0,.193.726l.709-.188a.378.378,0,0,0,.267-.46A.382.382,0,0,0,1541.5,174.33Z" transform="translate(-1517.118 -169.751)"/>
          <path id="路径_1775" data-name="路径 1775" class="cls-5" d="M1540.453,174.612l-.707.191a.376.376,0,0,0,.1.74.543.543,0,0,0,.1-.014l.709-.191a.372.372,0,0,0,.266-.46A.381.381,0,0,0,1540.453,174.612Z" transform="translate(-1518.195 -169.462)"/>
          <path id="路径_1776" data-name="路径 1776" class="cls-5" d="M1542.552,174.049l-.711.19a.375.375,0,0,0,.1.738.411.411,0,0,0,.1-.012l.712-.193a.375.375,0,0,0-.2-.723Z" transform="translate(-1516.041 -170.04)"/>
          <path id="路径_1777" data-name="路径 1777" class="cls-5" d="M1544.653,173.486l-.711.188a.376.376,0,0,0,.1.74.4.4,0,0,0,.1-.012l.709-.191a.375.375,0,0,0-.193-.726Z" transform="translate(-1513.885 -170.618)"/>
          <path id="路径_1778" data-name="路径 1778" class="cls-5" d="M1543.6,173.769l-.707.19a.375.375,0,0,0,.1.738.324.324,0,0,0,.1-.014l.707-.19a.375.375,0,1,0-.195-.724Z" transform="translate(-1514.963 -170.329)"/>
          <path id="路径_1779" data-name="路径 1779" class="cls-5" d="M1538.354,175.175l-.71.193a.375.375,0,0,0,.1.738.323.323,0,0,0,.1-.014l.709-.191a.376.376,0,0,0-.194-.726Z" transform="translate(-1520.35 -168.884)"/>
          <path id="路径_1780" data-name="路径 1780" class="cls-5" d="M1537.306,175.457l-.71.191a.375.375,0,0,0,.1.738.389.389,0,0,0,.1-.012l.711-.188a.377.377,0,0,0-.194-.728Z" transform="translate(-1521.428 -168.594)"/>
          <path id="路径_1781" data-name="路径 1781" class="cls-5" d="M1536.253,175.738l-.708.191a.379.379,0,0,0-.266.462.374.374,0,0,0,.363.276.4.4,0,0,0,.1-.01l.709-.19a.377.377,0,0,0-.2-.728Z" transform="translate(-1522.505 -168.306)"/>
          <path id="路径_1782" data-name="路径 1782" class="cls-5" d="M1539.405,174.894l-.711.19a.375.375,0,0,0,.1.738.427.427,0,0,0,.1-.012l.708-.193a.374.374,0,0,0-.193-.724Z" transform="translate(-1519.273 -169.173)"/>
          <path id="路径_1783" data-name="路径 1783" class="cls-5" d="M1535.2,176.022l-.707.188a.376.376,0,0,0,.1.74.314.314,0,0,0,.1-.014l.709-.191a.375.375,0,1,0-.195-.723Z" transform="translate(-1523.583 -168.016)"/>
        </g>
        <g id="组_4483" data-name="组 4483" transform="translate(44.564)">
          <path id="路径_1784" data-name="路径 1784" class="cls-5" d="M1550.6,171.842l-.365.1a.375.375,0,0,0,.1.738.416.416,0,0,0,.1-.014l.363-.1a.375.375,0,0,0-.193-.726Z" transform="translate(-1549.961 -171.83)"/>
        </g>
      </g>
      <path id="路径_1785" data-name="路径 1785" class="cls-37" d="M1543.081,195.065a3.253,3.253,0,1,0,3.253,3.253A3.253,3.253,0,0,0,1543.081,195.065Z" transform="translate(27.228 59.605)"/>
      <path id="路径_1786" data-name="路径 1786" class="cls-38" d="M1550.9,171.179a1.926,1.926,0,1,0,1.927,1.927A1.926,1.926,0,0,0,1550.9,171.179Z" transform="translate(36.622 35.082)"/>
      <path id="路径_1787" data-name="路径 1787" class="cls-39" d="M1544.857,182.147a4.2,4.2,0,1,0,4.2,4.2A4.2,4.2,0,0,0,1544.857,182.147Z" transform="translate(28.08 46.342)"/>
      <g id="组_4485" data-name="组 4485" transform="translate(1543.274 219.571)">
        <path id="路径_1788" data-name="路径 1788" class="cls-5" d="M1535.8,178.362l-.748-.063a.389.389,0,0,0-.405.343.373.373,0,0,0,.342.405l.748.063.03,0a.376.376,0,0,0,.032-.75Z" transform="translate(-1521.365 -177.179)"/>
        <path id="路径_1789" data-name="路径 1789" class="cls-5" d="M1534.695,178.267l-.75-.061a.375.375,0,1,0-.063.748l.745.063h.035a.376.376,0,0,0,.032-.75Z" transform="translate(-1522.503 -177.275)"/>
        <path id="路径_1790" data-name="路径 1790" class="cls-5" d="M1533.583,178.177l-.747-.065a.385.385,0,0,0-.406.343.372.372,0,0,0,.342.405l.748.065h.034a.375.375,0,0,0,.028-.748Z" transform="translate(-1523.64 -177.371)"/>
        <path id="路径_1791" data-name="路径 1791" class="cls-5" d="M1536.906,178.454l-.747-.061a.388.388,0,0,0-.406.34.378.378,0,0,0,.342.407l.75.063h.033a.371.371,0,0,0,.371-.343A.376.376,0,0,0,1536.906,178.454Z" transform="translate(-1520.228 -177.083)"/>
        <path id="路径_1792" data-name="路径 1792" class="cls-5" d="M1538.015,178.55l-.748-.065a.383.383,0,0,0-.406.343.376.376,0,0,0,.343.407l.75.063.031,0a.376.376,0,0,0,.03-.75Z" transform="translate(-1519.09 -176.989)"/>
        <path id="路径_1793" data-name="路径 1793" class="cls-5" d="M1532.477,178.082l-.748-.063a.386.386,0,0,0-.407.342.376.376,0,0,0,.342.405l.75.063.031,0a.376.376,0,0,0,.032-.75Z" transform="translate(-1524.777 -177.467)"/>
        <path id="路径_1794" data-name="路径 1794" class="cls-5" d="M1529.058,177.794l-.559-.047a.383.383,0,0,0-.4.342.374.374,0,0,0,.342.405l.557.047.035,0a.376.376,0,0,0,.03-.75Z" transform="translate(-1528.092 -177.746)"/>
        <path id="路径_1795" data-name="路径 1795" class="cls-5" d="M1530.261,177.9l-.748-.063a.384.384,0,0,0-.405.343.373.373,0,0,0,.342.405l.748.063.032,0a.376.376,0,0,0,.03-.75Z" transform="translate(-1527.051 -177.659)"/>
        <path id="路径_1796" data-name="路径 1796" class="cls-5" d="M1531.369,177.987l-.748-.061a.383.383,0,0,0-.405.343.375.375,0,0,0,.343.405l.748.061.032,0a.376.376,0,0,0,.03-.75Z" transform="translate(-1525.913 -177.562)"/>
        <path id="路径_1797" data-name="路径 1797" class="cls-5" d="M1551.308,179.671l-.748-.065a.389.389,0,0,0-.405.342.375.375,0,0,0,.341.407l.75.063h.032a.375.375,0,0,0,.031-.748Z" transform="translate(-1505.443 -175.837)"/>
        <path id="路径_1798" data-name="路径 1798" class="cls-5" d="M1539.123,178.642l-.748-.063a.38.38,0,0,0-.405.342.371.371,0,0,0,.342.405l.748.065.032,0a.377.377,0,0,0,.031-.752Z" transform="translate(-1517.953 -176.892)"/>
        <path id="路径_1799" data-name="路径 1799" class="cls-5" d="M1550.2,179.576l-.748-.063a.389.389,0,0,0-.4.343.374.374,0,0,0,.342.405l.748.063.033,0a.376.376,0,0,0,.03-.75Z" transform="translate(-1506.581 -175.933)"/>
        <path id="路径_1800" data-name="路径 1800" class="cls-5" d="M1547.986,179.389l-.75-.063a.383.383,0,0,0-.405.342.375.375,0,0,0,.344.405l.748.065.032,0a.377.377,0,0,0,.031-.752Z" transform="translate(-1508.856 -176.125)"/>
        <path id="路径_1801" data-name="路径 1801" class="cls-5" d="M1549.093,179.481l-.75-.061a.384.384,0,0,0-.4.342.375.375,0,0,0,.343.405l.748.061.03,0a.376.376,0,0,0,.032-.75Z" transform="translate(-1507.717 -176.028)"/>
        <path id="路径_1802" data-name="路径 1802" class="cls-5" d="M1554.631,179.95l-.748-.063a.373.373,0,0,0-.405.343.378.378,0,0,0,.342.405l.748.061.032,0a.375.375,0,0,0,.031-.748Z" transform="translate(-1502.031 -175.549)"/>
        <path id="路径_1803" data-name="路径 1803" class="cls-5" d="M1553.525,179.856l-.75-.063a.375.375,0,0,0-.063.748l.748.063.032,0a.376.376,0,0,0,.033-.75Z" transform="translate(-1503.169 -175.646)"/>
        <path id="路径_1804" data-name="路径 1804" class="cls-5" d="M1552.416,179.764l-.75-.063a.375.375,0,0,0-.063.748l.75.063.032,0a.378.378,0,0,0,.373-.345A.373.373,0,0,0,1552.416,179.764Z" transform="translate(-1504.306 -175.742)"/>
        <path id="路径_1805" data-name="路径 1805" class="cls-5" d="M1546.877,179.3l-.748-.063a.376.376,0,0,0-.063.75l.748.061.034,0a.376.376,0,0,0,.028-.75Z" transform="translate(-1509.992 -176.22)"/>
        <path id="路径_1806" data-name="路径 1806" class="cls-5" d="M1541.338,178.828l-.748-.061a.375.375,0,0,0-.406.34.38.38,0,0,0,.345.407l.746.061.032,0a.376.376,0,0,0,.03-.75Z" transform="translate(-1515.678 -176.699)"/>
        <path id="路径_1807" data-name="路径 1807" class="cls-5" d="M1545.771,179.2l-.75-.063a.382.382,0,0,0-.405.342.375.375,0,0,0,.341.405l.752.063.03,0a.376.376,0,0,0,.033-.75Z" transform="translate(-1511.13 -176.316)"/>
        <path id="路径_1808" data-name="路径 1808" class="cls-5" d="M1542.448,178.924l-.75-.065a.387.387,0,0,0-.405.342.375.375,0,0,0,.343.407l.748.063.032,0a.376.376,0,0,0,.033-.75Z" transform="translate(-1514.541 -176.604)"/>
        <path id="路径_1809" data-name="路径 1809" class="cls-5" d="M1540.232,178.736l-.748-.063a.375.375,0,1,0-.065.748l.748.063h.032a.375.375,0,0,0,.032-.748Z" transform="translate(-1516.816 -176.796)"/>
        <path id="路径_1810" data-name="路径 1810" class="cls-5" d="M1543.554,179.014l-.748-.061a.381.381,0,0,0-.405.342.374.374,0,0,0,.343.405l.748.063.032,0a.377.377,0,0,0,.031-.752Z" transform="translate(-1513.404 -176.508)"/>
        <path id="路径_1811" data-name="路径 1811" class="cls-5" d="M1544.661,179.109l-.748-.063a.385.385,0,0,0-.405.342.375.375,0,0,0,.343.405l.75.063.032,0a.376.376,0,0,0,.028-.75Z" transform="translate(-1512.268 -176.412)"/>
      </g>
      <path id="路径_1812" data-name="路径 1812" class="cls-37" d="M1556.331,178.5a3.255,3.255,0,1,0,3.253,3.255A3.255,3.255,0,0,0,1556.331,178.5Z" transform="translate(40.832 42.594)"/>
      <path id="路径_1813" data-name="路径 1813" class="cls-40" d="M1529.255,176.981a1.926,1.926,0,1,0,1.925,1.925A1.926,1.926,0,0,0,1529.255,176.981Z" transform="translate(14.395 41.039)"/>
    </g>
    <g id="组_4489" data-name="组 4489" transform="translate(-25.178 45.974)">
      <g id="组_4488" data-name="组 4488" transform="translate(403 435.044)">
        <ellipse id="椭圆_70" data-name="椭圆 70" class="cls-41" cx="28.33" cy="4.546" rx="28.33" ry="4.546" transform="translate(7.083 39.641)"/>
        <ellipse id="椭圆_71" data-name="椭圆 71" class="cls-42" cx="28.33" cy="4.546" rx="28.33" ry="4.546" transform="translate(9.302 36.998)"/>
        <path id="路径_1324" data-name="路径 1324" class="cls-43" d="M5.9,455.457a4.859,4.859,0,0,0-4.188,2.928c-1.047,2.532.3,5.505,2.325,7.351s4.624,2.9,6.987,4.288a18.727,18.727,0,0,1,7.613,7.768,11.493,11.493,0,0,1-.11,10.6c-1.732,2.943-4.882,4.705-7.886,6.33" transform="translate(-1.064 -453.88)"/>
        <ellipse id="椭圆_77" data-name="椭圆 77" class="cls-15" cx="3.7" cy="1.797" rx="3.7" ry="1.797" transform="translate(3.806 0)"/>
        <ellipse id="椭圆_78" data-name="椭圆 78" class="cls-15" cx="3.7" cy="1.797" rx="3.7" ry="1.797" transform="translate(6.765 11.84)"/>
        <ellipse id="椭圆_79" data-name="椭圆 79" class="cls-15" cx="3.7" cy="1.797" rx="3.7" ry="1.797" transform="translate(0 13.742)"/>
        <ellipse id="椭圆_80" data-name="椭圆 80" class="cls-15" cx="3.7" cy="1.797" rx="3.7" ry="1.797" transform="translate(10.571 23.679)"/>
        <ellipse id="椭圆_81" data-name="椭圆 81" class="cls-15" cx="3.7" cy="1.797" rx="3.7" ry="1.797" transform="translate(17.971 23.679)"/>
      </g>
      <g id="组_4487" data-name="组 4487" transform="translate(419.214 361.848)">
        <path id="路径_1325" data-name="路径 1325" class="cls-44" d="M243.383,268.346s.423,3.171-.634,4.44S240,282.511,240,282.511v5.074s6.554-9.514,7.823-13.319a10.225,10.225,0,0,0,0-6.765Z" transform="translate(-205.474 -231.394)"/>
        <path id="路径_1326" data-name="路径 1326" class="cls-45" d="M236.44,197.5l.089.1a13.413,13.413,0,0,1,2.528,4.183c1.388,3.686,4.371,12.771,3.3,13.687a12.326,12.326,0,0,1-5.92,1.9c-.211-.211-4.44-13.319-4.44-13.319Z" transform="translate(-199.165 -176.194)"/>
        <path id="路径_1327" data-name="路径 1327" class="cls-46" d="M217.375,615.4s5.074,1.057,5.285,0a8.467,8.467,0,0,1,.634-1.9s4.6.192,3.4,4.224a1.687,1.687,0,0,1-.738.952c-1.1.67-3.675,2.251-4.986,3.07-.985.616-2.4.156-3.411-.336a1.824,1.824,0,0,1-.985-2Z" transform="translate(-186.971 -504.243)"/>
        <path id="路径_1328" data-name="路径 1328" class="cls-46" d="M116,618.4s-5.074,1.057-5.285,0a8.467,8.467,0,0,0-.634-1.9s-4.59.191-3.4,4.212a1.712,1.712,0,0,0,.752.97c1.1.674,3.669,2.247,4.976,3.064,1.079.674,2.673.058,3.687-.476a1.471,1.471,0,0,0,.762-1.589Z" transform="translate(-100.183 -506.609)"/>
        <path id="路径_1329" data-name="路径 1329" class="cls-44" d="M102.837,281.346s-.423,3.171.634,4.44,2.748,6.131,2.748,6.131v5.074s-6.554-5.92-7.823-9.725a10.225,10.225,0,0,1,0-6.765Z" transform="translate(-93.364 -241.646)"/>
        <circle id="椭圆_82" data-name="椭圆 82" class="cls-44" cx="5.285" cy="5.285" r="5.285" transform="translate(18.987 3.124)"/>
        <path id="路径_1330" data-name="路径 1330" class="cls-44" d="M178.38,143.346s-1.48,6.765,0,7.611-8.88,0-8.88,0,2.326-5.708,1.269-7.611S178.38,143.346,178.38,143.346Z" transform="translate(-149.879 -132.822)"/>
        <path id="路径_1331" data-name="路径 1331" class="cls-15" d="M145.727,358.8S147.63,361.547,147,370s-1.269,17.336-1.269,17.336,4.651,26.639,3.171,27.273-6.343,1.268-6.977.634-3.594-25.37-3.594-25.37l-2.748-20.3-4.228,23.256s-2.326,22.622-4.017,23.679c-1.209.756-3.607.215-4.876-.155a1.1,1.1,0,0,1-.8-1.108c.155-3.558.851-17.6,2.5-26.222,1.9-9.937-1.9-29.81,1.48-30.233S145.727,358.8,145.727,358.8Z" transform="translate(-112.152 -303.243)"/>
        <path id="路径_1332" data-name="路径 1332" class="cls-45" d="M125.81,165.76s.846-3.806,4.017-3.383,5.285.211,5.92,2.326,7.4,3.806,7.4,3.806,1.691.211,1.48,2.96-4.44,12.9-4.44,12.9.211,8.457,1.269,12.262,11.855,30.166,9.53,31.223-40.568,1.116-43.95-3.535c0,0,10.953-24.728,12.222-27.477s-.211-13.531-.211-13.531l-4.017-8.88s1.269-4.228,4.863-5.5A21.523,21.523,0,0,0,125.81,165.76Z" transform="translate(-107.035 -148.471)"/>
        <path id="路径_1333" data-name="路径 1333" class="cls-45" d="M101.776,210.5l-1.691,1.9s-5.074,12.474-3.594,13.742a12.326,12.326,0,0,0,5.92,1.9c.211-.211,3.806-10.994,3.806-10.994Z" transform="translate(-92.092 -186.445)"/>
        <path id="路径_1334" data-name="路径 1334" class="cls-47" d="M171.882,101.962a3.274,3.274,0,0,0-1.057,2.114c-.211,1.48-1.51-.843-1.812,2.221s-5.376,5.179-7.279,3.7-5.074-10.782-.634-12.262,8.88-1.269,9.725.211A11.982,11.982,0,0,1,171.882,101.962Z" transform="translate(-141.478 -96.723)"/>
      </g>
    </g>
  </g>
</svg>
