<svg xmlns="http://www.w3.org/2000/svg" width="9.536" height="11.736" viewBox="0 0 9.536 11.736">
  <defs>
    <style>
      .cls-1 {
        fill: #d7e2fc;
      }

      .cls-2 {
        fill: #376def;
      }
    </style>
  </defs>
  <g id="组_4493" data-name="组 4493" transform="translate(-624.431 -366.532)">
    <path id="路径_1818" data-name="路径 1818" class="cls-1" d="M-.031.413H7.381l-.37,6.6H0Z" transform="translate(626.485 370.992)"/>
    <path id="路径_1819" data-name="路径 1819" class="cls-1" d="M3,0A2.926,2.926,0,0,1,5.7,3.184C5.7,4.84,6.061,6.029,3,6S0,4.657,0,3A3,3,0,0,1,3,0Z" transform="translate(627 367)"/>
    <g id="组_4492" data-name="组 4492" transform="translate(716.431 324.532)">
      <path id="路径_1815" data-name="路径 1815" class="cls-2" d="M-83.2,46.4h-.367v-.734A3.668,3.668,0,0,0-87.232,42,3.668,3.668,0,0,0-90.9,45.668V46.4h-.367a.734.734,0,0,0-.734.734V53a.734.734,0,0,0,.734.734H-83.2A.734.734,0,0,0-82.464,53V47.135A.734.734,0,0,0-83.2,46.4Zm-6.968-.734a2.938,2.938,0,0,1,2.934-2.934A2.938,2.938,0,0,1-84.3,45.668V46.4h-5.868ZM-83.2,53h-8.069V47.135H-83.2Zm0,0" transform="translate(0 0)"/>
      <path id="路径_1816" data-name="路径 1816" class="cls-2" d="M177.168,445.2a.366.366,0,0,0-.367.367v2.2a.367.367,0,0,0,.734,0v-2.2a.366.366,0,0,0-.367-.367Zm0,0" transform="translate(-264.4 -396.597)"/>
    </g>
  </g>
</svg>
