<svg xmlns="http://www.w3.org/2000/svg" width="12" height="15.526" viewBox="0 0 12 15.526">
  <defs>
    <style>
      .cls-1 {
        fill: #376DEF;
      }
    </style>
  </defs>
  <path id="密码" class="cls-1" d="M175.955,69.661h-1.384a3.862,3.862,0,1,0-7.724,0h-1.383a5.246,5.246,0,1,1,10.491,0M175.955,69.661Zm.817,2.273a1.384,1.384,0,0,0-1.383-1.384h-9.233a1.384,1.384,0,0,0-1.383,1.384V78.5a1.383,1.383,0,0,0,1.383,1.383h9.233a1.383,1.383,0,0,0,1.383-1.383V71.934m-4.889,5.134a1.037,1.037,0,0,1-1.038,1.038H170.7a1.038,1.038,0,0,1-1.037-1.038V74.254a1.037,1.037,0,0,1,1.038-1.037h.147a1.037,1.037,0,0,1,1.037,1.038v2.813M171.883,77.068Z" transform="translate(-164.772 -64.358)"/>
</svg>
