<svg xmlns="http://www.w3.org/2000/svg" width="10.166" height="10.801" viewBox="0 0 10.166 10.801">
  <defs>
    <style>
      .cls-1, .cls-2 {
        fill: #376def;
      }

      .cls-2 {
        opacity: 0.202;
      }
    </style>
  </defs>
  <g id="组_4494" data-name="组 4494" transform="translate(-624.116 -297)">
    <g id="组_4491" data-name="组 4491" transform="translate(796.116 291)">
      <path id="路径_1814" data-name="路径 1814" class="cls-1" d="M-165.38,11.956a3.173,3.173,0,0,0,1.64-2.779A3.176,3.176,0,0,0-166.917,6a3.176,3.176,0,0,0-3.177,3.177,3.173,3.173,0,0,0,1.64,2.779A5.084,5.084,0,0,0-172,16.8h.635a4.448,4.448,0,0,1,4.447-4.447A4.448,4.448,0,0,1-162.47,16.8h.635a5.084,5.084,0,0,0-3.546-4.845Zm-4.078-2.779a2.542,2.542,0,0,1,2.541-2.541,2.542,2.542,0,0,1,2.541,2.541,2.542,2.542,0,0,1-2.541,2.541,2.542,2.542,0,0,1-2.541-2.541Zm0,0"/>
    </g>
    <circle id="椭圆_171" data-name="椭圆 171" class="cls-2" cx="2.5" cy="2.5" r="2.5" transform="translate(627 298)"/>
    <path id="减去_4" data-name="减去 4" class="cls-2" d="M-7873.075,5248.776h-7.85A4.028,4.028,0,0,1-7881,5248a4,4,0,0,1,4-4,4,4,0,0,1,4,4,4.03,4.03,0,0,1-.075.774Z" transform="translate(8507 -4941)"/>
  </g>
</svg>
