<svg xmlns="http://www.w3.org/2000/svg" width="12" height="13" viewBox="0 0 12 13">
  <defs>
    <style>
      .cls-1 {
        fill: #376DEF;
      }
    </style>
  </defs>
  <path id="用户名" class="cls-1" d="M206.016,161.78c3.382.527,4.356,2.818,4.356,3.651,0,1.139-4.132,1.41-6,1.41s-6-.271-6-1.41c0-.818.962-3.154,4.343-3.65.216-.032.5-.694.316-.816a4.494,4.494,0,0,1-1.96-4.018,3.307,3.307,0,0,1,6.6,0,4.574,4.574,0,0,1-2.008,4.025C205.492,161.087,205.8,161.747,206.016,161.78Z" transform="translate(-198.372 -153.842)"/>
</svg>
