<svg xmlns="http://www.w3.org/2000/svg" width="14" height="14" viewBox="0 0 14 14">
  <defs>
    <style>
      .cls-1 {
        fill: #3BB8B0;
      }
    </style>
  </defs>
  <g id="住院报告" transform="translate(-105 -63.8)">
    <path id="路径_900" data-name="路径 900" class="cls-1" d="M117.6,63.8H106.4a1.342,1.342,0,0,0-1.4,1.273V76.527a1.342,1.342,0,0,0,1.4,1.273h11.2a1.342,1.342,0,0,0,1.4-1.273V65.073A1.342,1.342,0,0,0,117.6,63.8Zm0,12.725H106.4V65.072h11.2Z" transform="translate(0 0)"/>
    <path id="路径_901" data-name="路径 901" class="cls-1" d="M289.556,229.943h.837v-1.216h1.256v-.81h-1.256V226.7h-.837v1.216H288.3v.81h1.256Zm6.908,2.026h-7.118a.607.607,0,1,0,0,1.214h7.118a.607.607,0,1,0,0-1.214Zm0,3.243h-7.118a.607.607,0,1,0,0,1.214h7.118a.607.607,0,1,0,0-1.214Zm-3.246-6.079h3.559c.173,0,.315-.273.315-.607s-.14-.607-.315-.607h-3.559c-.173,0-.315.273-.315.607S293.045,229.132,293.218,229.132Z" transform="translate(-180.735 -161.191)"/>
  </g>
</svg>
