<svg xmlns="http://www.w3.org/2000/svg" width="20" height="20" viewBox="0 0 20 20">
  <defs>
    <style>
      .cls-1 {
        fill: none;
      }
      .cls-2 {
        fill: #3BB8B0;
      }
    </style>
  </defs>
  <g id="Group_131" data-name="Group 131" transform="translate(20) rotate(90)">
    <rect id="Rectangle_44_Copy_3" data-name="Rectangle 44 Copy 3" class="cls-1" width="20" height="20"/>
    <g id="fork" transform="translate(2.155 0)">
      <path id="Shape" class="cls-2" d="M7.845,20A2.562,2.562,0,0,1,5.23,17.5a2.531,2.531,0,0,1,1.879-2.4V12.983L1.863,7.967l.006-.005V4.9A2.532,2.532,0,0,1,0,2.5,2.562,2.562,0,0,1,2.615,0,2.563,2.563,0,0,1,5.23,2.5,2.53,2.53,0,0,1,3.34,4.9V7.391l4.5,4.3,4.5-4.3V4.9a2.533,2.533,0,0,1-1.88-2.4,2.618,2.618,0,0,1,5.23,0,2.532,2.532,0,0,1-1.88,2.4V7.961l.006.005L8.58,12.973V15.1a2.532,2.532,0,0,1,1.88,2.4A2.562,2.562,0,0,1,7.845,20Zm0-3.594A1.095,1.095,0,1,0,8.989,17.5,1.121,1.121,0,0,0,7.845,16.406Zm5.23-15A1.121,1.121,0,0,0,11.931,2.5a1.145,1.145,0,0,0,2.288,0A1.121,1.121,0,0,0,13.075,1.406Zm-10.461,0A1.121,1.121,0,0,0,1.471,2.5,1.121,1.121,0,0,0,2.615,3.594,1.122,1.122,0,0,0,3.759,2.5,1.121,1.121,0,0,0,2.615,1.406Z"/>
    </g>
  </g>
</svg>
