<svg xmlns="http://www.w3.org/2000/svg" width="15" height="15.085" viewBox="0 0 15 15.085">
  <defs>
    <style>
      .cls-1 {
        fill: #666;
      }
    </style>
  </defs>
  <g id="Group_56" data-name="Group 56" transform="translate(1 -4.454)">
    <g id="close" transform="translate(4.452 4.454)">
      <path id="Shape" class="cls-1" d="M8.8,7.543l5.934-5.967a.924.924,0,0,0,0-1.3.91.91,0,0,0-1.295,0L7.5,6.238,1.564.271a.91.91,0,0,0-1.295,0,.924.924,0,0,0,0,1.3L6.2,7.541.269,13.511a.924.924,0,0,0,0,1.3.912.912,0,0,0,1.295,0L7.5,8.846l5.936,5.97a.912.912,0,0,0,1.295,0,.924.924,0,0,0,0-1.3Z" transform="translate(-5.451)"/>
    </g>
  </g>
</svg>
