<svg xmlns="http://www.w3.org/2000/svg" width="16" height="16" viewBox="0 0 16 16">
  <defs>
    <style>
      .cls-1 {
        fill: #3BB8B0;
      }
    </style>
  </defs>
  <path id="清除" class="cls-1" d="M61.655,56.314,55.7,62.273a.583.583,0,0,1-.825-.825l5.958-5.959a.583.583,0,0,1,.825.825Zm8.257,8.256-5.958,5.959a.583.583,0,0,1-.825-.825l5.958-5.959a.583.583,0,1,1,.825.825Zm-8.275.036-1.8,1.8a.583.583,0,0,1-.825-.825l1.8-1.8a.583.583,0,0,1,.825.825Zm-2.672-1.676-1.306,1.306a.583.583,0,0,1-.825-.825L58.14,62.1a.583.583,0,0,1,.825.825Zm4.318,4.322-1.306,1.306a.583.583,0,0,1-.825-.825l1.306-1.306a.583.583,0,0,1,.825.825Zm-.156,3.278-8.254-8.253a.583.583,0,0,1,.825-.825l8.254,8.256a.582.582,0,1,1-.825.822ZM66.554,67.1,58.3,58.848a.583.583,0,0,1,.825-.825l8.251,8.256a.582.582,0,0,1-.822.825Zm3.151-9.52L67.821,55.7a.583.583,0,0,1,.825-.825l1.884,1.887a.583.583,0,0,1-.825.825Zm-5.687,1.911-3.181-3.181a.583.583,0,1,1,.825-.825l3.184,3.184a.581.581,0,0,1,0,.825.588.588,0,0,1-.828,0Zm5.071,5.071-3.181-3.181a.583.583,0,0,1,.825-.825l3.184,3.184a.581.581,0,0,1,0,.825.587.587,0,0,1-.828,0Zm1.438-6.983-3.8,3.8a.583.583,0,0,1-.825-.825l3.8-3.8a.583.583,0,0,1,.825.825ZM68.642,55.7l-3.8,3.8a.583.583,0,1,1-.825-.825l3.8-3.8a.583.583,0,0,1,.825.825Z" transform="translate(-54.701 -54.701)"/>
</svg>
