<svg id="Group_13" data-name="Group 13" xmlns="http://www.w3.org/2000/svg" width="20" height="20" viewBox="0 0 20 20">
  <defs>
    <style>
      .cls-1 {
        fill: none;
      }
      .cls-2 {
        fill: #3BB8B0;
      }
    </style>
  </defs>
  <rect id="Rectangle_16" data-name="Rectangle 16" class="cls-1" width="20" height="20"/>
  <g id="eye" transform="translate(1.186 3.496)">
    <path id="Shape" class="cls-2" d="M8.815,13.01a9.967,9.967,0,0,1-4.5-.983,8.013,8.013,0,0,1-2.7-2.186A9.139,9.139,0,0,1,.408,7.723,7.105,7.105,0,0,1,0,6.508V6.5A6.815,6.815,0,0,1,.407,5.287,9.046,9.046,0,0,1,1.613,3.164,8.077,8.077,0,0,1,4.312.98,9.95,9.95,0,0,1,8.813,0a9.952,9.952,0,0,1,4.5.979,8.024,8.024,0,0,1,2.7,2.185,9.044,9.044,0,0,1,1.209,2.121A7.025,7.025,0,0,1,17.631,6.5V6.51a7.023,7.023,0,0,1-.408,1.213,9.015,9.015,0,0,1-1.209,2.121,8.058,8.058,0,0,1-2.7,2.183A9.958,9.958,0,0,1,8.815,13.01Zm0-9.906A3.385,3.385,0,1,0,12.2,6.488,3.389,3.389,0,0,0,8.813,3.1Zm0,5.377A1.992,1.992,0,1,1,10.221,7.9,1.982,1.982,0,0,1,8.813,8.48Z" transform="translate(0)"/>
  </g>
</svg>
