<svg xmlns="http://www.w3.org/2000/svg" width="20" height="24" viewBox="0 0 20 24">
  <defs>
    <style>
      .cls-1 {
        fill: #666;
      }
    </style>
  </defs>
  <path id="notice" data-name="notice" class="cls-1" d="M96.227,19.589l-2.1-3.623a2.2,2.2,0,0,1-.3-1.1V9.541a7.552,7.552,0,0,0-5.42-7.228c0-.054.007-.105.007-.159a2.167,2.167,0,0,0-4.334,0c0,.052,0,.1,0,.15a7.554,7.554,0,0,0-5.453,7.24v5.52a2.185,2.185,0,0,1-.29,1.09L76.376,19.6a1.051,1.051,0,0,0-.076.281.982.982,0,0,0,.984.977h5.342a3.688,3.688,0,0,0,7.295,0h5.385a.99.99,0,0,0,.994-.987.536.536,0,0,0-.073-.284ZM86.276,1.123a1.041,1.041,0,0,1,1.039.952,7.7,7.7,0,0,0-2.075-.009,1.036,1.036,0,0,1,1.036-.942ZM86.255,22.9A2.614,2.614,0,0,1,83.7,20.859h5.113A2.616,2.616,0,0,1,86.255,22.9Zm7.731-3.178H78.613a.569.569,0,0,1-.5-.851L79.482,16.5a2.191,2.191,0,0,0,.3-1.1V9.48a6.464,6.464,0,0,1,12.927,0v5.684a2.192,2.192,0,0,0,.288,1.088l1.492,2.616A.57.57,0,0,1,93.986,19.72Z" transform="translate(-76.301)"/>
</svg>
