<svg xmlns="http://www.w3.org/2000/svg" width="16" height="16" viewBox="0 0 16 16">
  <defs>
    <style>
      .cls-1 {
        fill: #999;
      }
    </style>
  </defs>
  <path id="数据维护" class="cls-1" d="M118.717,105.731a2.164,2.164,0,0,1,.643,1.55V118.9a2.195,2.195,0,0,1-2.193,2.193H105.553a2.195,2.195,0,0,1-2.193-2.193V107.281a2.195,2.195,0,0,1,2.193-2.193h11.615A2.174,2.174,0,0,1,118.717,105.731Zm-9.876,8.351a1.008,1.008,0,0,0-.248-.7.954.954,0,0,0-.745-.274,1.071,1.071,0,0,0-.779.274.721.721,0,0,0-.2.7V116.6a.942.942,0,0,0,.283.694.952.952,0,0,0,.7.283.925.925,0,0,0,.694-.283,1.02,1.02,0,0,0,.291-.694v-2.518Zm3.392-4.5a.942.942,0,0,0-.283-.694.952.952,0,0,0-.7-.283.925.925,0,0,0-.694.283,1.02,1.02,0,0,0-.291.694V116.6a1.029,1.029,0,0,0,.291.694.927.927,0,0,0,.694.283.954.954,0,0,0,.7-.283.942.942,0,0,0,.283-.694Zm3.512,3.408a.93.93,0,0,0-.342-.7,1.135,1.135,0,0,0-.754-.274.9.9,0,0,0-.685.274.787.787,0,0,0-.188.7V116.6a.942.942,0,0,0,.283.694.952.952,0,0,0,.7.283.925.925,0,0,0,.694-.283,1.02,1.02,0,0,0,.291-.694v-3.615Z" transform="translate(-103.36 -105.088)"/>
</svg>
