<svg id="Group_40" data-name="Group 40" xmlns="http://www.w3.org/2000/svg" width="24" height="24" viewBox="0 0 24 24">
  <defs>
    <style>
      .cls-1 {
        fill: none;
      }

      .cls-2 {
        fill: #999;
      }
    </style>
  </defs>
  <rect id="Rectangle_35_Copy_9" data-name="Rectangle 35 Copy 9" class="cls-1" width="24" height="24"/>
  <g id="star" transform="translate(1.487 1.502)">
    <path id="Shape" class="cls-2" d="M20.919,7.838A2.024,2.024,0,0,0,19.3,6.473L14.5,5.74,12.352,1.17a2.031,2.031,0,0,0-3.68,0L6.526,5.74l-4.8.734A2.032,2.032,0,0,0,.58,9.9l3.532,3.621-.834,5.109A2.037,2.037,0,0,0,5.286,21a2.047,2.047,0,0,0,.984-.255L10.513,18.4l4.242,2.346a2.03,2.03,0,0,0,2.536-.464,2.027,2.027,0,0,0,.457-1.643l-.834-5.109L20.445,9.9A2.033,2.033,0,0,0,20.919,7.838Z"/>
  </g>
</svg>
