<svg xmlns="http://www.w3.org/2000/svg" width="16" height="16" viewBox="0 0 16 16">
  <defs>
    <style>
      .cls-1 {
        fill: #333;
      }
    </style>
  </defs>
  <g id="门诊" transform="translate(-111.02 -111.021)">
    <path id="路径_898" data-name="路径 898" class="cls-1" d="M119.02,127.021a1.666,1.666,0,0,1-1.178-.49l-6.337-6.335a1.673,1.673,0,0,1,0-2.355l6.337-6.335a1.674,1.674,0,0,1,2.356,0l6.337,6.335a1.673,1.673,0,0,1,0,2.355l-6.337,6.335A1.624,1.624,0,0,1,119.02,127.021Zm-.594-1.073a.837.837,0,0,0,1.178,0l6.337-6.335a.836.836,0,0,0,0-1.177L119.6,112.1a.837.837,0,0,0-1.178,0l-6.337,6.325a.836.836,0,0,0,0,1.177l6.337,6.346Z" transform="translate(0 0)"/>
    <path id="路径_899" data-name="路径 899" class="cls-1" d="M312.051,315.656h-.711a.941.941,0,0,1-.945-.935v-1.727h-1.727a.943.943,0,0,1-.945-.945v-.711a.943.943,0,0,1,.945-.945h1.727v-1.727a.943.943,0,0,1,.945-.945h.711a.943.943,0,0,1,.945.945v1.727h1.727a.943.943,0,0,1,.945.945v.711a.943.943,0,0,1-.945.945H313v1.727A.941.941,0,0,1,312.051,315.656Zm-3.373-4.449a.134.134,0,0,0-.132.132v.711a.134.134,0,0,0,.132.132h2.133a.408.408,0,0,1,.406.406v2.133a.126.126,0,0,0,.132.122h.711a.133.133,0,0,0,.132-.122v-2.133a.408.408,0,0,1,.406-.406h2.133a.135.135,0,0,0,.132-.132v-.711a.134.134,0,0,0-.132-.132H312.6a.408.408,0,0,1-.406-.406v-2.133a.134.134,0,0,0-.132-.132h-.711a.134.134,0,0,0-.132.132V310.8a.408.408,0,0,1-.406.406Z" transform="translate(-192.675 -192.676)"/>
  </g>
</svg>
