<svg xmlns="http://www.w3.org/2000/svg" width="16" height="16" viewBox="0 0 16 16">
  <defs>
    <style>
      .cls-1 {
        fill: #999;
      }
    </style>
  </defs>
  <path id="time" data-name="time" class="cls-1" d="M135.28,118.9h-4.654v-4.629a.534.534,0,1,0-1.064,0v5.152a.493.493,0,0,0,.4.518.573.573,0,0,0,.161.023h5.152a.534.534,0,1,0,0-1.064Zm-4.621-8.186a8,8,0,1,1-8,8,8,8,0,0,1,8-8m0,.9a7.078,7.078,0,1,0,2.765.558,7.059,7.059,0,0,0-2.765-.558Zm0,.252" transform="translate(-122.658 -110.715)"/>
</svg>
