<svg xmlns="http://www.w3.org/2000/svg" width="180" height="35" viewBox="0 0 180 35.095">
  <g id="group1" data-name="group1" transform="translate(-550 -70)">
    <rect id="rect1" data-name="rect1" width="135" height="35" transform="translate(550 70)" fill="none"/>
    <g id="group2" data-name="group2" transform="translate(552.552 73.19)">
      <g id="layer1" data-name="layer1" transform="translate(0 3.439)">
        <g id="group3" data-name="group3">
          <path id="path1" data-name="path1" d="M29.186,20.951S21.394,8.606,18.373,3.807A35.683,35.683,0,0,0,16.226.612,1.8,1.8,0,0,0,13.8.359a4.239,4.239,0,0,0-1.082,1.209L11.579,3.38,7.539,9.827l-4.995,8-1.8,2.853a3.341,3.341,0,0,0-.7,1.374,1.773,1.773,0,0,0,.637,1.781,1.758,1.758,0,0,0,1.018.318h8.377a2.992,2.992,0,0,0,1.808-.488,1.874,1.874,0,0,0,.331-.4,1.058,1.058,0,0,0,.072-.141,1.2,1.2,0,0,0,.038-.286V16.563a1.092,1.092,0,0,1,.637-.911C13.289,15.463,16,14.621,16,14.621c1.4-.52,1.4.6,1.4.6l.051,7.494c.034,1.015,1.133,1.35,1.914,1.438.424.048,8.037,0,8.037,0C31.155,24.057,29.186,20.951,29.186,20.951Zm-14.335-8.63A2.57,2.57,0,0,1,12.3,9.756a2.649,2.649,0,0,1,5.287.055A2.631,2.631,0,0,1,14.851,12.321Z" transform="translate(0.004 0)" fill="#fff"/>
          <path id="path2" data-name="path2" d="M24.712,29.4l.31.854c.56-.439.849-.806.726-1.007-.365-.806-5.355.371-11.144,2.6s-10.164,4.707-9.82,5.5a.324.324,0,0,0,.149.137C4.466,36.179,24.712,29.4,24.712,29.4Z" transform="translate(-2.742 -17.311)" fill="#fff"/>
          <path id="path3" data-name="path3" d="M23.151,28.27A71.941,71.941,0,0,0,1.22,36.8l-.475.762a3.342,3.342,0,0,0-.7,1.374,1.773,1.773,0,0,0,.637,1.781,1.758,1.758,0,0,0,1.018.318h8.377a2.992,2.992,0,0,0,1.808-.488,1.875,1.875,0,0,0,.331-.4A1.058,1.058,0,0,0,12.283,40a1.2,1.2,0,0,0,.038-.286V33.444a1.092,1.092,0,0,1,.637-.911C13.289,32.344,16,31.5,16,31.5c1.4-.52,1.4.6,1.4.6l.051,7.5c.034,1.016,1.133,1.35,1.914,1.439.424.048,8.037,0,8.037,0,3.739-.093,1.77-3.192,1.77-3.192Z" transform="translate(0.004 -16.883)" fill="#fff"/>
        </g>
      </g>
      <text id="aid" transform="translate(38.023 22)" fill="#fff" font-size="18" font-family="SourceHanSansCN-Medium, Source Han Sans CN" font-weight="400" letter-spacing="0.2em"><tspan x="0" y="0">智能检索平台</tspan></text>
    </g>
  </g>
</svg>
