<svg xmlns="http://www.w3.org/2000/svg" width="80" height="80" viewBox="0 0 80 80">
  <defs>
    <style>
      .cls-1 {
        fill: none;
      }
      .cls-2 {
        fill: #999;
      }
    </style>
  </defs>
  <g id="组_3307" data-name="组 3307" transform="translate(-600 -360)">
    <rect id="矩形_1434" data-name="矩形 1434" class="cls-1" width="80" height="80" transform="translate(600 360)"/>
    <g id="空" transform="translate(477.73 196.068)">
      <path id="路径_977" data-name="路径 977" class="cls-2" d="M130.466,235.932l-.091,0a8.408,8.408,0,0,1-5.1-1.906,7.424,7.424,0,0,1-2.123-4.772q0-.069,0-.138V215.357a14.346,14.346,0,0,1,.578-4.607,17.077,17.077,0,0,1,1.591-3.738l6.907-12.219c.035-.061.071-.121.11-.178a11.073,11.073,0,0,1,2.96-2.952,8.617,8.617,0,0,1,4.272-1.121H183.2c.056,0,.112,0,.169.005a11.337,11.337,0,0,1,4.429,1.215,12.622,12.622,0,0,1,3.255,2.942q.077.1.144.206l8.2,13c.035.057.071.117.1.178a15.543,15.543,0,0,1,1.9,7l0,.111v13.76a6.847,6.847,0,0,1-2.2,5.08,8.4,8.4,0,0,1-5.364,1.892H130.466Zm-.7-26.133a12.694,12.694,0,0,0-1.015,2.464,9.132,9.132,0,0,0-.361,2.819q.006.093.007.186v13.756l.005.038a2.4,2.4,0,0,0,.444,1.117l.035.037.041.03a3.992,3.992,0,0,0,1.582.442h63.343a3.353,3.353,0,0,0,1.861-.554,1.626,1.626,0,0,0,.456-1l-.005-.159v-13.7a10.25,10.25,0,0,0-1.239-4.643l-.029-.052-8.05-12.758-.025-.03a7.6,7.6,0,0,0-1.621-1.487,6.394,6.394,0,0,0-2.067-.524l-.055,0h-43.49a3.637,3.637,0,0,0-1.513.33,6.03,6.03,0,0,0-1.314,1.334l-.021.028-6.864,12.142-.074.125v0c0,.006-.032.059-.032.059Zm32.262-23.1a2.624,2.624,0,0,1-2.622-2.621V169a2.622,2.622,0,0,1,5.243,0v15.08a2.624,2.624,0,0,1-2.621,2.621Zm17.576-.1a2.622,2.622,0,0,1-2.036-4.273l5.992-7.391a2.622,2.622,0,0,1,4.073,3.3l-5.992,7.391a2.6,2.6,0,0,1-2.034.971h0Zm-34.857-.2a2.6,2.6,0,0,1-2.048-.987l-5.891-7.39a2.624,2.624,0,0,1,.416-3.684,2.621,2.621,0,0,1,3.684.416l5.891,7.39a2.621,2.621,0,0,1-2.048,4.256Z"/>
      <path id="路径_978" data-name="路径 978" class="cls-2" d="M167.759,614.322A12.684,12.684,0,0,1,155.42,604.8l-.115-.452-23.281-.014a2.622,2.622,0,0,1,0-5.244l25.636.016a2.627,2.627,0,0,1,2.62,2.622,7.467,7.467,0,0,0,14.931,0,2.628,2.628,0,0,1,2.621-2.622l25.4-.016a2.622,2.622,0,0,1,0,5.244l-23.045.014-.115.452a12.665,12.665,0,0,1-12.315,9.52Z" transform="translate(-5.633 -389.175)"/>
    </g>
  </g>
</svg>
