<svg xmlns="http://www.w3.org/2000/svg" width="38.227" height="38.227" viewBox="0 0 38.227 38.227">
  <defs>
    <style>
      .cls-1 {
        fill: #3667dd;
      }

      .cls-2 {
        fill: #45a2ff;
        opacity: 0.997;
      }

      .cls-3 {
        opacity: 0.2;
      }

      .cls-4 {
        fill: #f0edff;
      }

      .cls-5 {
        fill: #2f2e41;
      }
    </style>
  </defs>
  <g id="undraw_male_avatar_323b" transform="matrix(0.966, 0.259, -0.259, 0.966, 8.078, 0)">
    <path id="路径_1187" data-name="路径 1187" class="cls-1" d="M293.212,127.606a15.553,15.553,0,0,1-1.257,6.145l-.052.119a15.632,15.632,0,0,1-17.005,9.107l-.281-.052a15.466,15.466,0,0,1-2.823-.832q-.222-.089-.441-.185c-.1-.043-.2-.088-.3-.134a15.607,15.607,0,1,1,22.157-14.168Z" transform="translate(-262 -112)"/>
    <path id="路径_1188" data-name="路径 1188" class="cls-2" d="M404.514,349.338l-.281-.052a64.172,64.172,0,0,0-.983-9.2,34.142,34.142,0,0,0-1.683-6.121,19.041,19.041,0,0,0-.88-1.932,10.019,10.019,0,0,0-2.8-3.458l.164-.224a9.655,9.655,0,0,1,2.5,2.866q.333.553.64,1.179.329.67.627,1.423.19.479.368.992a36.009,36.009,0,0,1,1.314,5.078q.12.63.228,1.291A65.486,65.486,0,0,1,404.514,349.338Z" transform="translate(-391.616 -318.361)"/>
    <path id="路径_1189" data-name="路径 1189" class="cls-2" d="M404.469,602.322c-.1-.043-.2-.088-.3-.134a22.67,22.67,0,0,0-.6-3.582,11.749,11.749,0,0,0-.545-1.625,4.877,4.877,0,0,0-1.468-2.056l.164-.224a5.1,5.1,0,0,1,1.535,2.1,14.422,14.422,0,0,1,.919,3.24C404.322,600.859,404.412,601.648,404.469,602.322Z" transform="translate(-395.116 -572.413)"/>
    <circle id="椭圆_13" data-name="椭圆 13" class="cls-2" cx="1.389" cy="1.389" r="1.389" transform="translate(3.332 7.429)"/>
    <circle id="椭圆_14" data-name="椭圆 14" class="cls-2" cx="1.389" cy="1.389" r="1.389" transform="translate(3.78 19.387)"/>
    <path id="路径_1190" data-name="路径 1190" class="cls-3" d="M482.132,294.608a6.171,6.171,0,0,0,.356,3.167,5.624,5.624,0,0,0,1.067-6.019A6.171,6.171,0,0,0,482.132,294.608Z" transform="translate(-471.896 -283.456)"/>
    <path id="路径_1191" data-name="路径 1191" class="cls-2" d="M330.779,397.467a6.2,6.2,0,0,0,3.178.208,5.658,5.658,0,0,0-5.741-2.1A6.2,6.2,0,0,0,330.779,397.467Z" transform="translate(-325.159 -382.37)"/>
    <path id="路径_1192" data-name="路径 1192" class="cls-2" d="M340.822,639.1a4.326,4.326,0,0,0,2.229.141,3.942,3.942,0,0,0-4.024-1.471A4.325,4.325,0,0,0,340.822,639.1Z" transform="translate(-335.471 -613.413)"/>
    <circle id="椭圆_15" data-name="椭圆 15" class="cls-4" cx="6.084" cy="6.084" r="6.084" transform="translate(9.49 6.894)"/>
    <path id="路径_1193" data-name="路径 1193" class="cls-4" d="M547.833,454.688s.761,3.612.761,3.993,3.612,2.091,3.612,2.091l3.232-.57,1.141-3.422s-1.9-2.852-1.9-3.993Z" transform="translate(-534.636 -437.053)"/>
    <path id="路径_1194" data-name="路径 1194" class="cls-5" d="M411.412,520.319l-.052.119a15.631,15.631,0,0,1-17.005,9.107l-.281-.052a15.465,15.465,0,0,1-2.823-.833q-.222-.089-.441-.185c-.1-.043-.2-.088-.3-.134a15.586,15.586,0,0,1-2.551-1.49l-.721-2.092.405-.309.834-.637.89-.679.231-.177,3.491-2.665.258-.2,1.814-1.385h0s1.962,3.2,4.814,2.247a3.933,3.933,0,0,0,2.79-3.677Z" transform="translate(-381.457 -498.568)"/>
    <path id="路径_1195" data-name="路径 1195" class="cls-5" d="M455.476,217.419s1.932-4.185,5.634-3.219,5.795,2.415,5.956,3.863a20.669,20.669,0,0,1-.08,3.622s-.4-2.978-2.978-2.334a22.973,22.973,0,0,1-6.6.161l-.644,5.795s-.724-1.046-1.529-.4S452.9,218.706,455.476,217.419Z" transform="translate(-445.178 -209.342)"/>
    <path id="路径_1196" data-name="路径 1196" class="cls-5" d="M375.3,683.172q-.222-.089-.441-.185c-.1-.043-.2-.088-.3-.134a15.644,15.644,0,0,1-4.044-2.71,5.47,5.47,0,0,1,.772-.872h2.852l.428,1.438Z" transform="translate(-365.51 -653.079)"/>
    <path id="路径_1197" data-name="路径 1197" class="cls-5" d="M853.074,576.32l2.447.432a15.6,15.6,0,0,1-2.621,4.089Z" transform="translate(-825.618 -554.882)"/>
  </g>
</svg>
