<svg id="组_2537" data-name="组 2537" xmlns="http://www.w3.org/2000/svg" width="7.581" height="19.974" viewBox="0 0 7.581 19.974">
  <defs>
    <style>
      .cls-1 {
        fill: #5981e6;
      }
    </style>
  </defs>
  <path id="路径_1150" data-name="路径 1150" class="cls-1" d="M817.79,160.94a2.47,2.47,0,1,0-2.47-2.47,2.472,2.472,0,0,0,2.47,2.47Zm2.023,1.576h-4.046A1.763,1.763,0,0,0,814,164.283v5.068a1.771,1.771,0,0,0,1.576,1.746l.192.021v4.855h4.046V171.1l.192-.021a1.771,1.771,0,0,0,1.576-1.746v-5.068a1.759,1.759,0,0,0-1.768-1.746Zm0,0" transform="translate(-814 -156)"/>
</svg>
