<svg id="组_2690" data-name="组 2690" xmlns="http://www.w3.org/2000/svg" width="13.978" height="12.631" viewBox="0 0 13.978 12.631">
  <defs>
    <style>
      .cls-1 {
        fill: #376def;
      }
    </style>
  </defs>
  <path id="路径_1112" data-name="路径 1112" class="cls-1" d="M139.09,438.053l-.769.769V435.8a.6.6,0,0,0-.595-.595h0a.6.6,0,0,0-.595.595v3.025l-.769-.769a.6.6,0,0,0-.842,0h0a.6.6,0,0,0,0,.842l1.817,1.817a.55.55,0,0,0,.777,0l1.817-1.817a.6.6,0,0,0,0-.842h0A.6.6,0,0,0,139.09,438.053Z" transform="translate(-135.347 -428.241)"/>
  <path id="路径_1113" data-name="路径 1113" class="cls-1" d="M136.363,274l.769-.769v3.024a.6.6,0,0,0,.595.595h0a.6.6,0,0,0,.595-.595v-3.024l.769.769a.6.6,0,0,0,.842,0h0a.6.6,0,0,0,0-.841l-1.817-1.817a.55.55,0,0,0-.777,0l-1.817,1.817a.6.6,0,0,0,0,.841h0A.6.6,0,0,0,136.363,274Z" transform="translate(-135.347 -271.183)"/>
  <rect id="矩形_1484" data-name="矩形 1484" class="cls-1" width="7.732" height="1.19" rx="0.595" transform="translate(6.246 0.449)"/>
  <rect id="矩形_1485" data-name="矩形 1485" class="cls-1" width="7.732" height="1.19" rx="0.595" transform="translate(6.246 4.018)"/>
  <rect id="矩形_1486" data-name="矩形 1486" class="cls-1" width="7.732" height="1.19" rx="0.595" transform="translate(6.246 7.587)"/>
  <rect id="矩形_1487" data-name="矩形 1487" class="cls-1" width="7.732" height="1.19" rx="0.595" transform="translate(6.246 11.156)"/>
  <path id="路径_1114" data-name="路径 1114" class="cls-1" d="M282.5,534.026" transform="translate(-276.257 -522.87)"/>
</svg>
