<svg xmlns="http://www.w3.org/2000/svg" width="216.949" height="168.237" viewBox="0 0 216.949 168.237">
  <defs>
    <style>
      .cls-1, .cls-17, .cls-3 {
        fill: #f2f2f2;
      }

      .cls-1 {
        opacity: 0.535;
      }

      .cls-18, .cls-19, .cls-2, .cls-4, .cls-6 {
        fill: none;
      }

      .cls-2 {
        stroke: #f2f2f2;
      }

      .cls-18, .cls-2, .cls-4, .cls-6 {
        stroke-miterlimit: 10;
      }

      .cls-18, .cls-19, .cls-4 {
        stroke: #dbdbdb;
      }

      .cls-4 {
        stroke-width: 0.2px;
      }

      .cls-5 {
        fill: #dbdbdb;
      }

      .cls-6 {
        stroke: #3f3d56;
      }

      .cls-18, .cls-19, .cls-6 {
        stroke-width: 0.4px;
      }

      .cls-7 {
        fill: #ffc1c7;
      }

      .cls-13, .cls-8 {
        fill: #ffd8bb;
      }

      .cls-11, .cls-16, .cls-8, .cls-9 {
        isolation: isolate;
      }

      .cls-9 {
        fill: #d9d9d9;
      }

      .cls-16, .cls-9 {
        opacity: 0.1;
      }

      .cls-10 {
        fill: #2f2e41;
      }

      .cls-11, .cls-12 {
        fill: #06286d;
      }

      .cls-14 {
        fill: #efefef;
      }

      .cls-15 {
        fill: #3f3d56;
      }

      .cls-17 {
        opacity: 0.518;
      }

      .cls-19 {
        stroke-linecap: round;
      }
    </style>
  </defs>
  <g id="组_4226" data-name="组 4226" transform="translate(-603 -361.187)">
    <path id="路径_1435" data-name="路径 1435" class="cls-1" d="M711.281,278.5q.294-.259.574-.532c2.205-2.142,6.16-6.6,8.034-8.73a1.415,1.415,0,0,0-.253-2.091L716,264.607l.219-.111-2.611-3.777c.289-5.77-12-21.473-15.069-23.821S705.749,216,705.749,216a8.837,8.837,0,0,0,3.8-3.254c.059.01.118.022.177.031l1.317-.121a2.339,2.339,0,0,0,2.118-2.148,41.939,41.939,0,0,0,.146-4.67,4.827,4.827,0,0,1,2.028-3.423c2.294-1.513,17.026-39.369,10.247-46.3,0,0-2.887-4.317-4.521-4.846a1.8,1.8,0,0,0-.712-1.833l-.47-1.482s-.631.278-1.571.715a27.189,27.189,0,0,1-1.966-3.393c.326-1.415,5.215-7.647.83-11.955-4.449-4.372-6.646-7.338-9.961-6.155s-11.1,2.947-10.874,5.727-.577,3.873.858,5.014,1.485,1.047,1.485,1.047h0a8.58,8.58,0,0,0,9.7,10.594,23.907,23.907,0,0,1,1.638,3.979,3.966,3.966,0,0,0-.4,2.54,65.92,65.92,0,0,0-4.066,6.874c-.972,1.876-2.77,5.848-4.741,10.08-3.461-1.116-6.59-2.245-6.59-2.245s-.182.214-.466.565a19.957,19.957,0,0,0-2.965-.279l-8.355-8.414a.691.691,0,0,0-.915-.114l-7.343,3.48a.878.878,0,0,0-.048,1.241l.03.031,7.275,7.723c-.571.613.4,1.361,1.97,2.092l1.911,2.029a.68.68,0,0,0,1.041.027l.648-.683c1.182.389,2.353.734,3.3,1-.07.34-.02.59.2.7.4.2,2.527,1.379,5.429,2.857a22.077,22.077,0,0,1-2.854,4.516c-2.09,2.018-2.04,7.587-1.933,9.771-.667,1-1.6,2.528-1.579,3.241-3.685,5.487-10.236,15.835-11.251,21.452a31.362,31.362,0,0,0-5.435,14.7c-.673,8.352-9.189,27.7-9.729,27.974-.082.042-.069.214.031.468-2.814.974,4.5,13.4,5.99,12.982,1.294-.365,3.25-6.987,3.247-9.022.045-.012.089-.02.134-.032,0,0,1.79-4.833,3.141-5.524s8.288-22.126,8.258-25.518a5.655,5.655,0,0,1,1.21-2.5,9.355,9.355,0,0,0,3.7,5.441c9.829,6.564,16.522,27,17.747,27.394a.729.729,0,0,0,.218.023c.1,2.914.047,8.44-1.834,9.152a3.931,3.931,0,0,0-1.487.995" transform="translate(59.124 250.399)"/>
    <path id="路径_1436" data-name="路径 1436" class="cls-2" d="M923.751,492.375a5.692,5.692,0,0,0-5.966.494c-2.553,1.944-2.942,5.749-1.982,8.812s2.969,5.663,4.542,8.461a21.938,21.938,0,0,1,3.123,12.352c-.351,4.3-2.6,8.557-6.364,10.666-3.489,1.957-7.716,1.883-11.715,1.755" transform="translate(-111.548 -6.021)"/>
    <ellipse id="椭圆_154" data-name="椭圆 154" class="cls-3" cx="2.105" cy="4.334" rx="2.105" ry="4.334" transform="matrix(0.503, -0.864, 0.864, 0.503, 809.969, 487.788)"/>
    <ellipse id="椭圆_155" data-name="椭圆 155" class="cls-3" cx="2.105" cy="4.334" rx="2.105" ry="4.334" transform="matrix(0.503, -0.864, 0.864, 0.503, 805.982, 501.516)"/>
    <ellipse id="椭圆_156" data-name="椭圆 156" class="cls-3" cx="2.105" cy="4.334" rx="2.105" ry="4.334" transform="matrix(0.503, -0.864, 0.864, 0.503, 798.012, 499.452)"/>
    <ellipse id="椭圆_157" data-name="椭圆 157" class="cls-3" cx="2.105" cy="4.334" rx="2.105" ry="4.334" transform="matrix(0.503, -0.864, 0.864, 0.503, 802.851, 515.743)"/>
    <ellipse id="椭圆_158" data-name="椭圆 158" class="cls-3" cx="2.105" cy="4.334" rx="2.105" ry="4.334" transform="matrix(0.503, -0.864, 0.864, 0.503, 810.34, 520.107)"/>
    <path id="路径_1437" data-name="路径 1437" class="cls-4" d="M873.957,482.314a5.692,5.692,0,0,0-4.906,3.43c-1.227,2.966.353,6.449,2.724,8.611s5.417,3.4,8.185,5.023a21.936,21.936,0,0,1,8.917,9.1c1.86,3.888,2.058,8.7-.129,12.42-2.029,3.448-5.719,5.512-9.238,7.415" transform="translate(-85.709 0.614)"/>
    <ellipse id="椭圆_159" data-name="椭圆 159" class="cls-5" cx="4.334" cy="2.105" rx="4.334" ry="2.105" transform="translate(787.039 481.081)"/>
    <ellipse id="椭圆_160" data-name="椭圆 160" class="cls-5" cx="4.334" cy="2.105" rx="4.334" ry="2.105" transform="translate(790.506 494.95)"/>
    <ellipse id="椭圆_161" data-name="椭圆 161" class="cls-5" cx="4.334" cy="2.105" rx="4.334" ry="2.105" transform="translate(782.581 497.179)"/>
    <ellipse id="椭圆_162" data-name="椭圆 162" class="cls-5" cx="4.334" cy="2.105" rx="4.334" ry="2.105" transform="translate(794.964 508.819)"/>
    <ellipse id="椭圆_163" data-name="椭圆 163" class="cls-5" cx="4.334" cy="2.105" rx="4.334" ry="2.105" transform="translate(803.632 508.819)"/>
    <line id="直线_550" data-name="直线 550" class="cls-6" x2="122.441" transform="translate(689.859 528.899)"/>
    <path id="路径_1438" data-name="路径 1438" class="cls-7" d="M628.606,273.581s-13.619,2.152-11.945-.563,10.586-5.428,12.22-4.862S628.606,273.581,628.606,273.581Z" transform="translate(91.474 151.181)"/>
    <path id="路径_1439" data-name="路径 1439" class="cls-8" d="M628.606,273.581s-13.619,2.152-11.945-.563,10.586-5.428,12.22-4.862S628.606,273.581,628.606,273.581Z" transform="translate(91.474 151.181)"/>
    <path id="路径_1440" data-name="路径 1440" class="cls-3" d="M666.126,183.094s-8.8,2.36-4.721,9.87c0,0,6.652,13.089,3.862,13.947s-15.664.429-15.664.429-3,7.3-1.5,7.51,25.534,5.15,28.109.429,0-25.1,0-25.1S672.563,180.09,666.126,183.094Z" transform="translate(69.572 211.302)"/>
    <path id="路径_1441" data-name="路径 1441" class="cls-9" d="M666.126,183.094s-8.8,2.36-4.721,9.87c0,0,6.652,13.089,3.862,13.947s-15.664.429-15.664.429-3,7.3-1.5,7.51,25.534,5.15,28.109.429,0-25.1,0-25.1S672.563,180.09,666.126,183.094Z" transform="translate(69.572 211.302)"/>
    <path id="路径_1442" data-name="路径 1442" class="cls-10" d="M793.5,547.168s3.862,9.227,1.717,10.943-1.717,4.935-.215,4.935,4.935-3,6.866-6.652c1.439-2.717,3.83-8.173,4.956-10.78a1.413,1.413,0,0,0-.736-1.857,1.379,1.379,0,0,0-.149-.055l-6.217-1.9Z" transform="translate(-32.908 -41.196)"/>
    <path id="路径_1443" data-name="路径 1443" class="cls-10" d="M618.695,597.4s-8.154,6.652-12.445,6.437-4.935,4.291,0,4.935,19.74.858,21.028,0,.858-9.87,0-10.084S618.695,597.4,618.695,597.4Z" transform="translate(101.126 -80.268)"/>
    <path id="路径_1444" data-name="路径 1444" class="cls-10" d="M705.3,352.366s0,6.652-3.433,9.441c0,0-4.077,20.813-.429,22.1s20.169,12.445,21.671,18.024l3.648,2.789s-6.652,6.652-7.939,6.652-13.947-17.38-25.319-20.6c0,0-7.081-1.717-6.866-10.943s8.583-33.687,8.583-33.687h9.656Z" transform="translate(42.203 96.317)"/>
    <path id="路径_1445" data-name="路径 1445" class="cls-11" d="M705.3,352.366s0,6.652-3.433,9.441c0,0-4.077,20.813-.429,22.1s20.169,12.445,21.671,18.024l3.648,2.789s-6.652,6.652-7.939,6.652-13.947-17.38-25.319-20.6c0,0-7.081-1.717-6.866-10.943s8.583-33.687,8.583-33.687h9.656Z" transform="translate(42.203 96.317)"/>
    <path id="路径_1446" data-name="路径 1446" class="cls-12" d="M658.461,342.278s-6.437,20.17-5.364,28.109a31.359,31.359,0,0,0-.644,15.663c1.931,8.154-.215,29.181-.644,29.611s4.721,4.935,10.3,1.287c0,0,.215-5.15,1.287-6.223s1.073-23.6,0-26.821S674.982,357.3,674.982,357.3s6.866-6.223,4.291-9.441.215-9.656.215-9.656l-19.526,1.287Z" transform="translate(66.724 101.899)"/>
    <circle id="椭圆_164" data-name="椭圆 164" class="cls-13" cx="8.583" cy="8.583" r="8.583" transform="translate(713.598 377.875)"/>
    <path id="路径_1447" data-name="路径 1447" class="cls-13" d="M672.281,144.706s6.866,7.939,8.583,8.154-5.579,9.441-5.579,9.441-4.077-6.866-6.866-7.51S672.281,144.706,672.281,144.706Z" transform="translate(55.478 237.889)"/>
    <path id="路径_1448" data-name="路径 1448" class="cls-14" d="M695.423,167.868l-1.073-1.5s-7.393,6.59-7.666,8.338a3.785,3.785,0,0,0,.585,2.82l4.291-1.931,2.146-4.291Z" transform="translate(42.207 222.666)"/>
    <path id="路径_1449" data-name="路径 1449" class="cls-15" d="M670.776,349.46s-1.717,5.15-.429,4.935,1.287-3,2.789-3,2.36-2.36,2.36-2.36Z" transform="translate(53.98 94.287)"/>
    <path id="路径_1450" data-name="路径 1450" class="cls-15" d="M709.745,351.919s4.935,10.728,11.158,9.656l1.215-.521a2.339,2.339,0,0,0,1.354-2.7c-.593-2.471-1.683-6.439-2.569-6.439Z" transform="translate(25.953 92.257)"/>
    <path id="路径_1451" data-name="路径 1451" class="cls-12" d="M625.491,124.716a2.611,2.611,0,0,1,3.629-1.612c2.789,1.073,5.15,3.433,5.793,1.717s2.291-3.3,3.4-1.969,6.15,3.793,5.935,2.506,2.682-8.9-2.9-11.694-8.583-4.935-11.372-2.789-9.655,6.222-8.583,8.8.644,3.862,2.36,4.506S625.491,124.716,625.491,124.716Z" transform="translate(88.126 262.281)"/>
    <path id="路径_1452" data-name="路径 1452" class="cls-3" d="M682.126,172.053a1.688,1.688,0,0,0-2.146-1.5c-1.931.429-7.081,9.012-7.081,9.012a60.736,60.736,0,0,0-1.931,8.368c-.858,5.15-2.575,24.031-4.291,27.25s-19.066,49.872-19.066,49.872,24.017,1.432,30.239,2.719,26-2.075,26.647-2.719-10.688-42.74-10.57-45.826,2.575-39.45-6.008-43.956C687.919,175.271,683.843,172.053,682.126,172.053Z" transform="translate(56.576 219.769)"/>
    <path id="路径_1453" data-name="路径 1453" class="cls-16" d="M672.167,196.09s-8.8,2.36-4.721,9.87c0,0,6.652,13.089,3.862,13.947s-15.664.429-15.664.429-1.395,4.613.107,4.828,23.924,7.831,26.5,3.111,0-25.1,0-25.1S678.6,193.086,672.167,196.09Z" transform="translate(64.389 202.169)"/>
    <path id="路径_1454" data-name="路径 1454" class="cls-10" d="M585.156,258.919l14.261,7.834a.679.679,0,0,0,.942-.19.66.66,0,0,0,.057-.1l3.494-7.3a.912.912,0,0,0-.467-1.095l-11.841-6.1a.691.691,0,0,0-.906.173l-5.914,5.572a.878.878,0,0,0,.336,1.2Z" transform="translate(113.858 162.581)"/>
    <path id="路径_1455" data-name="路径 1455" class="cls-15" d="M589.51,260.143l13.37,7.642,3.558-6.412-11.469-6.237Z" transform="translate(110.456 160.278)"/>
    <ellipse id="椭圆_165" data-name="椭圆 165" class="cls-3" cx="0.168" cy="0.197" rx="0.168" ry="0.197" transform="translate(711.057 418.061) rotate(-39.842)"/>
    <ellipse id="椭圆_166" data-name="椭圆 166" class="cls-3" cx="0.112" cy="0.131" rx="0.112" ry="0.131" transform="translate(706.179 424.636) rotate(-39.842)"/>
    <path id="路径_1456" data-name="路径 1456" class="cls-13" d="M629.408,284.457s-13.754.964-11.851-1.6,11.016-4.491,12.6-3.785S629.408,284.457,629.408,284.457Z" transform="translate(90.871 143.556)"/>
    <path id="路径_1457" data-name="路径 1457" class="cls-3" d="M669.014,191.758s-8.8,2.36-4.721,9.87c0,0,6.652,13.089,3.862,13.947s-15.664.429-15.664.429-3,7.3-1.5,7.51,25.534,5.15,28.109.429,0-25.1,0-25.1S675.451,188.754,669.014,191.758Z" transform="translate(67.542 205.213)"/>
    <rect id="矩形_1862" data-name="矩形 1862" class="cls-17" width="59.264" height="38.389" rx="4" transform="translate(624.407 415.536)"/>
    <circle id="椭圆_167" data-name="椭圆 167" class="cls-3" cx="5" cy="5" r="5" transform="translate(603 432)"/>
    <circle id="椭圆_168" data-name="椭圆 168" class="cls-4" cx="5" cy="5" r="5" transform="translate(605 430)"/>
    <circle id="椭圆_169" data-name="椭圆 169" class="cls-3" cx="5" cy="5" r="5" transform="translate(650 396)"/>
    <circle id="椭圆_170" data-name="椭圆 170" class="cls-4" cx="5" cy="5" r="5" transform="translate(651 394)"/>
    <rect id="矩形_1863" data-name="矩形 1863" class="cls-18" width="58.264" height="38.389" rx="5" transform="translate(628.923 412.274)"/>
    <path id="路径_1336" data-name="路径 1336" class="cls-3" d="M11872.976,9833.982s1.511-6.116,7.546-6.8C11880.57,9833.137,11872.976,9833.982,11872.976,9833.982Z" transform="translate(-11182 -9466)"/>
    <path id="路径_1459" data-name="路径 1459" class="cls-3" d="M11872.976,9833.982s1.511-6.116,7.546-6.8C11880.57,9833.137,11872.976,9833.982,11872.976,9833.982Z" transform="translate(-14749.341 1119.133) rotate(-42)"/>
    <path id="路径_1337" data-name="路径 1337" class="cls-3" d="M11872.976,9831.482s.955-3.866,4.771-4.3C11877.776,9830.947,11872.976,9831.482,11872.976,9831.482Z" transform="translate(-14727.473 1018.133) rotate(-42)"/>
    <path id="路径_1338" data-name="路径 1338" class="cls-3" d="M11872.976,9831.482s.955-3.866,4.771-4.3C11877.776,9830.947,11872.976,9831.482,11872.976,9831.482Z" transform="translate(-14719.473 1028.133) rotate(-42)"/>
    <path id="路径_1458" data-name="路径 1458" class="cls-19" d="M11896.309,9829.258s.061,14.342-8.693,11.526-3.863-10.162,0-8.511,5.672,14.6,0,16.561-17.539,6.947-11.015,14.841" transform="translate(-11213.54 -9365.053)"/>
  </g>
</svg>
