<svg id="组_2536" data-name="组 2536" xmlns="http://www.w3.org/2000/svg" xmlns:xlink="http://www.w3.org/1999/xlink" width="9.361" height="20.372" viewBox="0 0 9.361 20.372">
  <defs>
    <style>
      .cls-1 {
        fill: #f2962a;
      }

      .cls-2 {
        clip-path: url(#clip-path);
      }
    </style>
    <clipPath id="clip-path">
      <rect id="矩形_1309" data-name="矩形 1309" class="cls-1" width="9.361" height="20.372"/>
    </clipPath>
  </defs>
  <g id="组_2535" data-name="组 2535" transform="translate(0 0)">
    <g id="组_2534" data-name="组 2534" class="cls-2">
      <path id="路径_1149" data-name="路径 1149" class="cls-1" d="M787.684,162.072a2.522,2.522,0,1,0-2.565-2.521,2.547,2.547,0,0,0,2.565,2.521Zm4.587,8.738-1.043-2.913-1.435-4.043a.283.283,0,0,0-.261-.174h-3.674a.282.282,0,0,0-.261.174l-1,2.782-1.5,4.173a1.115,1.115,0,0,0,1.152,1.609h1.369v4.956h4.108v-4.956h1.348a1.3,1.3,0,0,0,1.065-.456,1.183,1.183,0,0,0,.13-1.152Zm0,0" transform="translate(-782.999 -157.028)"/>
    </g>
  </g>
</svg>
