<svg xmlns="http://www.w3.org/2000/svg" width="25" height="25" viewBox="0 0 25 25">
  <defs>
    <style>
      .cls-1 {
        fill: none;
      }

      .cls-2 {
        fill: #fff;
      }
    </style>
  </defs>
  <g id="组_2447" data-name="组 2447" transform="translate(-942 -20)">
    <rect id="矩形_1269" data-name="矩形 1269" class="cls-1" width="25" height="25" transform="translate(942 20)"/>
    <path id="通知_1_" data-name="通知 (1)" class="cls-2" d="M94.059,17.459l-1.868-3.229a1.96,1.96,0,0,1-.263-.98V8.5A6.73,6.73,0,0,0,87.1,2.062c0-.048.006-.094.006-.142a1.931,1.931,0,0,0-3.863,0c0,.046,0,.09,0,.134A6.732,6.732,0,0,0,78.385,8.5v4.919a1.947,1.947,0,0,1-.259.971l-1.759,3.075a.936.936,0,0,0-.067.251.875.875,0,0,0,.877.871h4.761a3.287,3.287,0,0,0,6.5,0h4.8a.883.883,0,0,0,.886-.879A.478.478,0,0,0,94.059,17.459ZM85.191,1a.928.928,0,0,1,.926.848,6.861,6.861,0,0,0-1.849-.008A.923.923,0,0,1,85.191,1Zm-.019,19.407a2.329,2.329,0,0,1-2.279-1.817h4.557A2.332,2.332,0,0,1,85.172,20.408Zm6.89-2.832h-13.7a.508.508,0,0,1-.444-.758L79.136,14.7a1.953,1.953,0,0,0,.263-.978V8.449a5.761,5.761,0,0,1,11.521,0v5.065a1.953,1.953,0,0,0,.257.969l1.33,2.331A.508.508,0,0,1,92.063,17.576Z" transform="translate(869.7 22)"/>
  </g>
</svg>
