<svg xmlns="http://www.w3.org/2000/svg" width="168.291" height="125.269" viewBox="0 0 168.291 125.269">
  <defs>
    <style>
      .cls-1, .cls-9 {
        fill: #ededed;
      }

      .cls-1 {
        opacity: 0.508;
      }

      .cls-2 {
        fill: #efb7b9;
      }

      .cls-12, .cls-20, .cls-21, .cls-22, .cls-23, .cls-3 {
        opacity: 0.1;
      }

      .cls-4 {
        fill: #efefef;
      }

      .cls-5 {
        fill: #6c63ff;
      }

      .cls-6 {
        fill: #d1d1d1;
      }

      .cls-7 {
        fill: #e3e3e3;
      }

      .cls-8 {
        fill: #eaeaea;
      }

      .cls-10 {
        fill: #ddd;
      }

      .cls-11 {
        fill: #e5e5e5;
      }

      .cls-12, .cls-16 {
        fill: #fff;
      }

      .cls-13 {
        fill: #b7b7b7;
      }

      .cls-14 {
        fill: #ffd8bb;
      }

      .cls-15 {
        fill: #06286d;
      }

      .cls-17 {
        fill: #2f2e41;
      }

      .cls-18, .cls-24, .cls-26 {
        fill: none;
      }

      .cls-18, .cls-19 {
        stroke: #333;
      }

      .cls-18, .cls-24 {
        stroke-linecap: round;
        stroke-width: 0.4px;
      }

      .cls-19 {
        fill: #333;
      }

      .cls-20 {
        fill: #8d8d8d;
      }

      .cls-21 {
        fill: #b1b1b1;
      }

      .cls-22 {
        fill: #aaa;
      }

      .cls-23 {
        fill: #adadad;
      }

      .cls-24 {
        stroke: #e3e3e3;
      }

      .cls-25 {
        stroke: none;
      }
    </style>
  </defs>
  <g id="组_5169" data-name="组 5169" transform="translate(-121.81 -250.956)">
    <path id="路径_1898" data-name="路径 1898" class="cls-1" d="M124.026,274.934C121.7,289.052-.187,287.863,0,274.934,2.321,260.816,124.211,262,124.026,274.934Z" transform="translate(134.595 91.143)"/>
    <g id="组_5167" data-name="组 5167" transform="translate(148.293 299.146)">
      <path id="路径_1914" data-name="路径 1914" class="cls-2" d="M120.442,77.6c-4.867,6.965-22.366,3.276-22.366,3.276L84.515,68.191,82.69,66.473l3.062-6.5s.973.268,2.643.745C97.161,63.26,124.55,71.749,120.442,77.6Z" transform="translate(-42.441 -30.78)"/>
      <path id="路径_1915" data-name="路径 1915" class="cls-3" d="M88.385,60.715a28.554,28.554,0,0,1-3.87,7.476L82.69,66.473l3.062-6.5S86.735,60.238,88.385,60.715Z" transform="translate(-42.441 -30.78)"/>
      <path id="路径_1917" data-name="路径 1917" class="cls-4" d="M27.883,28.319,65.36,22.25V57.734L29.749,55.87Z" transform="translate(-14.309 -11.42)"/>
      <path id="路径_1918" data-name="路径 1918" class="cls-5" d="M104.88,22.25l44.946,3.363-2.487,30.879L104.88,57.734Z" transform="translate(-53.83 -11.42)"/>
      <path id="路径_1919" data-name="路径 1919" class="cls-6" d="M104.88,22.25l44.946,3.363-2.487,30.879L104.88,57.734Z" transform="translate(-53.83 -11.42)"/>
      <path id="路径_1920" data-name="路径 1920" class="cls-7" d="M118.7,0,104.88,10.83l44.946,3.363L157.171,3.11Z" transform="translate(-53.83)"/>
      <path id="路径_1921" data-name="路径 1921" class="cls-8" d="M0,6.148,33.741,2.04,51.05,11.877l-37.48,6.1Z" transform="translate(0 -1.047)"/>
      <path id="路径_1922" data-name="路径 1922" class="cls-9" d="M73.576,37.9V86.409l-17.557-1.8-7.637-.779-2.327-.243L38.423,82.8,27.88,81.722V34.78l37.475,2.551Z" transform="translate(-14.309 -17.851)"/>
      <path id="路径_1924" data-name="路径 1924" class="cls-10" d="M158.49,29.16V76.472l-14.072,2.7-6.844,1.314L121.76,83.525l-.03-48.474Z" transform="translate(-62.494 -14.966)"/>
      <path id="路径_1926" data-name="路径 1926" class="cls-11" d="M0,44.992,13.571,34.78l45.736,3.108L52.54,49.227Z" transform="translate(0 -17.851)"/>
      <path id="路径_1928" data-name="路径 1928" class="cls-8" d="M158.49,29.16l-36.774,5.845,12,10.714,39.344-6.6Z" transform="translate(-62.494 -14.966)"/>
      <path id="路径_1929" data-name="路径 1929" class="cls-12" d="M161.094,120.932l-6.844,1.314v-10.11l6.41-1.616Z" transform="translate(-79.169 -56.725)"/>
      <path id="路径_1930" data-name="路径 1930" class="cls-12" d="M77.637,123.41V130.1L70,129.319V123.41Z" transform="translate(-35.928 -63.34)"/>
    </g>
    <path id="路径_1899" data-name="路径 1899" class="cls-6" d="M613.577,158.485S617.23,146.2,603.34,139.2Z" transform="translate(-364.864 207.685)"/>
    <path id="路径_1900" data-name="路径 1900" class="cls-13" d="M673.63,194.569s1.448-12.128,17.624-12.889Z" transform="translate(-424.461 171.667)"/>
    <g id="组_5168" data-name="组 5168" transform="translate(-22.229 17.027)">
      <path id="路径_1901" data-name="路径 1901" class="cls-14" d="M243.343,252.157l-2.5-.167.834,3.754,2.836-1.168Z" transform="translate(-65.212 95.129)"/>
      <path id="路径_1903" data-name="路径 1903" class="cls-15" d="M352.567,133.572l-5.84-5.672-3.336,2.585-6.59,7.925.751,1.168,8.008-5.422,5.423,7.09,5.171-2.586Z" transform="translate(-151.496 206.707)"/>
      <path id="路径_1904" data-name="路径 1904" class="cls-14" d="M399.194,187.885l-.751.584-6.089-2.085-1.418-.584-2.836.584a2.321,2.321,0,0,1,2.669-2.253l2.753.668,3.254.25Z" transform="translate(-197.623 156.148)"/>
      <path id="路径_1905" data-name="路径 1905" class="cls-15" d="M290.8,202.259l-1.835,1.169h-2.169L276.7,199.674l-14.764,2.669-.417-3.17,13.513-5.923,11.845,3.921Z" transform="translate(-83.806 147.946)"/>
      <path id="路径_1906" data-name="路径 1906" class="cls-14" d="M417.223,63.461l-1.251.25-.272-.318a1.684,1.684,0,0,1-.228-1.85h0l3.5-4.588s1-2.253,2.586-1.335-1.335,2.419-1.335,2.419l-1.751,2.753.166,1.418Z" transform="translate(-222.075 271.896)"/>
      <circle id="椭圆_205" data-name="椭圆 205" class="cls-14" cx="3.253" cy="3.253" r="3.253" transform="translate(199.819 323.429)"/>
      <path id="路径_1907" data-name="路径 1907" class="cls-14" d="M498.54,65.388l1.5,3.586,3.586-1.5s-1.168-2.836-1.168-2.92S498.54,65.388,498.54,65.388Z" transform="translate(-296.928 263.671)"/>
      <path id="路径_1908" data-name="路径 1908" class="cls-16" d="M429.688,96.718c0,1.963.607,3.162,0,5.029l1.142,2.861,3.959,4.37-5.493.454-4.343.257H412.929l-12.071-1.456,13.085-5.289,6.576-1.2-1.251-6.256-4.755-2.669-1.584-.25.334-.918,1.418-1.919,1.418-.166.417-.334h.971l.7-.585.417.166,2.439.227,1.481-.311,2.131-1.143.872.142,3,2.5A18.667,18.667,0,0,1,429.688,96.718Z" transform="translate(-218.199 242.952)"/>
      <path id="路径_1909" data-name="路径 1909" class="cls-17" d="M194.165,223.215s.747-1.266.432-1.414-1.656-.737-1.656-.737l-1.965-.651s-2.836-4.215-2.9-.55,2.065,4.546,2.065,4.546,1.9,4.083,2.971,3.432a8.68,8.68,0,0,0,2.15-2.862S193.325,223.938,194.165,223.215Z" transform="translate(-17.769 125.363)"/>
      <path id="路径_1910" data-name="路径 1910" class="cls-3" d="M504.909,135.214l-3.17,2.085-4.731,4.266-.357-.6-1-5.005h.25l2.586-4.754Z" transform="translate(-294.329 203.731)"/>
      <path id="路径_1911" data-name="路径 1911" class="cls-16" d="M475.423,126.24,472.836,131h-.918l-.584,1.669L470,133l3.587,3.921,5.088-4.588,3.17-2.086Z" transform="translate(-271.266 208.199)"/>
      <path id="路径_1912" data-name="路径 1912" class="cls-15" d="M477.859,2.556l-.353.136a.492.492,0,0,1-.131-.684L477.381,2l-.651-.03a4.921,4.921,0,0,1,7.343-.592c.029-.1.353.1.485.3.044-.166.348.637.455,1.2.049-.19.241.116.074.409.106-.015.154.255.072.406.116-.054.1.269-.029.485.165-.015-1.3,2.267-1.9,3.6a4.536,4.536,0,0,0-.925-2.221c-.095-.1-.2-.192-.3-.283l-.56-.494a5.413,5.413,0,0,0-2.111-1.5c-.6-.147-.973-.18-.648-.853-.293.122-.568.3-.864.418C477.823,2.756,477.864,2.65,477.859,2.556Z" transform="translate(-277.317 321.706)"/>
      <circle id="椭圆_206" data-name="椭圆 206" class="cls-14" cx="0.584" cy="0.584" r="0.584" transform="translate(204.115 326.474)"/>
      <path id="路径_1913" data-name="路径 1913" class="cls-18" d="M126.729,21.225s2.444,1.8-1.146,2.79-4.506,3.911-4.446,4.37" transform="translate(79.893 309.19)"/>
      <g id="椭圆_207" data-name="椭圆 207" class="cls-19" transform="translate(200.229 336.973)">
        <ellipse class="cls-25" cx="0.5" cy="1" rx="0.5" ry="1"/>
        <ellipse class="cls-26" cx="0.5" cy="1" ry="0.5"/>
      </g>
    </g>
    <path id="路径_1932" data-name="路径 1932" class="cls-20" d="M147.357,170.469s-14.393-.867-12.711,9.23a2.463,2.463,0,0,0,1.28,2.594s.027-.758,1.481-.5a6.554,6.554,0,0,0,1.564.076,3.223,3.223,0,0,0,1.894-.788h0s4.053-1.674,5.628-8.295c0,0,1.163-1.443,1.117-1.814l-2.432,1.038a4.37,4.37,0,0,1,.178,3.212s-.08-3.147-.545-3.075c-.095,0-1.265.61-1.265.61s1.432,3.057.352,5.276c0,0,.409-3.765-.8-5.056l-1.693.989s1.67,3.155.538,5.731c0,0,.292-3.95-.9-5.488l-1.549,1.212s1.568,3.11.614,5.246c0,0-.125-4.6-.951-4.947a9.5,9.5,0,0,0-1.564,1.689s1.076,2.273.409,3.45c0,0-.409-3.064-.758-3.079a10.2,10.2,0,0,0-1.492,3.409,7.4,7.4,0,0,1,1.167-3.613,4.066,4.066,0,0,0-2.072,1.072s.212-1.435,2.405-1.56a9.456,9.456,0,0,1,1.417-1.636,8.881,8.881,0,0,0-3.5.405s1.163-1.352,3.9-.739l1.515-1.25a13.072,13.072,0,0,0-4.091.042s1.4-1.2,4.5-.326l1.667-1a15.177,15.177,0,0,0-3.909-.337s1.542-.829,4.4.068l1.193-.534s-1.8-.352-2.322-.409-.553-.2-.553-.2a6.219,6.219,0,0,1,3.371.379A15.282,15.282,0,0,0,147.357,170.469Z" transform="translate(61.436 80.866)"/>
    <path id="路径_1933" data-name="路径 1933" class="cls-21" d="M302.867,272.09s-14.347-1.6-13.162,8.575a2.458,2.458,0,0,0,1.136,2.651s.064-.758,1.515-.42a6.556,6.556,0,0,0,1.56.155,3.232,3.232,0,0,0,1.951-.693h0s4.132-1.466,6.041-8c0,0,1.235-1.386,1.208-1.757l-2.481.913a4.235,4.235,0,0,1,0,3.219s.08-3.151-.379-3.1c-.095,0-1.292.542-1.292.542s1.273,3.125.083,5.3c0,0,.6-3.738-.542-5.09l-1.761.913s1.515,3.238.25,5.753c0,0,.489-3.931-.621-5.53l-1.61,1.136s1.409,3.185.345,5.268c0,0,.11-4.6-.7-4.984a10,10,0,0,0-1.648,1.606s.962,2.31.235,3.466c0,0-.254-3.079-.587-3.11a10.185,10.185,0,0,0-1.667,3.341A7.373,7.373,0,0,1,292.1,278.7a4.042,4.042,0,0,0-2.121.966s.28-1.424,2.477-1.439c0,0,1.2-1.481,1.515-1.557a8.874,8.874,0,0,0-3.522.223s1.231-1.292,3.939-.538l1.591-1.17a12.658,12.658,0,0,0-4.087-.167s1.462-1.136,4.515-.1l1.716-.909a15.08,15.08,0,0,0-3.886-.534s1.579-.758,4.386.292l1.22-.477s-1.776-.443-2.3-.523-.542-.227-.542-.227a6.215,6.215,0,0,1,3.348.542A14.835,14.835,0,0,0,302.867,272.09Z" transform="translate(-34.936 17.78)"/>
    <path id="路径_1934" data-name="路径 1934" class="cls-22" d="M360.777,307.471s-14.347-1.595-13.162,8.575a2.465,2.465,0,0,0,1.136,2.651s.064-.758,1.515-.417a6.722,6.722,0,0,0,1.557.151,3.288,3.288,0,0,0,1.943-.689h0s4.128-1.466,6.037-8c0,0,1.239-1.382,1.208-1.757l-2.481.913a4.235,4.235,0,0,1,0,3.219s.08-3.147-.379-3.1c-.095,0-1.292.542-1.292.542s1.273,3.125.083,5.3c0,0,.6-3.738-.542-5.087l-1.761.909s1.515,3.238.25,5.753c0,0,.489-3.931-.621-5.526l-1.61,1.136s1.409,3.185.348,5.272c0,0,.106-4.6-.7-4.988a10,10,0,0,0-1.648,1.606s.962,2.31.235,3.466c0,0-.254-3.079-.587-3.11a10.127,10.127,0,0,0-1.663,3.341,7.406,7.406,0,0,1,1.345-3.553,4.071,4.071,0,0,0-2.121.966s.284-1.424,2.481-1.435c0,0,1.193-1.481,1.515-1.56a8.9,8.9,0,0,0-3.522.227s1.231-1.3,3.939-.542l1.591-1.17a12.657,12.657,0,0,0-4.087-.167s1.462-1.136,4.515-.095l1.716-.913a15.08,15.08,0,0,0-3.886-.534s1.579-.758,4.386.292l1.22-.473s-1.776-.443-2.3-.526-.545-.227-.545-.227a6.217,6.217,0,0,1,3.348.545A14.983,14.983,0,0,0,360.777,307.471Z" transform="translate(-70.912 -4.201)"/>
    <path id="路径_1937" data-name="路径 1937" class="cls-23" d="M16.313,245.127S8.575,232.939,1.39,240.234A2.45,2.45,0,0,0,.035,242.79s.625-.417,1.269.909a6.5,6.5,0,0,0,.856,1.31A3.236,3.236,0,0,0,3.921,246.1h0s3.731,2.3,10.018-.3c0,0,1.852.1,2.125-.155l-2.273-1.364a4.354,4.354,0,0,1-2.5,2.026s2.507-1.894,2.17-2.242c-.064-.068-1.231-.667-1.231-.667s-1.64,2.947-4.072,3.375c0,0,3.291-1.875,3.632-3.61l-1.814-.8s-1.579,3.2-4.329,3.788c0,0,3.371-2.079,3.92-3.943l-1.894-.545s-1.6,3.094-3.89,3.568c0,0,3.651-2.8,3.45-3.666a9.407,9.407,0,0,0-2.273-.276s-1.2,2.193-2.557,2.352c0,0,2.242-2.129,2.057-2.409a10.206,10.206,0,0,0-3.647.8,7.35,7.35,0,0,1,3.613-1.174A4.068,4.068,0,0,0,2.349,239.8s1.284-.67,2.651,1.034a9.357,9.357,0,0,1,2.155.189,8.718,8.718,0,0,0-2.382-2.6s1.78.151,2.886,2.731l1.913.508a12.663,12.663,0,0,0-2.432-3.288s1.792.432,2.9,3.458l1.788.758a15.1,15.1,0,0,0-2.019-3.363s1.576.758,2.519,3.6l1.136.655s-.758-1.663-1.026-2.121-.163-.564-.163-.564a6.223,6.223,0,0,1,1.67,2.95A15.4,15.4,0,0,0,16.313,245.127Z" transform="translate(-75.424 234.606) rotate(-56)"/>
    <path id="路径_1938" data-name="路径 1938" class="cls-24" d="M3296.937,2073.208s-14.624,44.38-24.935,32.891,9.468-21.24,12.954-11.083-4.962,26.12-10.411,27.7" transform="translate(-3075 -1822)"/>
  </g>
</svg>
