<svg xmlns="http://www.w3.org/2000/svg" width="141.217" height="102.21" viewBox="0 0 141.217 102.21">
  <g id="组_3647" data-name="组 3647" transform="translate(-552.783 -274.904)">
    <path id="路径_1241" data-name="路径 1241" d="M73.677,715.843c0,3.183-14.926,5.764-33.339,5.764S7,719.026,7,715.843c0-.8.932-1.553,2.617-2.242,4.907-2.008,16.207-3.435,29.487-3.518q.615,0,1.234,0C58.751,710.079,73.677,712.66,73.677,715.843Z" transform="translate(551.091 -344.493)" fill="#376def" opacity="0.274"/>
    <ellipse id="椭圆_54" data-name="椭圆 54" cx="17.448" cy="18.695" rx="17.448" ry="18.695" transform="translate(557 334.117)" fill="#376def"/>
    <path id="路径_1258" data-name="路径 1258" d="M117.474,333.852l1.358,5.647c-1.37.049-3.182.075-5.1.037-.484-1.453-.947-2.968-1.3-4.387-1.3-5.19.865-13.119,2.018-16.867a7.236,7.236,0,0,1,4.037-4.757,13.147,13.147,0,0,1,3.316,1.73C123.673,316.552,117.474,333.852,117.474,333.852Z" transform="translate(462.425 24.283)" opacity="0.1" style="isolation: isolate"/>
    <g id="组_3619" data-name="组 3619" transform="translate(0 -34)">
      <path id="路径_1249" data-name="路径 1249" d="M314.488,378.143s2.595-7.352,4.469-5.046-2.883,6.2-2.883,6.2Z" transform="translate(291.505 -25.631)" fill="#ffd8bb"/>
      <path id="路径_1250" data-name="路径 1250" d="M207.706,361.644l1.561.579s.746,3.314.457,3.89-.432.144,0,1.3,1.73,4.181,1.874,4.613,8.362-2.739,8.362-4.325a14.674,14.674,0,0,0,2.595,2.451s-9.515,6.92-10.812,7.785-2.018.432-3.172-.577-6.055-9.371-6.055-9.371Z" transform="translate(386.034 -16.34)" fill="#f2f2f2"/>
      <path id="路径_1251" data-name="路径 1251" d="M254.057,685.14s-.144,1.586-.432,1.73-2.451,3.748,0,4.469,3.892.432,4.469.721,10.668.865,10.812-.721-4.9-1.874-4.9-1.874-4.613-3.027-5.334-4.613S254.057,685.14,254.057,685.14Z" transform="translate(343.863 -288.658)" fill="#2f2e41"/>
      <path id="路径_1252" data-name="路径 1252" d="M60,708.663s-3.46,5.911-2.595,6.632,9.289,3.348,10.524,3.46c1.586.144,2.739-1.153,1.442-1.874s-4.036-3.748-4.036-4.757v-2.595Z" transform="translate(508.656 -309.298)" fill="#2f2e41"/>
      <path id="路径_1253" data-name="路径 1253" d="M48.385,460.66s-3.027,3.748,1.73,9.8l7.929,10.091s-4.9,7.785-5.046,11.822-1.153,3.172-1.442,4.9-1.586.865-.577,2.162,4.757,2.451,5.911,1.442A3.574,3.574,0,0,0,58.044,498c0-.577,2.018-3.893,2.162-4.9s5.478-9.227,5.478-9.227,1.73-4.9-.288-7.641a28.959,28.959,0,0,1-3.352-6.624s5.947,7.2,10.128,8.931c0,0,1.586.288,1.3,1.009s0,1.153.432,1.874,3.46,9.082,4.469,11.245.577,3.46,1.73,4.181,6.343.144,6.343-.577a14.7,14.7,0,0,0-1.153-3.6c-.433-1.009-3.893-12.686-3.6-14.7s-.144-4.757-2.307-5.911-13.119-10.524-13.7-10.524S48.385,460.66,48.385,460.66Z" transform="translate(516.954 -99.93)" fill="#06286d"/>
      <circle id="椭圆_55" data-name="椭圆 55" cx="6.055" cy="6.055" r="6.055" transform="translate(588.261 325.986)" fill="#ffd8bb"/>
      <path id="路径_1254" data-name="路径 1254" d="M183.232,280.211s-1.874,3.316-4.181,3.748,6.055,7.064,6.055,7.064,2.018-6.343,3.748-6.631S183.232,280.211,183.232,280.211Z" transform="translate(406.182 52.407)" fill="#ffd8bb"/>
      <path id="路径_1255" data-name="路径 1255" d="M81.011,309.808c0,1.874-5.622,7.208-5.622,7.208l-5.334,4.469s-.144,1.586-.721,1.73-1.3.144-.721,1.009,2.018,2.739.721,3.027a10.6,10.6,0,0,1-1.181.112c-.346.02-.752.039-1.21.056-1.067.037-2.4.062-3.848.052q-.616,0-1.254-.014c-5.451-.108-11.765-.735-11.249-2.8.865-3.46.288-4.613,2.162-6.487s4.9-8.361,4.9-8.361,6.055-10.236,11.1-10.236L69.8,299.3a2.4,2.4,0,0,1,2.619,1.006,26.564,26.564,0,0,0,3.541,4.6c1.442,1.153,1.666.326,1.666.326S81.011,307.934,81.011,309.808Z" transform="translate(514.314 36.361)" fill="#f2f2f2"/>
      <path id="路径_1256" data-name="路径 1256" d="M150.37,507.855s4.181,6.487,1.586,7.641-4.036-6.776-4.036-6.776Z" transform="translate(432.125 -139.773)" fill="#ffd8bb"/>
      <path id="路径_1257" data-name="路径 1257" d="M194.024,231.693c.232-.029.306-.322.345-.553a3.111,3.111,0,0,1,2.369-2.609,3.354,3.354,0,0,1,1.412.114,5.354,5.354,0,0,1,1.811.892c2.109,1.683,3.754,2.017,4.264,1.914.488-.1.465-.661.506-1.43a5.886,5.886,0,0,0-1.38-3.683,3.958,3.958,0,0,0-2.122-1.389,15.242,15.242,0,0,0-2.942-.585,9.515,9.515,0,0,0-4.032.173,3.85,3.85,0,0,0-2.707,2.769c-.05.278-.06.563-.121.838a12.46,12.46,0,0,1-.855,1.876,3.613,3.613,0,0,0,.11,2.929c.359.723.985,1.418.85,2.214l1.112-.877a.808.808,0,0,0,.371-.946l-.162-1.393a1.226,1.226,0,0,1,.072-.753C193.422,230.331,193.637,231.742,194.024,231.693Z" transform="translate(396.334 99.664)" fill="#06286d"/>
      <path id="路径_1259" data-name="路径 1259" d="M124.877,349.233l1.414,5.879c-.346.02-.752.039-1.21.056-1.067.037-2.4.062-3.848.052-.52-1.544-1.024-3.173-1.4-4.69-1.3-5.19.865-13.119,2.018-16.867s3.676.361,3.676.361-1.009-2.451.865-1.153S124.877,349.233,124.877,349.233Z" transform="translate(456.176 8.613)" opacity="0.1" style="isolation: isolate"/>
      <path id="路径_1260" data-name="路径 1260" d="M122.185,311.674a7.236,7.236,0,0,0-4.036,4.757c-1.153,3.748-3.316,11.677-2.018,16.867a97.193,97.193,0,0,0,4.037,11.677s2.739-2.018,3.748-1.586L121.176,332s6.2-17.3,4.325-18.6A13.146,13.146,0,0,0,122.185,311.674Z" transform="translate(459.3 25.846)" fill="#f2f2f2"/>
      <path id="路径_1264" data-name="路径 1264" d="M31.549,63.3s-2.368,6.671,0,10.722,10.735,6.956,10.735,6.956l2.5,5.855L36.835,85.6s-10.685-9-11.368-11.572S27.359,63.773,28.614,63.3A5.588,5.588,0,0,1,31.549,63.3Z" transform="translate(557 288.965)" fill="#f2f2f2"/>
      <path id="路径_1261" data-name="路径 1261" d="M11798.491,7573.062c1.655-1.241-16.737,3.259-22.457,18.983s-11.552,30.853-10,30,4.756-4.146,11.5-3.353,14-2.689,15-4.243-3.687-12.747-3.489-13.529S11796.836,7574.3,11798.491,7573.062Z" transform="translate(-11213 -7237)" fill="#f2f2f2"/>
    </g>
    <g id="组_3617" data-name="组 3617" transform="translate(0 -34)">
      <rect id="矩形_1526" data-name="矩形 1526" width="83.565" height="48.753" transform="translate(610.435 321.606)" fill="#f8f8f8"/>
      <rect id="矩形_1527" data-name="矩形 1527" width="43.991" height="36.065" transform="translate(613.395 330.689)" fill="#e3e3e3" style="isolation: isolate"/>
      <rect id="矩形_1528" data-name="矩形 1528" width="18.571" height="1.528" transform="translate(660.55 329.117)" fill="#999"/>
      <rect id="矩形_1529" data-name="矩形 1529" width="22.931" height="1.528" transform="translate(660.55 331.937)" fill="#999"/>
      <rect id="矩形_1530" data-name="矩形 1530" width="18.571" height="1.528" transform="translate(660.55 338.754)" fill="#999"/>
      <rect id="矩形_1531" data-name="矩形 1531" width="18.571" height="1.528" transform="translate(660.55 350.036)" fill="#999"/>
      <rect id="矩形_1532" data-name="矩形 1532" width="22.931" height="1.528" transform="translate(660.55 341.574)" fill="#999"/>
      <rect id="矩形_1533" data-name="矩形 1533" width="22.931" height="1.528" transform="translate(660.55 344.395)" fill="#999"/>
      <rect id="矩形_1534" data-name="矩形 1534" width="22.931" height="1.528" transform="translate(660.55 347.215)" fill="#999"/>
      <rect id="矩形_1535" data-name="矩形 1535" width="14.455" height="3.996" transform="translate(660.55 356.852)" fill="#ededed"/>
      <rect id="矩形_1536" data-name="矩形 1536" width="43.991" height="36.065" transform="translate(610.435 326.95)" fill="#f2f2f2"/>
      <circle id="椭圆_56" data-name="椭圆 56" cx="11" cy="11" r="11" transform="translate(621 334)" fill="#ff4d4f"/>
      <g id="组_3615" data-name="组 3615" transform="translate(-4)">
        <path id="路径_1262" data-name="路径 1262" d="M11845.112,7585.589l7.72-7.72" transform="translate(-11213 -7237)" fill="none" stroke="#fff" stroke-linecap="round" stroke-width="1"/>
        <path id="路径_1263" data-name="路径 1263" d="M11845.112,7585.589l7.72-7.72" transform="translate(8217.701 -11504.242) rotate(90)" fill="none" stroke="#fff" stroke-linecap="round" stroke-width="1"/>
      </g>
    </g>
    <g id="组_3618" data-name="组 3618" transform="translate(0 -34)">
      <path id="路径_1243" data-name="路径 1243" d="M249.427,83.337c1.136,4.376,4.8,7.2,8.193,6.323" transform="translate(353.355 231.528)" fill="#f2f2f2"/>
      <path id="路径_1244" data-name="路径 1244" d="M359.931,44.747c-1.149-4.425.985-8.8,4.771-9.783" transform="translate(251.044 276.441)" fill="#f2f2f2"/>
      <path id="路径_1245" data-name="路径 1245" d="M281.956,80.812c1.079,4.157,3.7,7.066,5.866,6.5" transform="translate(323.153 233.872)" fill="#999"/>
      <path id="路径_1246" data-name="路径 1246" d="M358.3,12.284C356.831,6.63,359.184,1.136,363.56,0" transform="translate(252.676 308.904)" fill="#999"/>
      <path id="路径_1247" data-name="路径 1247" d="M346.116,163.371a3.3,3.3,0,0,0,1.077-.508c.214-.255,1.233-.757,1.375-.475s1.695,1.15.714,1.413a8.6,8.6,0,0,1-2.626.348C346.353,164.059,346.116,163.371,346.116,163.371Z" transform="translate(263.582 158.208)" fill="#999"/>
      <path id="路径_1248" data-name="路径 1248" d="M349.273,177.419a8.6,8.6,0,0,1-2.626.348c-.231-.07-.424-.485-.5-.679l-.029.009s.237.688.541.779a8.6,8.6,0,0,0,2.626-.348c.283-.076.355-.2.311-.35C349.578,177.278,349.484,177.362,349.273,177.419Z" transform="translate(263.582 144.482)" opacity="0.2" style="isolation: isolate"/>
    </g>
  </g>
</svg>
