<svg xmlns="http://www.w3.org/2000/svg" width="150.246" height="90.502" viewBox="0 0 150.246 90.502">
  <g id="组_3644" data-name="组 3644" transform="translate(-558.916 -334.236)">
    <path id="路径_1265" data-name="路径 1265" d="M9.852,360.588l-.9-3.559a46.245,46.245,0,0,0-4.9-1.759l-.114,1.654L3.472,355.1c-2.066-.59-3.472-.85-3.472-.85a44.287,44.287,0,0,0,5.881,12.739l4.64.815-3.6.52a18.7,18.7,0,0,0,1.612,1.709c5.793,5.377,12.245,7.844,14.411,5.51s-.774-8.585-6.566-13.962a24.613,24.613,0,0,0-6.31-4.057Z" transform="translate(558.916 39.912)" fill="#e6e6e6"/>
    <path id="路径_1266" data-name="路径 1266" d="M75.546,317.215l1.067-3.513a46.2,46.2,0,0,0-3.288-4.04l-.952,1.357.546-1.8c-1.464-1.573-2.532-2.522-2.532-2.522a44.282,44.282,0,0,0-1.551,13.945l3.551,3.1-3.354-1.418a18.7,18.7,0,0,0,.5,2.3c2.18,7.6,6.428,13.044,9.488,12.166s3.775-7.749,1.6-15.346a24.619,24.619,0,0,0-3.3-6.735Z" transform="translate(501.803 79.42)" fill="#e6e6e6"/>
    <rect id="矩形_1537" data-name="矩形 1537" width="150.233" height="0.379" transform="translate(558.93 416.732)" fill="#3f3d56"/>
    <path id="路径_1267" data-name="路径 1267" d="M120.865,248.213s-1.17,14.067-1.421,17.082a21.437,21.437,0,0,1-1.256,5.526,5.2,5.2,0,0,0-.5,2.01v12.811a.747.747,0,0,0-.754,1c.251,1,.5,2.763.5,2.763H121.2a.778.778,0,0,1,.5-1c.754-.251,0-2.261,0-2.261l4.019-15.072,6.029-12.56s3.517,11.3,4.27,12.56c0,0,2.763,14.067,3.266,15.323s.754,1.256.5,1.758a1.121,1.121,0,0,0,0,1.256c.251.251,5.024,0,5.024,0l-1.256-17.835L141.3,250.223l-11.555-3.517Z" transform="translate(461.8 129.263)" fill="#06286d"/>
    <path id="路径_1268" data-name="路径 1268" d="M104.928,475.727s-1.256-4.522-3.266-1-2.01,4.773-2.01,4.773-3.266,4.773,1.256,4.27S104.425,481,104.425,481s1.758-1,1.758-1.758A18.018,18.018,0,0,0,104.928,475.727Z" transform="translate(477.07 -59.065)" fill="#2f2e41"/>
    <path id="路径_1269" data-name="路径 1269" d="M250.531,472.758s1.256-4.522,3.266-1,2.01,4.773,2.01,4.773,3.266,4.773-1.256,4.27-3.517-2.763-3.517-2.763-1.758-1-1.758-1.758A18.017,18.017,0,0,1,250.531,472.758Z" transform="translate(351.814 -56.598)" fill="#2f2e41"/>
    <path id="路径_1270" data-name="路径 1270" d="M180.55,55.171s.5,3.266-1,4.019,3.266,3.517,4.522,3.517,3.517-2.512,3.517-2.512-1.256-3.768-1-4.522Z" transform="translate(409.988 288.394)" fill="#ffd8bb"/>
    <circle id="椭圆_57" data-name="椭圆 57" cx="5.275" cy="5.275" r="5.275" transform="translate(588.026 335.527)" fill="#ffd8bb"/>
    <path id="路径_1271" data-name="路径 1271" d="M160.054,81.712l-6.28-3.8s-3.573,4.056-7.438-.466L139.707,79.2l1,17.081s-1.507,6.782-1,8.038-1.256,1.758-.754,2.01-4.793,19.136-4.793,19.136,19.35,3.768,30.151,0l-5.764-19.136a2.636,2.636,0,0,0-.5-2.512,2.223,2.223,0,0,0-.251-2.763s.5-2.261-.754-3.266l-.251-3.517.754-1.758Z" transform="translate(443.547 269.891)" fill="#f2f2f2"/>
    <path id="路径_1272" data-name="路径 1272" d="M173.242,4.121a2.332,2.332,0,0,0,2.8.971c1.721-.742,2.287,1.142,5.746.6,0,0,.884-6.2-6.663-5.652s-3.834,9.17-3.834,9.17.061-1.548.69-.732S173.242,4.121,173.242,4.121Z" transform="translate(417.36 334.231)" fill="#06286d"/>
    <path id="路径_1273" data-name="路径 1273" d="M254.318,162.074l.251,5.275s1,9.8-1,14.067v2.261s-.5,5.778-3.014,5.526.754-8.29.754-8.29l-.5-11.052-.5-6.28Z" transform="translate(351.544 199.577)" fill="#ffd8bb"/>
    <path id="路径_1274" data-name="路径 1274" d="M236.688,102.169l2.506-.407a12.234,12.234,0,0,1,3.523,6.436c.754,4.019,1,4.773,1,4.773l-6.029,1.507-3.266-6.28Z" transform="translate(364.15 249.685)" fill="#cfcce0"/>
    <rect id="矩形_1538" data-name="矩形 1538" width="39.641" height="19.692" transform="translate(590.048 348.988)" fill="#fff"/>
    <path id="路径_1275" data-name="路径 1275" d="M196.278,91.552a4.632,4.632,0,0,0-2.713-.519,4,4,0,0,0,4.443,2.673A4.635,4.635,0,0,0,196.278,91.552Z" transform="translate(398.099 258.62)" fill="#154bcc"/>
    <path id="路径_1276" data-name="路径 1276" d="M199.6,166.056h-6.365a1.432,1.432,0,1,0,0,2.864H199.6a1.432,1.432,0,0,0,0-2.864Z" transform="translate(399.565 196.269)" fill="#154bcc"/>
    <path id="路径_1277" data-name="路径 1277" d="M217.481,76.7H181.793a3.161,3.161,0,0,0-3.161,3.161h0V97.249a3.161,3.161,0,0,0,3.161,3.161h35.688a3.161,3.161,0,0,0,3.161-3.161V79.861a3.161,3.161,0,0,0-3.161-3.161ZM180.91,78.856a4.363,4.363,0,0,1,5.062,3.046l.056.174-.179.032a4.767,4.767,0,0,1-.775.057,4.611,4.611,0,0,1-2.351-.592,4.993,4.993,0,0,1-1.937-2.51l-.056-.174ZM188.657,95h-6.365a1.75,1.75,0,0,1,0-3.5h6.365a1.75,1.75,0,0,1,0,3.5Zm28.962-.318a1.915,1.915,0,0,1-1.91,1.91h-4.774a1.915,1.915,0,0,1-1.91-1.91V91.817a1.915,1.915,0,0,1,1.91-1.91h4.774a1.915,1.915,0,0,1,1.91,1.91Z" transform="translate(410.505 270.507)" fill="#376def"/>
    <path id="路径_1278" data-name="路径 1278" d="M365.2,179.694h-1.737a.468.468,0,0,0,0,.936H365.2a.468.468,0,0,0,0-.936Zm0,.668h-1.737a.2.2,0,1,1,0-.4H365.2a.2.2,0,0,1,0,.4Z" transform="translate(257.894 184.798)" fill="#376def"/>
    <path id="路径_1279" data-name="路径 1279" d="M387.772,179.694h-1.737a.468.468,0,0,0,0,.936h1.737a.468.468,0,0,0,0-.936Zm0,.668h-1.737a.2.2,0,0,1,0-.4h1.738a.2.2,0,0,1,0,.4Z" transform="translate(238.527 184.798)" fill="#376def"/>
    <path id="路径_1280" data-name="路径 1280" d="M365.2,171.229h-1.737a.468.468,0,0,0,0,.936H365.2a.468.468,0,0,0,0-.936Zm0,.668h-1.737a.2.2,0,1,1,0-.4H365.2a.2.2,0,0,1,0,.4Z" transform="translate(257.894 192.06)" fill="#376def"/>
    <path id="路径_1281" data-name="路径 1281" d="M387.772,171.229h-1.737a.468.468,0,0,0,0,.936h1.737a.468.468,0,0,0,0-.936Zm0,.668h-1.737a.2.2,0,0,1,0-.4h1.738a.2.2,0,0,1,0,.4Z" transform="translate(238.527 192.06)" fill="#376def"/>
    <path id="路径_1282" data-name="路径 1282" d="M365.2,162.763h-1.737a.468.468,0,0,0,0,.936H365.2a.468.468,0,0,0,0-.936Zm0,.668h-1.737a.2.2,0,1,1,0-.4H365.2a.2.2,0,0,1,0,.4Z" transform="translate(257.894 199.323)" fill="#376def"/>
    <path id="路径_1283" data-name="路径 1283" d="M387.772,162.763h-1.737a.468.468,0,0,0,0,.936h1.737a.468.468,0,0,0,0-.936Zm0,.668h-1.737a.2.2,0,1,1,0-.4h1.738a.2.2,0,0,1,0,.4Z" transform="translate(238.527 199.323)" fill="#376def"/>
    <path id="路径_1284" data-name="路径 1284" d="M117.307,113.239s-2.261,9.545.5,9.545,9.294-10.8,9.294-10.8,6.782-3.517,4.019-4.773-6.28,2.01-6.28,2.01l-4.058,5.634-.212-2.87Z" transform="translate(462.178 245.398)" fill="#ffd8bb"/>
    <path id="路径_1285" data-name="路径 1285" d="M121.925,89.342l-1.507-1.507s-3.014,1.758-3.266,3.517-1.507,7.285-1.507,7.285l4.647.377,1.507-2.261Z" transform="translate(462.836 261.256)" fill="#f2f2f2"/>
    <path id="路径_1316" data-name="路径 1316" d="M9079.708,9745.054l22.859,17.118-.037-49.314-23.93,8.68Z" transform="translate(-8451 -9374.02)" fill="#376def" opacity="0.029"/>
    <rect id="矩形_1549" data-name="矩形 1549" width="43" height="51" rx="4" transform="translate(650 338)" fill="#f0f5ff"/>
    <circle id="椭圆_58" data-name="椭圆 58" cx="1.692" cy="1.692" r="1.692" transform="translate(658.073 348.066)" fill="#95b4ff"/>
    <rect id="矩形_1539" data-name="矩形 1539" width="17.891" height="0.338" transform="translate(666.109 349.589)" fill="#95b4ff"/>
    <circle id="椭圆_59" data-name="椭圆 59" cx="1.692" cy="1.692" r="1.692" transform="translate(658.073 357.709)" fill="#95b4ff"/>
    <rect id="矩形_1540" data-name="矩形 1540" width="17.891" height="0.338" transform="translate(666.109 359.232)" fill="#95b4ff"/>
    <circle id="椭圆_60" data-name="椭圆 60" cx="1.692" cy="1.692" r="1.692" transform="translate(658.073 366.618)" fill="#95b4ff"/>
    <rect id="矩形_1541" data-name="矩形 1541" width="17.891" height="0.338" transform="translate(666.109 368.14)" fill="#95b4ff"/>
    <g id="组_3646" data-name="组 3646">
      <circle id="椭圆_66" data-name="椭圆 66" cx="8" cy="8" r="8" transform="translate(674 371)" fill="#ff4d4f"/>
      <g id="组_3645" data-name="组 3645" transform="translate(-1.007 0.43)">
        <g id="路径_1317" data-name="路径 1317" transform="translate(680.181 382.641) rotate(-135)" fill="#fff">
          <path d="M 0.584585964679718 9.238391876220703 L 1.08755886554718 0.6128586530685425 C 1.089796662330627 0.5745174884796143 1.129485845565796 0.5294368267059326 1.169032335281372 0.5152248740196228 L 0.6660588383674622 9.140758514404297 C 0.6638209819793701 9.179100036621094 0.6241323947906494 9.224180221557617 0.584585964679718 9.238391876220703 Z" stroke="none"/>
          <path d="M 1.192410349845886 0.01071357727050781 C 1.475140571594238 0.01071357727050781 1.686334371566772 0.2328634262084961 1.669558763504028 0.5206985473632812 L 1.16520881652832 9.169868469238281 C 1.147798776626587 9.468419075012207 0.8916687965393066 9.72455883026123 0.5931187868118286 9.741969108581543 C 0.5824042558670044 9.742592811584473 0.5717488527297974 9.742901802062988 0.5612243413925171 9.742901802062988 C 0.2784942388534546 9.742901802062988 0.0672832727432251 9.520744323730469 0.08405888080596924 9.232918739318848 L 0.5884088277816772 0.5837488174438477 C 0.6058188676834106 0.2851982116699219 0.8619488477706909 0.02905845642089844 1.160498857498169 0.01164817810058594 C 1.171213388442993 0.01102352142333984 1.181885838508606 0.01071357727050781 1.192410349845886 0.01071357727050781 Z" stroke="none" fill="#fff"/>
        </g>
        <g id="路径_1318" data-name="路径 1318" transform="translate(679.013 375.693) rotate(-45)" fill="#fff">
          <path d="M 1.081661701202393 9.223442077636719 C 1.042120933532715 9.209223747253418 1.002437710762024 9.164148330688477 1.000200271606445 9.125812530517578 L 0.4972387254238129 0.5002831816673279 C 0.536779522895813 0.5145019888877869 0.5764626860618591 0.5595769882202148 0.5787002444267273 0.5979126691818237 L 1.081661701202393 9.223442077636719 Z" stroke="none"/>
          <path d="M 0.4738487005233765 -0.004232406616210938 C 0.4843907356262207 -0.004232406616210938 0.4950274229049683 -0.003923416137695312 0.5057601928710938 -0.003297805786132812 C 0.8043102025985718 0.01411247253417969 1.060440301895142 0.2702522277832031 1.077850222587585 0.5688028335571289 L 1.582190275192261 9.217972755432129 C 1.598974347114563 9.505789756774902 1.387754917144775 9.727957725524902 1.105051755905151 9.727957725524902 C 1.094509720802307 9.727957725524902 1.08387303352356 9.727648735046387 1.073140144348145 9.727023124694824 C 0.7745902538299561 9.709612846374512 0.5184602737426758 9.453473091125488 0.5010502338409424 9.154922485351562 L -0.00328981876373291 0.5057525634765625 C -0.02007389068603516 0.2179355621337891 0.1911454200744629 -0.004232406616210938 0.4738487005233765 -0.004232406616210938 Z" stroke="none" fill="#fff"/>
        </g>
      </g>
    </g>
  </g>
</svg>
