<svg id="Group_94_Copy" data-name="Group 94 Copy" xmlns="http://www.w3.org/2000/svg" width="16" height="16" viewBox="0 0 16 16">
  <defs>
    <style>
      .cls-1 {
        fill: none;
      }

      .cls-2 {
        fill: rgba(59,184,176,1);
      }
    </style>
  </defs>
  <rect id="Rectangle_37_Copy_23" data-name="Rectangle 37 Copy 23" class="cls-1" width="16" height="16"/>
  <g id="filetext" transform="translate(2.029 0)">
    <path id="Shape" class="cls-2" d="M10.851,16H1.138A1.133,1.133,0,0,1,0,14.875V1.125A1.133,1.133,0,0,1,1.138,0H6.517a1.142,1.142,0,0,1,.453.1L6.986.1l.007,0,.021.01L7.08.153a1.211,1.211,0,0,1,.229.18l4.332,4.382a1.117,1.117,0,0,1,.318.793v9.367A1.1,1.1,0,0,1,10.851,16ZM1.123,1.125v13.75h9.713V6H7.11A1.133,1.133,0,0,1,5.971,4.875V1.125Zm5.971.6v3.15h3.131Zm.452,11.4H2.557a.563.563,0,0,1,0-1.125H7.546a.563.563,0,0,1,0,1.125Zm2-2.5H2.557a.563.563,0,0,1,0-1.125H9.541a.563.563,0,0,1,0,1.125Zm-2.993-2.5H2.557A.563.563,0,0,1,2.557,7H6.548a.563.563,0,0,1,0,1.125Z" transform="translate(0 0)"/>
  </g>
</svg>
