<svg xmlns="http://www.w3.org/2000/svg" width="14" height="14" viewBox="0 0 14 14">
  <defs>
    <style>
      .cls-1 {
        fill: #ff4d4f;
      }
    </style>
  </defs>
  <g id="exclamation-circle-o" transform="translate(-2 -3)">
    <path id="Shape" class="cls-1" d="M7,14A7,7,0,0,1,2.05,2.05a7,7,0,0,1,9.9,9.9A6.955,6.955,0,0,1,7,14ZM7,.984a6.017,6.017,0,0,0-2.34,11.559,6.016,6.016,0,0,0,6.594-9.8A5.99,5.99,0,0,0,7,.984Zm0,9.871a.615.615,0,1,1,.615-.615A.616.616,0,0,1,7,10.855ZM7,8.75A.547.547,0,0,1,6.453,8.2V3.158a.547.547,0,1,1,1.094,0V8.2A.548.548,0,0,1,7,8.75Z" transform="translate(2 3)"/>
  </g>
</svg>
