<svg xmlns="http://www.w3.org/2000/svg" width="14.994" height="16.869" viewBox="0 0 14.994 16.869">
  <defs>
    <style>
      .cls-1 {
        fill: #ff4d4f;
      }
    </style>
  </defs>
  <g id="删_除" data-name="删 除" transform="translate(0 0)">
    <path id="路径_88" data-name="路径 88" class="cls-1" d="M227.578,175.886h-3.4a3.191,3.191,0,0,0-6.378,0H214.13a.8.8,0,0,0,0,1.6h1.329v9.1c0,1.7,0,3.086,2.232,3.086h6.272c2.232,0,2.232-1.384,2.232-3.086v-9.046h1.329a.818.818,0,0,0,.8-.8A.757.757,0,0,0,227.578,175.886Zm-6.591-1.543a1.638,1.638,0,0,1,1.648,1.543h-3.3A1.638,1.638,0,0,1,220.987,174.343Zm2.923,13.835H217.8c-.85,0-.9-.639-.9-1.6v-9.046h7.92v9.1C224.814,187.54,224.867,188.178,223.91,188.178Z" transform="translate(-213.333 -172.8)"/>
    <path id="路径_89" data-name="路径 89" class="cls-1" d="M431.9,452.267a1.1,1.1,0,0,0-.965,1.188v6.68a.986.986,0,1,0,1.93,0v-6.68A1.1,1.1,0,0,0,431.9,452.267Zm3.934,0a1.1,1.1,0,0,0-.965,1.188v6.68a.986.986,0,1,0,1.93,0v-6.68A1.1,1.1,0,0,0,435.832,452.267Z" transform="translate(-426.347 -447.018)"/>
  </g>
</svg>
