<svg id="Button__Resources_Icon_Save" data-name="Button/_Resources/Icon/Save" xmlns="http://www.w3.org/2000/svg" xmlns:xlink="http://www.w3.org/1999/xlink" width="15" height="15" viewBox="0 0 15 15">
  <defs>
    <style>
      .cls-1 {
        fill: none;
      }

      .cls-2 {
        fill: rgba(0,0,0,0);
      }

      .cls-3 {
        clip-path: url(#clip-path);
      }

      .cls-4 {
        fill: rgba(59,184,176,1);
      }
    </style>
    <clipPath id="clip-path">
      <path id="Mask" class="cls-1" d="M10.421,10.5H1.079A1.037,1.037,0,0,1,0,9.515V.985A1.037,1.037,0,0,1,1.079,0H7.826L11.5,3.353V9.515A1.037,1.037,0,0,1,10.421,10.5ZM1.079.985V9.515h9.34V3.761L7.38.985H7.345V3.8A1.556,1.556,0,0,1,5.726,5.283H3.552A1.556,1.556,0,0,1,1.933,3.8V.985Zm1.933,0V3.8a.518.518,0,0,0,.539.493H5.726a.519.519,0,0,0,.54-.493V.985Zm2.1,2.326a.519.519,0,0,1-.54-.493V2.23a.542.542,0,0,1,1.08,0v.589A.519.519,0,0,1,5.111,3.312Z"/>
    </clipPath>
  </defs>
  <rect id="Button__Resources_Icon_Save_background" data-name="Button/_Resources/Icon/Save background" class="cls-2" width="15" height="15"/>
  <path id="Mask-2" data-name="Mask" class="cls-1" d="M10.421,11.5H1.079A1.081,1.081,0,0,1,0,10.421V1.079A1.08,1.08,0,0,1,1.079,0H7.826L11.5,3.672v6.749A1.081,1.081,0,0,1,10.421,11.5ZM1.079,1.079v9.341h9.34v-6.3L7.38,1.079H7.345V4.166a1.621,1.621,0,0,1-1.619,1.62H3.552a1.621,1.621,0,0,1-1.619-1.62V1.079Zm1.933,0V4.166a.54.54,0,0,0,.539.54H5.726a.541.541,0,0,0,.54-.54V1.079Zm2.1,2.548a.541.541,0,0,1-.54-.54V2.443a.54.54,0,1,1,1.08,0v.645A.541.541,0,0,1,5.111,3.627Z" transform="translate(1.75 1.75)"/>
  <g id="组_1945" data-name="组 1945" class="cls-3" transform="translate(2 2)">
    <g id="Button__Resources_Color_Black" data-name="Button/_Resources/Color/Black" transform="translate(-33.222 -28.583)">
      <rect id="Button__Resources_Color_Black_background" data-name="Button/_Resources/Color/Black background" class="cls-4" width="76.667" height="70"/>
      <circle id="Oval_Copy_4" data-name="Oval Copy 4" class="cls-4" cx="35" cy="35" r="35"/>
    </g>
  </g>
</svg>
