<svg xmlns="http://www.w3.org/2000/svg" width="358.594" height="305.556" viewBox="0 0 358.594 305.556">
  <defs>
    <style>
      .cls-1, .cls-5 {
        fill: #376def;
      }

      .cls-1 {
        opacity: 0.1;
      }

      .cls-2 {
        fill: #535461;
      }

      .cls-3 {
        fill: #3f3d56;
      }

      .cls-4 {
        fill: #9d9cb5;
      }

      .cls-6 {
        fill: none;
        stroke: #fff;
        stroke-linecap: round;
        stroke-miterlimit: 10;
      }

      .cls-7 {
        fill: #eaf0fe;
      }

      .cls-8 {
        fill: #ccc;
      }

      .cls-9 {
        fill: #2f2e41;
      }

      .cls-10 {
        fill: #06286d;
      }

      .cls-11 {
        fill: #ffd8bb;
      }

      .cls-12 {
        fill: #f2f2f2;
      }
    </style>
  </defs>
  <g id="组_4018" data-name="组 4018" transform="translate(-207.512 -178.397)">
    <g id="组_4017" data-name="组 4017" transform="translate(207.512 224.393)">
      <path id="路径_1393" data-name="路径 1393" class="cls-1" d="M12.247,338.2H45.2v44.9H14.682c-.065.455-.162.909-.26,1.4H45.2V420.73c-.065,0-.1-.032-.162-.065-.877-.357-1.721-.714-2.6-1.1l-.552-.26c-.877-.422-1.721-.844-2.6-1.3-.292-.162-.617-.325-.909-.487a53.7,53.7,0,0,1-12.954-10.13l-.325-.325c-.519-.584-1.039-1.136-1.558-1.753l-.552-.649c-.584-.714-1.169-1.461-1.721-2.208a2.274,2.274,0,0,0-.26-.325,47.882,47.882,0,0,1-5.584-10.1c-.032-.1-.1-.227-.13-.325-.455-1.136-.844-2.305-1.2-3.474-.162-.487-.292-.974-.422-1.493-.032-.162-.1-.292-.13-.455-1.851-7.208-2.045-14.675-2.045-22.11v-2.6c0-2.987.032-6.039.1-9.058,0-.779.032-1.558.065-2.338.032-1.98.1-3.993.195-5.974.032-.552.032-1.1.065-1.656a4.441,4.441,0,0,1,.065-.942C12.117,340.505,12.182,339.336,12.247,338.2Z" transform="translate(-7.929 -228.391)"/>
      <path id="路径_1394" data-name="路径 1394" class="cls-1" d="M77.751,136.656H59.7a132.281,132.281,0,0,1,9.61-13.246c2.695-3.312,5.519-6.526,8.474-9.61v22.856Z" transform="translate(-40.48 -76.846)"/>
      <path id="路径_1395" data-name="路径 1395" class="cls-1" d="M47.024,188.5v47.239H14.2c0-.13.032-.292.032-.422.032-.357.065-.747.1-1.1.032-.422.065-.877.13-1.3s.1-.942.13-1.429.1-.942.162-1.429.1-.942.162-1.4.1-.942.162-1.4c.065-.39.1-.779.162-1.169.065-.552.162-1.1.227-1.656,0-.065.032-.162.032-.26a112.63,112.63,0,0,1,2.4-11.85,87.257,87.257,0,0,1,4.091-12.013A90.594,90.594,0,0,1,28.128,188.5Z" transform="translate(-9.752 -127.293)"/>
      <path id="路径_1396" data-name="路径 1396" class="cls-1" d="M139.6,109.787v44.9h70.388v-44.9Zm0,46.3v38.57c.39.1.812.162,1.2.227.552.1,1.071.195,1.623.292.1,0,.195.032.325.032.227.032.422.065.649.1.552.065,1.071.13,1.623.195a6.3,6.3,0,0,0,.779.065l.617.065h0c.357.032.682.032,1.006.065.195,0,.422.032.617.032h2.305a7.34,7.34,0,0,0,.844-.032h.032a3.531,3.531,0,0,0,.584-.032h.162a2.457,2.457,0,0,0,.487-.032h.13l1.1-.1,1.071-.1.747-.1a68.751,68.751,0,0,0,8.9-1.883c6.558-1.818,12.987-4.383,19.545-6.266,8.474-2.435,17.857-3.6,26.038-.649V156.117H139.6Zm70.355-96.3V-.015A88.944,88.944,0,0,0,187.1,2.68c-17.824,4.48-33.8,14.188-47.5,26.59V59.789h3.539v1.4H139.6v47.239h70.388V61.185H157.619v-1.4Zm90.419-20.194a29.38,29.38,0,0,1-12.759-3.7c-7.565-4.123-13.636-10.487-20.389-15.876A93.422,93.422,0,0,0,217.844.407V59.789H318.3l.26-.26Zm9.156-1.623,9.708,10.649V35.179a37.524,37.524,0,0,0-9.708,2.792Zm9.675,166.261V156.085H298.524c-.065-.195-.1-.422-.162-.617.065.195.1.422.162.617h-80.68v34.8c.779.584,1.526,1.169,2.273,1.786h0c.812.649,1.623,1.331,2.4,2.013l.812.682c.39.325.779.649,1.169.942.779.617,1.558,1.266,2.37,1.883.39.325.812.617,1.2.909a162.862,162.862,0,0,0,20,13.084c1.558.877,3.149,1.721,4.74,2.532,1.071.552,2.143,1.071,3.214,1.591,1.623.779,3.247,1.558,4.87,2.273h0a177.73,177.73,0,0,0,47.4,13.8c3.636.552,7.273.974,10.941,1.266l-.033-29.415h0ZM217.844,61.185v47.239H319.238V61.185Zm0,48.6v44.9H319.238v-44.9Zm109.25-74.673v15l12.4-13.6c-4.123-.649-8.247-1.136-12.4-1.4Zm0,74.673v44.9h98.633v-44.9ZM425.371,207.8l.357-51.719H327.095V234.2a177.629,177.629,0,0,0,19.058-.227h.1c3.019-.195,6.039-.455,9.058-.844h.065a166.138,166.138,0,0,0,46.492-12.4M444.721,117.19c-.357-.877-.747-1.753-1.136-2.6-.747-1.623-1.526-3.214-2.305-4.773h-7.695v44.9h19.448c0-12.727-3.214-25.714-8.311-37.531Zm-11.136,38.927V200.6a64.059,64.059,0,0,0,13.441-18.116,62.855,62.855,0,0,0,6.006-26.363Zm0-59.414v11.688h6.98a124.748,124.748,0,0,0-6.98-11.688ZM366.7,43.913l-1.558-.584a142.3,142.3,0,0,0-16.655-5L329.53,59.139h0l-.357.39.26.26H396.9A145.679,145.679,0,0,0,366.7,43.913Zm32.174,17.272H328.491l-1.4,1.266v45.94h98.633V86.152a139.893,139.893,0,0,0-26.85-24.967Z" transform="translate(-94.439 0.022)"/>
      <path id="路径_1397" data-name="路径 1397" class="cls-1" d="M47.024,261.8v23.408H14.2c0-.13.032-.292.032-.422.032-.357.065-.747.1-1.1.032-.422.065-.877.13-1.3s.1-.942.13-1.429.1-.941.162-1.428.1-.942.162-1.4.1-.942.162-1.4c.065-.39.1-.779.162-1.169.065-.552.162-1.1.227-1.656,0-.065.032-.162.032-.26a112.634,112.634,0,0,1,2.4-11.85Z" transform="translate(-9.752 -176.795)"/>
      <path id="路径_1398" data-name="路径 1398" class="cls-1" d="M12.247,338.2H45.2v44.9H14.682c-.065.455-.162.909-.26,1.4H45.2V420.73c-.065,0-.1-.032-.162-.065-.877-.357-1.721-.714-2.6-1.1l-.552-.26c-.877-.422-1.721-.844-2.6-1.3-.292-.162-.617-.325-.909-.487a53.7,53.7,0,0,1-12.954-10.13l-.325-.325c-.519-.584-1.039-1.136-1.558-1.753l-.552-.649c-.584-.714-1.169-1.461-1.721-2.208a2.274,2.274,0,0,0-.26-.325,47.882,47.882,0,0,1-5.584-10.1c-.032-.1-.1-.227-.13-.325-.455-1.136-.844-2.305-1.2-3.474-.162-.487-.292-.974-.422-1.493-.032-.162-.1-.292-.13-.455-1.851-7.208-2.045-14.675-2.045-22.11v-2.6c0-2.987.032-6.039.1-9.058,0-.779.032-1.558.065-2.338.032-1.98.1-3.993.195-5.974.032-.552.032-1.1.065-1.656a4.441,4.441,0,0,1,.065-.942C12.117,340.505,12.182,339.336,12.247,338.2Z" transform="translate(-7.929 -228.391)"/>
      <path id="路径_1399" data-name="路径 1399" class="cls-1" d="M164.372,180.8v40.453H139.6V180.8h3.506V167.1h14.513v13.7Z" transform="translate(-94.439 -112.841)"/>
      <rect id="矩形_1753" data-name="矩形 1753" class="cls-1" width="24.772" height="44.901" transform="translate(45.161 109.809)"/>
      <path id="路径_1400" data-name="路径 1400" class="cls-1" d="M139.6,480.8h24.772v37.337a64.732,64.732,0,0,1-8.9,1.883l-.747.1-1.071.1c-.357.032-.714.065-1.1.1h-.13c-.162,0-.325.032-.487.032h-.162c-.195,0-.39.032-.584.032h0c-.292,0-.552.033-.844.033h-2.305l-.617-.033c-.325,0-.682-.032-1.006-.065h0l-.617-.032-.779-.065c-.552-.065-1.1-.1-1.623-.195l-.649-.1-.325-.033c-.552-.1-1.071-.162-1.623-.292-.39-.065-.779-.162-1.2-.227Z" transform="translate(-94.439 -324.694)"/>
      <path id="路径_1401" data-name="路径 1401" class="cls-1" d="M481.993,338.2v44.9H380.6v-19.35h53.992v11.428h26.98V338.2Z" transform="translate(-257.195 -228.391)"/>
      <path id="路径_1402" data-name="路径 1402" class="cls-1" d="M482.385,527.665h-.325v29.48c-3.669-.325-7.3-.714-10.941-1.266a179.225,179.225,0,0,1-47.434-13.831c-4.351-1.948-8.636-4.091-12.792-6.428a162.876,162.876,0,0,1-20-13.084c-1.591-1.234-3.149-2.468-4.708-3.734-1.071-.877-2.143-1.786-3.214-2.662-.747-.617-1.493-1.2-2.273-1.786V479.517h80.712c-.065-.195-.1-.422-.162-.617a4.329,4.329,0,0,1,.162.617h20.681v48.148Z" transform="translate(-257.262 -323.41)"/>
      <path id="路径_1403" data-name="路径 1403" class="cls-1" d="M1067.384,398.431H1049.3V360.9h9.773C1064.17,372.75,1067.384,385.737,1067.384,398.431Z" transform="translate(-708.79 -243.721)"/>
      <rect id="矩形_1754" data-name="矩形 1754" class="cls-1" width="10.941" height="14.188" transform="translate(213.857 134.549)"/>
      <rect id="矩形_1755" data-name="矩形 1755" class="cls-1" width="10.941" height="14.188" transform="translate(213.857 163.963)"/>
      <path id="路径_1404" data-name="路径 1404" class="cls-1" d="M670.141,606.476a1.107,1.107,0,0,1,.325.032l-.325-.032v3.312H659.2V595.6h10.941Z" transform="translate(-445.343 -402.222)"/>
      <path id="路径_1405" data-name="路径 1405" class="cls-1" d="M670.141,686.1v10.974c-3.669-.325-7.305-.714-10.941-1.266V686.1Z" transform="translate(-445.343 -463.34)"/>
      <rect id="矩形_1756" data-name="矩形 1756" class="cls-1" width="46.914" height="1.039" transform="translate(123.406 153.671)"/>
      <rect id="矩形_1757" data-name="矩形 1757" class="cls-1" width="46.914" height="3.993" transform="translate(123.406 156.106)"/>
      <rect id="矩形_1758" data-name="矩形 1758" class="cls-1" width="46.914" height="6.428" transform="translate(123.406 173.184)"/>
      <path id="路径_1406" data-name="路径 1406" class="cls-1" d="M432.209,593.5v6.428H395.522c-1.591-1.2-3.182-2.467-4.708-3.734-1.071-.877-2.143-1.786-3.214-2.662Z" transform="translate(-261.922 -400.804)"/>
      <path id="路径_1407" data-name="路径 1407" class="cls-1" d="M490.355,653.6v6.428h-3.864c-4.351-1.948-8.636-4.091-12.792-6.428Z" transform="translate(-320.068 -441.391)"/>
      <rect id="矩形_1759" data-name="矩形 1759" class="cls-1" width="9.221" height="9.221" transform="translate(251.714 114.16)"/>
      <rect id="矩形_1760" data-name="矩形 1760" class="cls-1" width="9.221" height="9.221" transform="translate(51.817 71.141)"/>
      <rect id="矩形_1761" data-name="矩形 1761" class="cls-1" width="9.221" height="9.221" transform="translate(51.817 92.602)"/>
      <rect id="矩形_1762" data-name="矩形 1762" class="cls-1" width="9.221" height="9.221" transform="translate(51.817 114.03)"/>
      <rect id="矩形_1763" data-name="矩形 1763" class="cls-1" width="9.221" height="9.221" transform="translate(51.817 135.49)"/>
      <rect id="矩形_1764" data-name="矩形 1764" class="cls-1" width="9.221" height="9.221" transform="translate(51.817 156.918)"/>
      <rect id="矩形_1765" data-name="矩形 1765" class="cls-1" width="9.221" height="9.221" transform="translate(51.817 178.379)"/>
      <rect id="矩形_1766" data-name="矩形 1766" class="cls-1" width="9.221" height="9.221" transform="translate(251.714 136.951)"/>
      <rect id="矩形_1767" data-name="矩形 1767" class="cls-1" width="9.221" height="9.221" transform="translate(251.714 159.71)"/>
      <rect id="矩形_1768" data-name="矩形 1768" class="cls-1" width="9.221" height="9.221" transform="translate(251.714 182.469)"/>
      <rect id="矩形_1769" data-name="矩形 1769" class="cls-1" width="9.221" height="9.221" transform="translate(251.714 205.261)"/>
      <path id="路径_1408" data-name="路径 1408" class="cls-1" d="M775.8,708.274V702.3h9.253v5.13Z" transform="translate(-524.086 -474.28)"/>
      <path id="路径_1409" data-name="路径 1409" class="cls-1" d="M18,298.4v5.292H49.59V298.4Zm3.149,4.935H18.584v-4.61h2.6Zm3.149,0H21.7v-4.61h2.6Zm3.149,0h-2.6v-4.61h2.6Zm3.149,0H28v-4.61h2.6Zm3.117,0h-2.6v-4.61h2.6Zm3.149,0h-2.6v-4.61h2.6Zm3.149,0h-2.6v-4.61h2.6Zm3.149,0h-2.6v-4.61h2.6Zm3.149,0h-2.6v-4.61h2.6Zm3.149,0h-2.6v-4.61h2.6Z" transform="translate(-12.318 -201.513)"/>
      <path id="路径_1410" data-name="路径 1410" class="cls-1" d="M18,345.7v5.292H49.59V345.7Zm3.149,4.967H18.584v-4.61h2.6Zm3.149,0H21.7v-4.61h2.6Zm3.149,0h-2.6v-4.61h2.6Zm3.149,0H28v-4.61h2.6Zm3.117,0h-2.6v-4.61h2.6Zm3.149,0h-2.6v-4.61h2.6Zm3.149,0h-2.6v-4.61h2.6Zm3.149,0h-2.6v-4.61h2.6Zm3.149,0h-2.6v-4.61h2.6Zm3.149,0h-2.6v-4.61h2.6Z" transform="translate(-12.318 -233.456)"/>
      <path id="路径_1411" data-name="路径 1411" class="cls-1" d="M18,393.1v5.292H49.59V393.1Zm3.149,4.935H18.584v-4.61h2.6Zm3.149,0H21.7v-4.61h2.6Zm3.149,0h-2.6v-4.61h2.6Zm3.149,0H28v-4.61h2.6Zm3.117,0h-2.6v-4.61h2.6Zm3.149,0h-2.6v-4.61h2.6Zm3.149,0h-2.6v-4.61h2.6Zm3.149,0h-2.6v-4.61h2.6Zm3.149,0h-2.6v-4.61h2.6Zm3.149,0h-2.6v-4.61h2.6Z" transform="translate(-12.318 -265.467)"/>
      <path id="路径_1412" data-name="路径 1412" class="cls-1" d="M18,440.4v5.26H49.59V440.4Zm3.149,4.967H18.584v-4.61h2.6Zm3.149,0H21.7v-4.61h2.6Zm3.149,0h-2.6v-4.61h2.6Zm3.149,0H28v-4.61h2.6Zm3.117,0h-2.6v-4.61h2.6Zm3.149,0h-2.6v-4.61h2.6Zm3.149,0h-2.6v-4.61h2.6Zm3.149,0h-2.6v-4.61h2.6Zm3.149,0h-2.6v-4.61h2.6Zm3.149,0h-2.6v-4.61h2.6Z" transform="translate(-12.318 -297.41)"/>
      <path id="路径_1413" data-name="路径 1413" class="cls-1" d="M18.4,487.8c.13.487.26,1.006.422,1.493v-1.136h2.6v4.578h-1.4c.032.1.1.227.13.325H49.86V487.8Zm6.169,4.935h-2.6v-4.61h2.6Zm3.149,0h-2.6v-4.61h2.6Zm3.149,0h-2.6v-4.61h2.6Zm3.149,0h-2.6v-4.61h2.6Zm3.149,0h-2.6v-4.61h2.6Zm3.117,0h-2.6v-4.61h2.6Zm3.149,0h-2.6v-4.61h2.6Zm3.149,0h-2.6v-4.61h2.6Zm3.149,0h-2.6v-4.61h2.6Z" transform="translate(-12.588 -329.421)"/>
      <path id="路径_1414" data-name="路径 1414" class="cls-1" d="M41,535.1a2.274,2.274,0,0,0,.26.325H42.98v2.208c.195.227.357.455.552.649v-2.89h2.6v4.643H45.091a3.061,3.061,0,0,0,.325.325h19.74V535.1Zm8.247,4.968h-2.6v-4.61h2.6Zm3.149,0H49.8v-4.61h2.6Zm3.149,0h-2.6v-4.61h2.6Zm3.149,0H56.1v-4.61h2.6Zm3.149,0h-2.6v-4.61h2.6Zm3.149,0H62.4v-4.61h2.6Z" transform="translate(-27.851 -361.364)"/>
      <path id="路径_1415" data-name="路径 1415" class="cls-1" d="M94.4,582.5c.292.162.584.325.909.487v-.162h2.6v1.461l.552.26v-1.721h2.6v2.825c.065.033.1.033.162.065v-3.182Z" transform="translate(-63.914 -393.375)"/>
      <ellipse id="椭圆_117" data-name="椭圆 117" class="cls-1" cx="31.622" cy="5.097" rx="31.622" ry="5.097" transform="translate(11.298 236.754)"/>
      <rect id="矩形_1770" data-name="矩形 1770" class="cls-2" width="2.045" height="45.843" transform="translate(41.914 144.516)"/>
      <path id="路径_1416" data-name="路径 1416" class="cls-3" d="M117.75,579.484l-.13,2.078-.195,2.922-.065,1.2-.195,2.922-.065,1.2-.195,2.922-2.045,33.148a5.617,5.617,0,0,1-5.617,5.26H98.563a5.588,5.588,0,0,1-5.584-5.26l-2.045-33.148-.195-2.922-.065-1.2-.195-2.922-.065-1.2-.195-2.922-.13-2.078a2.914,2.914,0,0,1,2.76-3.084h21.98a2.924,2.924,0,0,1,2.89,2.922A.243.243,0,0,1,117.75,579.484Z" transform="translate(-60.999 -389.256)"/>
      <path id="路径_1417" data-name="路径 1417" class="cls-4" d="M117.969,592.2l-.195,2.922H90.762L90.6,592.2Z" transform="translate(-61.348 -399.926)"/>
      <path id="路径_1418" data-name="路径 1418" class="cls-4" d="M118.25,605l-.195,2.89H91.562L91.4,605Z" transform="translate(-61.888 -408.57)"/>
      <path id="路径_1419" data-name="路径 1419" class="cls-4" d="M118.53,617.7l-.162,2.922H92.362L92.2,617.7Z" transform="translate(-62.428 -417.147)"/>
      <path id="路径_1420" data-name="路径 1420" class="cls-5" d="M26.636,479.191c11.85,8.571,16.785,21.98,16.785,21.98s-14.285-.487-26.136-9.058S.5,470.1.5,470.1,14.785,470.587,26.636,479.191Z" transform="translate(-0.5 -317.467)"/>
      <path id="路径_1421" data-name="路径 1421" class="cls-6" d="M2.594,471.393s13.1,7.139,17.837,13.957,23.343,16.006,23.343,16.006" transform="translate(-0.854 -317.686)"/>
      <path id="路径_1422" data-name="路径 1422" class="cls-5" d="M75.02,434.535a28.833,28.833,0,0,1,9.156,11.98,28.675,28.675,0,0,1-14.22-4.935A28.833,28.833,0,0,1,60.8,429.6,29.06,29.06,0,0,1,75.02,434.535Z" transform="translate(-41.223 -290.116)"/>
      <path id="路径_1423" data-name="路径 1423" class="cls-6" d="M64.318,431.915s5.161,2.557,7.726,6.258,12.4,8.483,12.4,8.483" transform="translate(-41.817 -290.507)"/>
      <path id="路径_1424" data-name="路径 1424" class="cls-5" d="M142.893,458.314c-7.4,8.149-8.993,18.8-8.993,18.8s10.454-2.565,17.857-10.714,8.993-18.8,8.993-18.8S150.3,450.165,142.893,458.314Z" transform="translate(-90.59 -302.272)"/>
      <path id="路径_1425" data-name="路径 1425" class="cls-6" d="M158.848,450.169s-7.673,6.209-10.141,11.955S134,477.514,134,477.514" transform="translate(-90.657 -302.706)"/>
    </g>
    <ellipse id="椭圆_118" data-name="椭圆 118" class="cls-7" cx="71" cy="12.5" rx="71" ry="12.5" transform="translate(341.559 458.953)"/>
    <g id="组_4016" data-name="组 4016" transform="translate(319.394 183.868)">
      <rect id="矩形_1752" data-name="矩形 1752" class="cls-8" width="60.189" height="67.302" transform="translate(21.504 123.879)"/>
      <path id="路径_1372" data-name="路径 1372" class="cls-9" d="M94.831,520.392l-1.04,14.117a4.521,4.521,0,0,0,4.158,4.815h.6l7.277-.438a2.235,2.235,0,0,0,2.134-2.408c0-.164-.055-.274-.055-.438L103.86,519.9Z" transform="translate(-42.467 -247.026)"/>
      <path id="路径_1373" data-name="路径 1373" class="cls-9" d="M205.862,528.945c8.536,2.025,14.664,4.815,18.658,8.7a8.182,8.182,0,0,0,5.253,2.243,14.327,14.327,0,0,0,6.128-.821h0a2.28,2.28,0,0,0,1.423-2.024,2.447,2.447,0,0,0-1.04-2.3L216.04,520.3l-8.591,3.447-2.025,2.025a1.981,1.981,0,0,0,0,2.791,2.735,2.735,0,0,0,.438.383Z" transform="translate(-92.762 -247.207)"/>
      <path id="路径_1375" data-name="路径 1375" class="cls-10" d="M145.627,403.511l-11.381,2.955L78.872,285.87,82.32,403.511H70.993C58.846,348.193,36.9,284.283,46.753,264.147l58.821-3.447Z" transform="translate(-20.052 -129.653)"/>
      <circle id="椭圆_113" data-name="椭圆 113" class="cls-11" cx="15.321" cy="15.321" r="15.321" transform="translate(43.008 0)"/>
      <path id="路径_1376" data-name="路径 1376" class="cls-11" d="M110.125,85.983,84.9,84.506C87.362,78.815,88.347,73.4,87.362,68.2H106.13C106.13,72.194,108.1,79.089,110.125,85.983Z" transform="translate(-38.445 -42.483)"/>
      <path id="路径_1377" data-name="路径 1377" class="cls-5" d="M114.074,186.159,58.7,190.1l5.691-98.108,9.63-2.736,10.889,2.462L95.8,86.3l6.894,2.462Z" transform="translate(-26.581 -50.679)"/>
      <path id="路径_1378" data-name="路径 1378" class="cls-12" d="M44.609,256.808,6.8,248.108C18.017,210.845,38.317,125.542,31.751,95.119L51.5,86.2Z" transform="translate(-3.079 -50.634)"/>
      <path id="路径_1379" data-name="路径 1379" class="cls-12" d="M30.636,154.766,16.3,145.847l12.2-35.785a16.843,16.843,0,0,1,7.387-8.755l4.1-2.408L37.53,134.959Z" transform="translate(-7.381 -56.385)"/>
      <path id="路径_1380" data-name="路径 1380" class="cls-12" d="M173.7,247.885c-11.928,6.894-41.749,10.779-54.881,5.909-.985-33.706-2.845-128.968,3.228-169.295l21.777,8.919-1.97,26.7C131.409,142.938,161.613,222.442,173.7,247.885Z" transform="translate(-53.327 -49.864)"/>
      <path id="路径_1381" data-name="路径 1381" class="cls-12" d="M191.034,151.149l-13.351-4.432-17.783-20.3,2.955-25.717,29.657,41.53Z" transform="translate(-72.407 -57.2)"/>
      <path id="路径_1382" data-name="路径 1382" class="cls-11" d="M140.328,222.2a3.739,3.739,0,0,0,4.432,2.791l11.326-2.572-1.642-7.223-11.326,2.572a3.767,3.767,0,0,0-2.791,4.432Z" transform="translate(-63.505 -109.049)"/>
      <path id="路径_1384" data-name="路径 1384" class="cls-12" d="M159,196.408l6.4,11.874c10.834-3.009,20.191-12.53,29.164-23.747L192.1,176.6l-15.321,3.94Z" transform="translate(-72 -91.57)"/>
      <path id="路径_1385" data-name="路径 1385" class="cls-3" d="M138.943,127.109h-1.97c0-27.96-5.745-47.44-11.381-47.44L125.1,77.7c5.034,0,8.262,8.1,10.068,14.938C137.63,101.83,138.943,114.087,138.943,127.109Z" transform="translate(-56.649 -46.785)"/>
      <path id="路径_1386" data-name="路径 1386" class="cls-3" d="M65.67,121.03H63.7c0-25.608,5.8-41.53,14.336-41.53l-.492,1.97C71.634,81.47,65.67,93.726,65.67,121.03Z" transform="translate(-28.845 -47.6)"/>
      <circle id="椭圆_114" data-name="椭圆 114" class="cls-3" cx="4.925" cy="4.925" r="4.925" transform="translate(75.653 84.925) rotate(-80.782)"/>
      <path id="路径_1387" data-name="路径 1387" class="cls-3" d="M51.27,166.458H49.3c0-7.113,3.994-12.858,8.919-12.858v1.97C54.334,155.57,51.27,160.44,51.27,166.458Z" transform="translate(-22.324 -81.155)"/>
      <path id="路径_1388" data-name="路径 1388" class="cls-3" d="M74.464,166.458h-1.97c0-6.019-3.119-10.889-6.894-10.889V153.6C70.47,153.6,74.464,159.345,74.464,166.458Z" transform="translate(-29.706 -81.155)"/>
      <circle id="椭圆_115" data-name="椭圆 115" class="cls-3" cx="1.97" cy="1.97" r="1.97" transform="translate(41.804 83.827)"/>
      <circle id="椭圆_116" data-name="椭圆 116" class="cls-3" cx="1.97" cy="1.97" r="1.97" transform="translate(25.991 83.827)"/>
      <path id="路径_1389" data-name="路径 1389" class="cls-5" d="M5.9,144.7l12.311,2.243L46.445,187l-14.992-3.5Z" transform="translate(-2.672 -77.124)"/>
      <path id="路径_1390" data-name="路径 1390" class="cls-3" d="M1.04,143.8A1.039,1.039,0,0,0,0,144.84a.924.924,0,0,0,.164.547l26.374,40a1.089,1.089,0,0,0,.657.438l12.257,2.9a1.065,1.065,0,0,0,1.258-.766,1.078,1.078,0,0,0-.164-.821L11.6,145.989a1.089,1.089,0,0,0-.657-.438L1.258,143.8C1.149,143.855,1.094,143.8,1.04,143.8Z" transform="translate(0 -76.717)"/>
      <path id="路径_1391" data-name="路径 1391" class="cls-11" d="M31.9,195.139l.711,7.387,11.545-1.149a3.71,3.71,0,1,0-.711-7.387Z" transform="translate(-14.445 -99.439)"/>
      <path id="路径_1392" data-name="路径 1392" class="cls-12" d="M13.6,189.383a9.516,9.516,0,0,0,9.521,9.466h1.915L26.4,187.3l-11.491-4.1Z" transform="translate(-6.158 -94.558)"/>
    </g>
    <path id="路径_1272" data-name="路径 1272" class="cls-10" d="M178.875,12.228s3.214,5.088,8.324,2.884,6.791,3.391,17.061,1.775c0,0,2.624-18.4-19.784-16.782s-11.384,27.227-11.384,27.227.18-4.6,2.047-2.173S178.875,12.228,178.875,12.228Z" transform="translate(189.715 178.393)"/>
  </g>
</svg>
