<svg xmlns="http://www.w3.org/2000/svg" width="11.335" height="31.704" viewBox="0 0 11.335 31.704">
  <defs>
    <style>
      .cls-1 {
        opacity: 0.69;
      }

      .cls-2, .cls-3 {
        fill: #fff;
      }

      .cls-3 {
        opacity: 0.377;
      }
    </style>
  </defs>
  <g id="组_5051" data-name="组 5051" class="cls-1" transform="translate(-885.8 -237.517)">
    <path id="路径_1894" data-name="路径 1894" class="cls-2" d="M74.809,660.289a.853.853,0,0,1,.85.85v7.226a.853.853,0,0,1-.85.85H69.85v-8.927h4.959m0-.85H69v10.627h5.809a1.7,1.7,0,0,0,1.7-1.7v-7.226a1.7,1.7,0,0,0-1.7-1.7Zm0,0" transform="translate(816.8 -406.372)"/>
    <path id="路径_1895" data-name="路径 1895" class="cls-2" d="M81.578,596.2H79.027a.425.425,0,0,1,0-.85h2.551a.425.425,0,0,1,0,.85Zm0,3.188H79.027a.425.425,0,0,1,0-.85h2.551a.425.425,0,0,1,0,.85Z" transform="translate(807.623 -338.988)"/>
    <path id="路径_1896" data-name="路径 1896" class="cls-2" d="M88.2,942.638h9.635v.85H88.2Zm0,0" transform="translate(798.451 -677.031)"/>
    <path id="路径_1903" data-name="路径 1903" class="cls-2" d="M143.472,345.891a.177.177,0,1,1,0,.354h-3.046a.177.177,0,1,1,0-.354h3.046m0-.85h-3.046a1.027,1.027,0,1,0,0,2.055h3.046a1.027,1.027,0,1,0,0-2.055Zm0,0" transform="translate(749.519 -105.895)"/>
    <path id="路径_1904" data-name="路径 1904" class="cls-2" d="M161.152,311.853v3.719h-1.7v-3.719h-.85v4.57H162v-4.57Zm-1.7-1.913v-.85h1.7v.85H162v-1.7h-3.4v1.7Zm0,0" transform="translate(731.165 -70.723)"/>
    <path id="路径_1905" data-name="路径 1905" class="cls-2" d="M73.818,309.94v-.85h1.7v.85h.85v-1.7h-3.4v1.7Zm2.55,7.662v-5.749h-.85v6.373l.6.188a4.849,4.849,0,0,1,2.419,1.721,4.778,4.778,0,0,1,.953,2.876v15.232a.853.853,0,0,1-.85.85H70.7a.853.853,0,0,1-.85-.85V323.012a4.778,4.778,0,0,1,.953-2.876,4.87,4.87,0,0,1,2.419-1.721l.6-.188v-6.373h-.85V317.6A5.67,5.67,0,0,0,69,323.012v15.232a1.7,1.7,0,0,0,1.7,1.7h7.935a1.7,1.7,0,0,0,1.7-1.7V323.012a5.674,5.674,0,0,0-3.968-5.409Zm0,0" transform="translate(816.8 -70.723)"/>
    <path id="路径_1913" data-name="路径 1913" class="cls-3" d="M0-.2H9.635v1a.86.86,0,0,1-.944.914l-7.75,0A.862.862,0,0,1,0,.842Z" transform="translate(886.655 266.657)"/>
  </g>
</svg>
