<svg xmlns="http://www.w3.org/2000/svg" xmlns:xlink="http://www.w3.org/1999/xlink" width="27.52" height="28.365" viewBox="0 0 27.52 28.365">
  <defs>
    <style>
      .cls-1 {
        fill: none;
      }

      .cls-2 {
        opacity: 0.693;
      }

      .cls-3 {
        clip-path: url(#clip-path);
      }

      .cls-4 {
        fill: #f4cd4b;
      }

      .cls-5, .cls-6 {
        fill: #fff;
      }

      .cls-6 {
        opacity: 0.459;
      }
    </style>
    <clipPath id="clip-path">
      <rect id="矩形_2116" data-name="矩形 2116" class="cls-1" width="23.014" height="21.742" transform="translate(0 0)"/>
    </clipPath>
  </defs>
  <g id="组_4989" data-name="组 4989" class="cls-2" transform="translate(450.676 28.022) rotate(107)">
    <g id="组_4988" data-name="组 4988" class="cls-3" transform="translate(103 411)">
      <path id="路径_1906" data-name="路径 1906" class="cls-4" d="M161.69,423l-16.255,16.251a1.769,1.769,0,0,1-2.493,0l-1.272-1.272a1.768,1.768,0,0,1,0-2.493l16.255-16.255a1.769,1.769,0,0,1,2.493,0l1.272,1.272a1.773,1.773,0,0,1,0,2.5Zm0,0" transform="translate(-139.539 -418.391)"/>
      <path id="路径_1907" data-name="路径 1907" class="cls-5" d="M136.8,432.644a2.254,2.254,0,0,1-1.6-.665l-1.092-1.092a2.276,2.276,0,0,1,0-3.208L150.174,411.6a2.27,2.27,0,0,1,3.208,0l1.092,1.092a2.27,2.27,0,0,1,0,3.208L138.4,431.98a2.254,2.254,0,0,1-1.6.665ZM151.778,411.7a1.5,1.5,0,0,0-1.068.441l-16.075,16.075a1.515,1.515,0,0,0,0,2.137l1.092,1.092a1.515,1.515,0,0,0,2.14,0l16.075-16.075a1.515,1.515,0,0,0,0-2.136l-1.092-1.092a1.512,1.512,0,0,0-1.072-.441Zm0,0" transform="translate(-132.148 -410.943)"/>
      <path id="路径_1908" data-name="路径 1908" class="cls-6" d="M439.143,416.531l-4.683,4.683a.952.952,0,0,1-1.343,0l-2.421-2.421a.952.952,0,0,1,0-1.343l4.683-4.683a1.126,1.126,0,0,1,1.584,0l2.181,2.181a1.126,1.126,0,0,1,0,1.584Zm0,0" transform="translate(-416.538 -412.38)"/>
      <path id="路径_1909" data-name="路径 1909" class="cls-5" d="M416.3,420.9a.375.375,0,0,1-.268-.112l-3.764-3.764a.377.377,0,0,1,0-.536l4.809-4.809a2.27,2.27,0,0,1,3.208,0l1.092,1.092a2.27,2.27,0,0,1,0,3.208l-4.809,4.809a.381.381,0,0,1-.268.112Zm-3.232-4.144,3.229,3.229,4.541-4.541a1.515,1.515,0,0,0,0-2.14l-1.092-1.092a1.514,1.514,0,0,0-2.14,0Zm0,0" transform="translate(-399.05 -411.018)"/>
      <path id="路径_1910" data-name="路径 1910" class="cls-5" d="M175.5,831.846l-.014.014a.672.672,0,0,1-.943,0l-.909-.909a.672.672,0,0,1,0-.943l.014-.013a.671.671,0,0,1,.943,0l.909.909a.665.665,0,0,1,0,.943Zm0,0" transform="translate(-170.452 -812.047)"/>
      <path id="路径_1911" data-name="路径 1911" class="cls-5" d="M1.633,7.96a.373.373,0,0,1-.217-.068C.656,7.364-.456,6.166.2,5.03a3.875,3.875,0,0,1,.624-.763C1.494,3.575,2.077,2.979.9.544A.378.378,0,0,1,1.585.215a8.21,8.21,0,0,1,.7,1.993,2.58,2.58,0,0,1-.917,2.586,3.513,3.513,0,0,0-.512.614c-.471.81.98,1.852.994,1.862a.381.381,0,0,1-.217.692Zm0,0" transform="translate(-0.846 6.841) rotate(-13)"/>
      <path id="路径_1912" data-name="路径 1912" class="cls-5" d="M1.633,7.96a.373.373,0,0,1-.217-.068C.656,7.364-.456,6.166.2,5.03a3.875,3.875,0,0,1,.624-.763C1.494,3.575,2.077,2.979.9.544A.378.378,0,0,1,1.585.215a8.21,8.21,0,0,1,.7,1.993,2.58,2.58,0,0,1-.917,2.586,3.513,3.513,0,0,0-.512.614c-.471.81.98,1.852.994,1.862a.381.381,0,0,1-.217.692Zm0,0" transform="translate(1.017 6.459) rotate(-13)"/>
    </g>
  </g>
</svg>
