<svg id="clock-circle-o" xmlns="http://www.w3.org/2000/svg" width="20" height="20" viewBox="0 0 20 20">
  <defs>
    <style>
      .cls-1 {
        fill: rgba(59,184,176,1);
      }
    </style>
  </defs>
  <path id="Shape" class="cls-1" d="M10,20A10,10,0,0,1,2.929,2.929,10,10,0,0,1,17.071,17.071,9.935,9.935,0,0,1,10,20ZM10,1.406A8.571,8.571,0,0,0,3.922,3.924,8.557,8.557,0,0,0,1.406,10a8.591,8.591,0,0,0,14.67,6.076,8.587,8.587,0,0,0,0-12.154A8.557,8.557,0,0,0,10,1.406Zm4.317,9.844H10.7A1.408,1.408,0,0,1,9.3,9.844V5.156a.7.7,0,1,1,1.406,0V9.844h3.613a.7.7,0,0,1,0,1.406Z" transform="translate(0 0)"/>
</svg>
