<svg xmlns="http://www.w3.org/2000/svg" xmlns:xlink="http://www.w3.org/1999/xlink" width="16" height="16" viewBox="0 0 16 16">
  <defs>
    <style>
      .cls-1 {
        fill: #fff;
      }

      .cls-2 {
        clip-path: url(#clip-path);
      }
    </style>
    <clipPath id="clip-path">
      <rect id="矩形_1451" data-name="矩形 1451" class="cls-1" width="16" height="16" transform="translate(558 2110)"/>
    </clipPath>
  </defs>
  <g id="蒙版组_17" data-name="蒙版组 17" class="cls-2" transform="translate(-558 -2110)">
    <g id="折线图" transform="translate(556.518 2108.519)">
      <path id="路径_995" data-name="路径 995" class="cls-1" d="M16.889,15.7H2.667V2.667a.593.593,0,1,0-1.185,0V16.3a.594.594,0,0,0,.593.593H16.889a.593.593,0,0,0,0-1.185Z"/>
      <path id="路径_996" data-name="路径 996" class="cls-1" d="M4.563,11.793,8.148,8.207l2.933,2.933a.653.653,0,0,0,.444.178.585.585,0,0,0,.415-.178l5.126-5.156a.592.592,0,0,0,0-.8.563.563,0,0,0-.8,0L11.556,9.926,8.593,6.963a.882.882,0,0,0-.444-.148.585.585,0,0,0-.415.178l-4,3.97a.587.587,0,0,0,.83.83Z"/>
    </g>
  </g>
</svg>
