<svg xmlns="http://www.w3.org/2000/svg" width="80" height="93" viewBox="0 0 80 93">
  <defs>
    <style>
      .cls-1 {
        fill: #999;
      }
    </style>
  </defs>
  <g id="文件-计划_2_" data-name="文件-计划 (2)" transform="translate(-128 -64)">
    <path id="路径_987" data-name="路径 987" class="cls-1" d="M260.966,87.191v13.283h-2.873V90.245a5.338,5.338,0,0,1-1.452.787,7.494,7.494,0,0,1-1.682.435V89.147a13.1,13.1,0,0,0,4.19-1.946h1.818Zm-4.211,30.8h5.558v2.247H253.6v-.952a4.489,4.489,0,0,1,.376-1.853,5.986,5.986,0,0,1,1.034-1.563,12.489,12.489,0,0,1,2.048-1.7,7.961,7.961,0,0,0,1.776-1.656,2.669,2.669,0,0,0,.512-1.532c0-1.17-.648-1.75-1.933-1.75a4.866,4.866,0,0,0-3.228,1.336v-2.412a7,7,0,0,1,3.855-1.1,4.569,4.569,0,0,1,3.1.994,3.427,3.427,0,0,1,1.139,2.733,4.469,4.469,0,0,1-.334,1.75,5.365,5.365,0,0,1-.951,1.47,12.652,12.652,0,0,1-2.006,1.646A11.18,11.18,0,0,0,257.2,117.1a1.516,1.516,0,0,0-.449.89ZM253.934,137.1a4.9,4.9,0,0,0,2.988.952,2.755,2.755,0,0,0,1.714-.476,1.577,1.577,0,0,0,.637-1.346,1.537,1.537,0,0,0-.752-1.377,3.926,3.926,0,0,0-2.111-.476h-1.139v-2.029h1.045c1.714,0,2.57-.569,2.57-1.719q0-1.615-1.975-1.615a4.39,4.39,0,0,0-2.5.828v-2.174a6.649,6.649,0,0,1,3.1-.673,4.883,4.883,0,0,1,2.946.828,2.683,2.683,0,0,1,1.128,2.3,2.967,2.967,0,0,1-2.539,3.116v.041a3.356,3.356,0,0,1,2.131.973,2.761,2.761,0,0,1,.8,2,3.332,3.332,0,0,1-1.327,2.816,5.731,5.731,0,0,1-3.552,1.015,6.8,6.8,0,0,1-3.176-.642V137.1Zm50.1-6.947h-30.09a3.313,3.313,0,1,0,0,6.626h30.09a3.313,3.313,0,1,0,0-6.626Zm-30.09-19.878a3.313,3.313,0,1,0,0,6.626h30.09a3.313,3.313,0,1,0,0-6.626Zm0-19.878a3.313,3.313,0,1,0,0,6.626h30.09a3.313,3.313,0,1,0,0-6.626ZM263.881,64h6.687V80.565h-6.687Z" transform="translate(-112.597)"/>
    <path id="路径_988" data-name="路径 988" class="cls-1" d="M198,214.374H138a9.986,9.986,0,0,1-10-9.966V137.966A9.986,9.986,0,0,1,138,128h10v6.644H138a3.324,3.324,0,0,0-3.333,3.322v66.442A3.324,3.324,0,0,0,138,207.73h60a3.324,3.324,0,0,0,3.333-3.322V137.966A3.324,3.324,0,0,0,198,134.644H188V128h10a9.986,9.986,0,0,1,10,9.966v66.442A9.986,9.986,0,0,1,198,214.374Z" transform="translate(0 -57.374)"/>
    <path id="路径_989" data-name="路径 989" class="cls-1" d="M448,70.626h13.252v6.626H448ZM464.565,64h6.626V80.565h-6.626Z" transform="translate(-286.583)"/>
  </g>
</svg>
